ChaiSerif-Regular.ufo
<glyph name="临字旁" format="2">
	<unicode hex="E001"/>
	<advance height="1880" width="1000"/>
	<outline>
		<contour>
			<point x="260" y="835" type="line"/>
			<point x="260" y="-73" type="line"/>
			<point x="272" y="-73" type="line" smooth="yes"/>
			<point x="289" y="-73"/>
			<point x="323" y="-55"/>
			<point x="323" y="-46" type="qcurve" smooth="yes"/>
			<point x="323" y="796" type="line"/>
			<point x="354" y="801"/>
			<point x="359" y="824" type="qcurve"/>
		</contour>
		<contour>
			<point x="82" y="706" type="line"/>
			<point x="82" y="72" type="line"/>
			<point x="94" y="72" type="line" smooth="yes"/>
			<point x="111" y="72"/>
			<point x="143" y="89"/>
			<point x="143" y="97" type="qcurve" smooth="yes"/>
			<point x="143" y="669" type="line"/>
			<point x="161" y="671"/>
			<point x="178" y="684"/>
			<point x="180" y="695" type="qcurve"/>
		</contour>
	</outline>
	<note>
临字旁
</note>
</glyph>
<glyph name="举字底" format="2">
	<unicode hex="E002"/>
	<advance height="1880" width="1000"/>
	<outline>
		<contour>
			<point x="774" y="158" type="line"/>
			<point x="528" y="158" type="line"/>
			<point x="528" y="299" type="line"/>
			<point x="726" y="299" type="line" smooth="yes"/>
			<point x="749" y="299"/>
			<point x="753" y="315" type="qcurve"/>
			<point x="733" y="333"/>
			<point x="673" y="380"/>
			<point x="673" y="380" type="qcurve"/>
			<point x="629" y="329" type="line"/>
			<point x="528" y="329" type="line"/>
			<point x="528" y="454" type="line"/>
			<point x="558" y="458"/>
			<point x="561" y="479" type="qcurve"/>
			<point x="462" y="489" type="line"/>
			<point x="462" y="329" type="line"/>
			<point x="252" y="329" type="line"/>
			<point x="260" y="299" type="line"/>
			<point x="462" y="299" type="line"/>
			<point x="462" y="158" type="line"/>
			<point x="94" y="158" type="line"/>
			<point x="103" y="128" type="line"/>
			<point x="462" y="128" type="line"/>
			<point x="462" y="-77" type="line"/>
			<point x="475" y="-77" type="line" smooth="yes"/>
			<point x="493" y="-77"/>
			<point x="528" y="-60"/>
			<point x="528" y="-53" type="qcurve" smooth="yes"/>
			<point x="528" y="128" type="line"/>
			<point x="880" y="128" type="line" smooth="yes"/>
			<point x="903" y="128"/>
			<point x="906" y="144" type="qcurve"/>
			<point x="885" y="163"/>
			<point x="820" y="214"/>
			<point x="820" y="214" type="qcurve"/>
		</contour>
	</outline>
	<note>
举字底
</note>
</glyph>
<glyph name="寿字头" format="2">
	<unicode hex="E003"/>
	<advance height="1880" width="1000"/>
	<outline>
		<contour>
			<point x="824" y="439" type="line"/>
			<point x="420" y="439" type="line"/>
			<point x="443" y="501"/>
			<point x="458" y="550" type="qcurve"/>
			<point x="821" y="550" type="line" smooth="yes"/>
			<point x="844" y="550"/>
			<point x="848" y="566" type="qcurve"/>
			<point x="826" y="585"/>
			<point x="759" y="639"/>
			<point x="759" y="639" type="qcurve"/>
			<point x="712" y="580" type="line"/>
			<point x="467" y="580" type="line"/>
			<point x="476" y="612"/>
			<point x="493" y="689" type="qcurve"/>
			<point x="886" y="689" type="line" smooth="yes"/>
			<point x="909" y="689"/>
			<point x="913" y="705" type="qcurve"/>
			<point x="891" y="725"/>
			<point x="822" y="779"/>
			<point x="822" y="779" type="qcurve"/>
			<point x="773" y="719" type="line"/>
			<point x="499" y="719" type="line"/>
			<point x="513" y="805" type="line"/>
			<point x="535" y="806"/>
			<point x="553" y="817"/>
			<point x="555" y="828" type="qcurve"/>
			<point x="439" y="844" type="line"/>
			<point x="432" y="774"/>
			<point x="423" y="719" type="qcurve"/>
			<point x="104" y="719" type="line"/>
			<point x="113" y="689" type="line"/>
			<point x="418" y="689" type="line"/>
			<point x="403" y="612"/>
			<point x="395" y="580" type="qcurve"/>
			<point x="157" y="580" type="line"/>
			<point x="165" y="550" type="line"/>
			<point x="387" y="550" type="line"/>
			<point x="373" y="498"/>
			<point x="352" y="439" type="qcurve"/>
			<point x="38" y="439" type="line"/>
			<point x="47" y="409" type="line"/>
			<point x="340" y="409" type="line"/>
			<point x="237" y="151"/>
			<point x="41" y="10" type="qcurve"/>
			<point x="54" y="-1" type="line"/>
			<point x="290" y="137"/>
			<point x="407" y="409" type="qcurve"/>
			<point x="940" y="409" type="line" smooth="yes"/>
			<point x="962" y="409"/>
			<point x="965" y="425" type="qcurve"/>
			<point x="944" y="446"/>
			<point x="874" y="501"/>
			<point x="874" y="501" type="qcurve"/>
		</contour>
	</outline>
	<note>
寿字头
</note>
</glyph>
<glyph name="与无横" format="2">
	<unicode hex="E004"/>
	<advance height="1880" width="1000"/>
	<outline>
		<contour>
			<point x="786" y="655" type="line"/>
			<point x="308" y="655" type="line"/>
			<point x="321" y="742"/>
			<point x="327" y="794" type="qcurve"/>
			<point x="357" y="793"/>
			<point x="365" y="814" type="qcurve"/>
			<point x="266" y="840" type="line"/>
			<point x="250" y="662"/>
			<point x="211" y="463" type="qcurve"/>
			<point x="189" y="456"/>
			<point x="171" y="443" type="qcurve"/>
			<point x="245" y="389" type="line"/>
			<point x="277" y="423" type="line"/>
			<point x="785" y="423" type="line"/>
			<point x="773" y="267"/>
			<point x="727" y="41"/>
			<point x="698" y="19" type="qcurve" smooth="yes"/>
			<point x="688" y="11"/>
			<point x="670" y="5"/>
			<point x="653" y="5" type="qcurve" smooth="yes"/>
			<point x="616" y="5"/>
			<point x="473" y="20" type="qcurve"/>
			<point x="472" y="2" type="line"/>
			<point x="571" y="-12"/>
			<point x="596" y="-30" type="qcurve" smooth="yes"/>
			<point x="619" y="-45"/>
			<point x="619" y="-79" type="qcurve"/>
			<point x="699" y="-79"/>
			<point x="744" y="-38" type="qcurve" smooth="yes"/>
			<point x="785" y="2"/>
			<point x="839" y="246"/>
			<point x="852" y="415" type="qcurve"/>
			<point x="880" y="416"/>
			<point x="894" y="430" type="qcurve"/>
			<point x="816" y="494" type="line"/>
			<point x="776" y="453" type="line"/>
			<point x="275" y="453" type="line"/>
			<point x="295" y="565"/>
			<point x="304" y="625" type="qcurve"/>
			<point x="904" y="625" type="line" smooth="yes"/>
			<point x="927" y="625"/>
			<point x="931" y="641" type="qcurve"/>
			<point x="908" y="662"/>
			<point x="837" y="717"/>
			<point x="837" y="717" type="qcurve"/>
		</contour>
	</outline>
	<note>
与无横
</note>
</glyph>
<glyph name="禺字底" format="2">
	<unicode hex="E005"/>
	<advance height="1880" width="1000"/>
	<outline>
		<contour>
			<point x="464" y="345" type="line"/>
			<point x="186" y="345" type="line"/>
			<point x="114" y="377" type="line"/>
			<point x="114" y="-78" type="line"/>
			<point x="125" y="-78" type="line" smooth="yes"/>
			<point x="144" y="-78"/>
			<point x="180" y="-61"/>
			<point x="180" y="-55" type="qcurve" smooth="yes"/>
			<point x="180" y="315" type="line"/>
			<point x="464" y="315" type="line"/>
			<point x="464" y="167" type="line"/>
			<point x="317" y="153"/>
			<point x="241" y="150" type="qcurve"/>
			<point x="278" y="67" type="line"/>
			<point x="294" y="70"/>
			<point x="303" y="89" type="qcurve"/>
			<point x="518" y="130"/>
			<point x="669" y="167" type="qcurve"/>
			<point x="694" y="121"/>
			<point x="701" y="91" type="qcurve"/>
			<point x="726" y="73"/>
			<point x="761" y="101"/>
			<point x="749" y="168"/>
			<point x="672" y="249"/>
			<point x="597" y="283" type="qcurve"/>
			<point x="585" y="275" type="line"/>
			<point x="626" y="234"/>
			<point x="657" y="186" type="qcurve"/>
			<point x="528" y="173" type="line"/>
			<point x="528" y="315" type="line"/>
			<point x="819" y="315" type="line"/>
			<point x="819" y="20" type="line" smooth="yes"/>
			<point x="819" y="9"/>
			<point x="809" y="0"/>
			<point x="795" y="0" type="qcurve" smooth="yes"/>
			<point x="779" y="0"/>
			<point x="658" y="7"/>
			<point x="658" y="7" type="qcurve"/>
			<point x="658" y="-9" type="line"/>
			<point x="722" y="-15"/>
			<point x="751" y="-32" type="qcurve"/>
			<point x="770" y="-46"/>
			<point x="775" y="-79" type="qcurve"/>
			<point x="843" y="-73"/>
			<point x="885" y="-29"/>
			<point x="885" y="13" type="qcurve" smooth="yes"/>
			<point x="885" y="302" type="line"/>
			<point x="915" y="308"/>
			<point x="927" y="322" type="qcurve"/>
			<point x="843" y="385" type="line"/>
			<point x="810" y="345" type="line"/>
			<point x="528" y="345" type="line"/>
			<point x="528" y="753" type="line"/>
			<point x="464" y="753" type="line"/>
		</contour>
		<contour>
			<point x="528" y="753" type="line"/>
			<point x="528" y="631" type="line"/>
		</contour>
		<contour>
			<point x="464" y="477" type="line"/>
			<point x="464" y="603" type="line"/>
		</contour>
		<contour>
			<point x="464" y="631" type="line"/>
			<point x="464" y="753" type="line"/>
		</contour>
		<contour>
			<point x="528" y="603" type="line"/>
			<point x="528" y="477" type="line"/>
		</contour>
	</outline>
	<note>
禺字底
</note>
</glyph>
<glyph name="享字头" format="2">
	<unicode hex="E006"/>
	<advance height="1880" width="1000"/>
	<outline>
		<contour>
			<point x="808" y="706" type="line"/>
			<point x="54" y="706" type="line"/>
			<point x="63" y="677" type="line"/>
			<point x="921" y="677" type="line" smooth="yes"/>
			<point x="943" y="677"/>
			<point x="947" y="693" type="qcurve"/>
			<point x="925" y="713"/>
			<point x="857" y="769"/>
			<point x="857" y="769" type="qcurve"/>
		</contour>
		<contour>
			<point x="409" y="841" type="line"/>
			<point x="435" y="817"/>
			<point x="483" y="747"/>
			<point x="490" y="718" type="qcurve"/>
			<point x="514" y="702"/>
			<point x="552" y="724"/>
			<point x="548" y="778"/>
			<point x="484" y="832"/>
			<point x="419" y="848" type="qcurve"/>
		</contour>
		<contour>
			<point x="284" y="442" type="line"/>
			<point x="713" y="442" type="line"/>
			<point x="713" y="408" type="line"/>
			<point x="723" y="408" type="line" smooth="yes"/>
			<point x="738" y="408"/>
			<point x="778" y="423"/>
			<point x="779" y="428" type="qcurve"/>
			<point x="779" y="568" type="line"/>
			<point x="811" y="575"/>
			<point x="822" y="587" type="qcurve"/>
			<point x="739" y="649" type="line"/>
			<point x="703" y="609" type="line"/>
			<point x="290" y="609" type="line"/>
			<point x="219" y="641" type="line"/>
			<point x="219" y="399" type="line"/>
			<point x="229" y="399" type="line" smooth="yes"/>
			<point x="247" y="399"/>
			<point x="284" y="415"/>
			<point x="284" y="419" type="qcurve" smooth="yes"/>
		</contour>
		<contour>
			<point x="713" y="472" type="line"/>
			<point x="284" y="472" type="line"/>
			<point x="284" y="580" type="line"/>
			<point x="713" y="580" type="line"/>
		</contour>
	</outline>
	<note>
享字头
</note>
</glyph>
<glyph name="候右角" format="2">
	<unicode hex="E007"/>
	<advance height="1880" width="1000"/>
	<outline>
		<contour>
			<point x="838" y="596" type="line"/>
			<point x="787" y="596" type="line"/>
			<point x="802" y="743" type="line"/>
			<point x="826" y="746"/>
			<point x="834" y="755" type="qcurve"/>
			<point x="768" y="812" type="line"/>
			<point x="735" y="778" type="line"/>
			<point x="440" y="778" type="line"/>
			<point x="449" y="748" type="line"/>
			<point x="741" y="748" type="line"/>
			<point x="722" y="596" type="line"/>
			<point x="386" y="596" type="line"/>
			<point x="394" y="567" type="line"/>
			<point x="937" y="567" type="line" smooth="yes"/>
			<point x="959" y="567"/>
			<point x="962" y="583" type="qcurve"/>
			<point x="944" y="602"/>
			<point x="882" y="656"/>
			<point x="882" y="656" type="qcurve"/>
		</contour>
	</outline>
	<note>
候右角
</note>
</glyph>
<glyph name="叚右角" format="2">
	<unicode hex="E009"/>
	<advance height="1880" width="1000"/>
	<outline>
		<contour>
			<point x="551" y="744" type="line"/>
			<point x="816" y="744" type="line"/>
			<point x="816" y="561" type="line"/>
			<point x="535" y="561" type="line"/>
			<point x="544" y="531" type="line"/>
			<point x="816" y="531" type="line"/>
			<point x="816" y="473" type="line"/>
			<point x="826" y="473" type="line" smooth="yes"/>
			<point x="841" y="473"/>
			<point x="881" y="489"/>
			<point x="882" y="494" type="qcurve"/>
			<point x="882" y="732" type="line"/>
			<point x="913" y="738"/>
			<point x="925" y="752" type="qcurve"/>
			<point x="843" y="814" type="line"/>
			<point x="807" y="773" type="line"/>
			<point x="542" y="773" type="line"/>
		</contour>
	</outline>
	<note>
叚右角
</note>
</glyph>
<glyph name="充字头" format="2">
	<unicode hex="E00A"/>
	<advance height="1880" width="1000"/>
	<outline>
		<contour>
			<point x="410" y="840" type="line"/>
			<point x="444" y="812"/>
			<point x="505" y="732"/>
			<point x="515" y="697" type="qcurve"/>
			<point x="540" y="681"/>
			<point x="577" y="708"/>
			<point x="567" y="768"/>
			<point x="493" y="829"/>
			<point x="421" y="848" type="qcurve"/>
		</contour>
		<contour>
			<point x="812" y="681" type="line"/>
			<point x="48" y="681" type="line"/>
			<point x="56" y="651" type="line"/>
			<point x="931" y="651" type="line" smooth="yes"/>
			<point x="954" y="651"/>
			<point x="957" y="667" type="qcurve"/>
			<point x="935" y="688"/>
			<point x="864" y="744"/>
			<point x="864" y="744" type="qcurve"/>
		</contour>
		<contour>
			<point x="632" y="573" type="line"/>
			<point x="717" y="511"/>
			<point x="786" y="433" type="qcurve"/>
			<point x="395" y="414"/>
			<point x="207" y="413" type="qcurve"/>
			<point x="282" y="448"/>
			<point x="440" y="547"/>
			<point x="490" y="588" type="qcurve"/>
			<point x="523" y="583"/>
			<point x="531" y="600" type="qcurve"/>
			<point x="438" y="649" type="line"/>
			<point x="394" y="596"/>
			<point x="229" y="458"/>
			<point x="161" y="428" type="qcurve" smooth="yes"/>
			<point x="156" y="426"/>
			<point x="134" y="421"/>
			<point x="134" y="421" type="qcurve"/>
			<point x="182" y="335" type="line"/>
			<point x="191" y="340"/>
			<point x="196" y="351" type="qcurve"/>
			<point x="338" y="362" type="line"/>
			<point x="407" y="368" type="line"/>
			<point x="580" y="385" type="line"/>
			<point x="644" y="392" type="line"/>
			<point x="804" y="412" type="line"/>
			<point x="834" y="374"/>
			<point x="848" y="345" type="qcurve"/>
			<point x="878" y="330"/>
			<point x="908" y="366"/>
			<point x="872" y="446"/>
			<point x="750" y="542"/>
			<point x="643" y="583" type="qcurve"/>
		</contour>
	</outline>
	<note>
充字头
</note>
</glyph>
<glyph name="养字头" format="2">
	<unicode hex="E00B"/>
	<advance height="1880" width="1000"/>
	<outline>
		<contour>
			<point x="263" y="832" type="line"/>
			<point x="290" y="808"/>
			<point x="336" y="736"/>
			<point x="342" y="704" type="qcurve"/>
			<point x="367" y="687"/>
			<point x="408" y="711"/>
			<point x="405" y="767"/>
			<point x="341" y="824"/>
			<point x="274" y="839" type="qcurve"/>
		</contour>
		<contour>
			<point x="818" y="424" type="line"/>
			<point x="427" y="424" type="line"/>
			<point x="464" y="478"/>
			<point x="485" y="525" type="qcurve"/>
			<point x="825" y="525" type="line" smooth="yes"/>
			<point x="848" y="525"/>
			<point x="851" y="541" type="qcurve"/>
			<point x="831" y="559"/>
			<point x="768" y="609"/>
			<point x="768" y="609" type="qcurve"/>
			<point x="722" y="554" type="line"/>
			<point x="498" y="554" type="line"/>
			<point x="516" y="597"/>
			<point x="533" y="659" type="qcurve"/>
			<point x="882" y="659" type="line" smooth="yes"/>
			<point x="904" y="659"/>
			<point x="908" y="675" type="qcurve"/>
			<point x="887" y="694"/>
			<point x="820" y="746"/>
			<point x="820" y="746" type="qcurve"/>
			<point x="774" y="689" type="line"/>
			<point x="618" y="689" type="line"/>
			<point x="683" y="742"/>
			<point x="723" y="790" type="qcurve"/>
			<point x="753" y="787"/>
			<point x="762" y="806" type="qcurve"/>
			<point x="657" y="840" type="line"/>
			<point x="625" y="756"/>
			<point x="588" y="689" type="qcurve"/>
			<point x="111" y="689" type="line"/>
			<point x="119" y="659" type="line"/>
			<point x="452" y="659" type="line"/>
			<point x="438" y="605"/>
			<point x="419" y="554" type="qcurve"/>
			<point x="159" y="554" type="line"/>
			<point x="167" y="525" type="line"/>
			<point x="407" y="525" type="line"/>
			<point x="383" y="473"/>
			<point x="351" y="424" type="qcurve"/>
			<point x="61" y="424" type="line"/>
			<point x="69" y="394" type="line"/>
			<point x="329" y="394" type="line"/>
			<point x="224" y="255"/>
			<point x="41" y="172" type="qcurve"/>
			<point x="50" y="156" type="line"/>
			<point x="211" y="213"/>
			<point x="321" y="308" type="qcurve" smooth="yes"/>
			<point x="326" y="312" type="line" smooth="yes"/>
			<point x="371" y="352"/>
			<point x="404" y="394" type="qcurve"/>
			<point x="575" y="394" type="line"/>
			<point x="607" y="346"/>
			<point x="654" y="306" type="qcurve" smooth="yes"/>
			<point x="683" y="282" type="line"/>
			<point x="780" y="211"/>
			<point x="908" y="171" type="qcurve"/>
			<point x="922" y="220"/>
			<point x="962" y="229" type="qcurve"/>
			<point x="963" y="240" type="line"/>
			<point x="856" y="259"/>
			<point x="659" y="339"/>
			<point x="604" y="394" type="qcurve"/>
			<point x="926" y="394" type="line" smooth="yes"/>
			<point x="949" y="394"/>
			<point x="953" y="410" type="qcurve"/>
			<point x="932" y="429"/>
			<point x="866" y="482"/>
			<point x="866" y="482" type="qcurve"/>
		</contour>
	</outline>
	<note>
养字头
</note>
</glyph>
<glyph name="冒字头" format="2">
	<unicode hex="E00C"/>
	<advance height="1880" width="1000"/>
	<outline>
		<contour>
			<point x="625" y="536" type="line"/>
			<point x="283" y="536" type="line"/>
			<point x="291" y="506" type="line"/>
			<point x="716" y="506" type="line" smooth="yes"/>
			<point x="738" y="506"/>
			<point x="742" y="522" type="qcurve"/>
			<point x="723" y="540"/>
			<point x="666" y="588"/>
			<point x="666" y="588" type="qcurve"/>
		</contour>
		<contour>
			<point x="618" y="657" type="line"/>
			<point x="288" y="657" type="line"/>
			<point x="296" y="628" type="line"/>
			<point x="710" y="628" type="line" smooth="yes"/>
			<point x="731" y="628"/>
			<point x="735" y="644" type="qcurve"/>
			<point x="718" y="662"/>
			<point x="659" y="710"/>
			<point x="659" y="710" type="qcurve"/>
		</contour>
		<contour>
			<point x="226" y="750" type="line"/>
			<point x="779" y="750" type="line"/>
			<point x="779" y="454" type="line"/>
			<point x="789" y="454" type="line" smooth="yes"/>
			<point x="803" y="454"/>
			<point x="842" y="468"/>
			<point x="844" y="472" type="qcurve"/>
			<point x="844" y="738" type="line"/>
			<point x="875" y="744"/>
			<point x="887" y="758" type="qcurve"/>
			<point x="805" y="821" type="line"/>
			<point x="769" y="780" type="line"/>
			<point x="233" y="780" type="line"/>
			<point x="162" y="813" type="line"/>
			<point x="162" y="444" type="line"/>
			<point x="171" y="444" type="line" smooth="yes"/>
			<point x="190" y="444"/>
			<point x="226" y="461"/>
			<point x="226" y="466" type="qcurve" smooth="yes"/>
		</contour>
	</outline>
	<note>
冒字头
</note>
</glyph>
<glyph name="冬字底" format="2">
	<unicode hex="E00D"/>
	<advance height="1880" width="1000"/>
	<outline>
		<contour>
			<point x="374" y="284" type="line"/>
			<point x="447" y="258"/>
			<point x="573" y="185"/>
			<point x="604" y="156" type="qcurve"/>
			<point x="631" y="148"/>
			<point x="656" y="183"/>
			<point x="616" y="239"/>
			<point x="498" y="288"/>
			<point x="379" y="299" type="qcurve"/>
		</contour>
		<contour>
			<point x="233" y="107" type="line"/>
			<point x="381" y="74"/>
			<point x="634" y="-28"/>
			<point x="696" y="-74" type="qcurve"/>
			<point x="731" y="-82"/>
			<point x="749" y="-37"/>
			<point x="660" y="41"/>
			<point x="444" y="106"/>
			<point x="236" y="123" type="qcurve"/>
		</contour>
	</outline>
	<note>
冬字底
</note>
</glyph>
<glyph name="化字边" format="2">
	<unicode hex="E011"/>
	<advance height="1880" width="1000"/>
	<outline>
		<contour>
			<point x="723" y="520"/>
			<point x="558" y="377" type="qcurve"/>
			<point x="558" y="782" type="line"/>
			<point x="591" y="787"/>
			<point x="594" y="810" type="qcurve"/>
			<point x="492" y="822" type="line"/>
			<point x="492" y="323" type="line"/>
			<point x="384" y="237"/>
			<point x="280" y="178" type="qcurve"/>
			<point x="290" y="165" type="line"/>
			<point x="390" y="209"/>
			<point x="492" y="273" type="qcurve"/>
			<point x="492" y="38" type="line" smooth="yes"/>
			<point x="492" y="-12"/>
			<point x="543" y="-49"/>
			<point x="613" y="-49" type="qcurve" smooth="yes"/>
			<point x="737" y="-49" type="line" smooth="yes"/>
			<point x="830" y="-49"/>
			<point x="926" y="-41"/>
			<point x="963" y="-22"/>
			<point x="963" y="-4" type="qcurve" smooth="yes"/>
			<point x="963" y="17"/>
			<point x="930" y="27" type="qcurve"/>
			<point x="927" y="175" type="line"/>
			<point x="914" y="175" type="line"/>
			<point x="888" y="49"/>
			<point x="878" y="31" type="qcurve" smooth="yes"/>
			<point x="872" y="20"/>
			<point x="854" y="17" type="qcurve"/>
			<point x="818" y="15"/>
			<point x="739" y="15" type="qcurve" smooth="yes"/>
			<point x="620" y="15" type="line" smooth="yes"/>
			<point x="583" y="15"/>
			<point x="558" y="32"/>
			<point x="558" y="54" type="qcurve" smooth="yes"/>
			<point x="558" y="317" type="line"/>
			<point x="738" y="442"/>
			<point x="866" y="592" type="qcurve"/>
			<point x="898" y="579"/>
			<point x="908" y="595" type="qcurve"/>
			<point x="821" y="662" type="line"/>
		</contour>
	</outline>
	<note>
化字边
</note>
</glyph>
<glyph name="北字旁" format="2">
	<unicode hex="E012"/>
	<advance height="1880" width="1000"/>
	<outline>
		<contour>
			<point x="820" y="582"/>
			<point x="695" y="455"/>
			<point x="634" y="408" type="qcurve"/>
			<point x="634" y="766" type="line"/>
			<point x="666" y="771"/>
			<point x="669" y="794" type="qcurve"/>
			<point x="568" y="806" type="line"/>
			<point x="568" y="40" type="line" smooth="yes"/>
			<point x="568" y="-5"/>
			<point x="612" y="-39"/>
			<point x="672" y="-39" type="qcurve" smooth="yes"/>
			<point x="773" y="-39" type="line" smooth="yes"/>
			<point x="853" y="-39"/>
			<point x="933" y="-32"/>
			<point x="965" y="-15"/>
			<point x="965" y="1" type="qcurve" smooth="yes"/>
			<point x="965" y="11"/>
			<point x="953" y="23"/>
			<point x="936" y="29" type="qcurve"/>
			<point x="932" y="176" type="line"/>
			<point x="919" y="176" type="line"/>
			<point x="896" y="56"/>
			<point x="887" y="34" type="qcurve"/>
			<point x="879" y="22"/>
			<point x="866" y="21" type="qcurve" smooth="yes"/>
			<point x="838" y="19"/>
			<point x="775" y="19" type="qcurve" smooth="yes"/>
			<point x="682" y="19" type="line" smooth="yes"/>
			<point x="652" y="19"/>
			<point x="634" y="33"/>
			<point x="634" y="53" type="qcurve" smooth="yes"/>
			<point x="634" y="385" type="line"/>
			<point x="711" y="424"/>
			<point x="864" y="528"/>
			<point x="914" y="572" type="qcurve"/>
			<point x="940" y="563"/>
			<point x="954" y="578" type="qcurve"/>
			<point x="868" y="640" type="line"/>
		</contour>
	</outline>
	<note>
北字旁
</note>
</glyph>
<glyph name="临右角" format="2">
	<unicode hex="E014"/>
	<advance height="1880" width="1000"/>
	<outline>
		<contour>
			<point x="592" y="617" type="line"/>
			<point x="629" y="585"/>
			<point x="694" y="492"/>
			<point x="702" y="453" type="qcurve"/>
			<point x="728" y="435"/>
			<point x="766" y="463"/>
			<point x="757" y="529"/>
			<point x="679" y="601"/>
			<point x="602" y="625" type="qcurve"/>
		</contour>
		<contour>
			<point x="841" y="689" type="line"/>
			<point x="555" y="689" type="line"/>
			<point x="580" y="742"/>
			<point x="599" y="790" type="qcurve"/>
			<point x="629" y="787"/>
			<point x="637" y="808" type="qcurve"/>
			<point x="538" y="841" type="line"/>
			<point x="507" y="727"/>
			<point x="408" y="507"/>
			<point x="355" y="431" type="qcurve"/>
			<point x="370" y="421" type="line"/>
			<point x="463" y="511"/>
			<point x="540" y="659" type="qcurve"/>
			<point x="943" y="659" type="line" smooth="yes"/>
			<point x="967" y="659"/>
			<point x="970" y="675" type="qcurve"/>
			<point x="950" y="695"/>
			<point x="886" y="750"/>
			<point x="886" y="750" type="qcurve"/>
		</contour>
	</outline>
	<note>
临右角
</note>
</glyph>
<glyph name="卖字头" format="2">
	<unicode hex="E015"/>
	<advance height="1880" width="1000"/>
	<outline>
		<contour>
			<point x="758" y="714" type="line"/>
			<point x="529" y="714" type="line"/>
			<point x="529" y="803" type="line"/>
			<point x="562" y="807"/>
			<point x="565" y="828" type="qcurve"/>
			<point x="462" y="839" type="line"/>
			<point x="462" y="714" type="line"/>
			<point x="119" y="714" type="line"/>
			<point x="128" y="684" type="line"/>
			<point x="462" y="684" type="line"/>
			<point x="462" y="557" type="line"/>
			<point x="61" y="557" type="line"/>
			<point x="70" y="527" type="line"/>
			<point x="826" y="527" type="line"/>
			<point x="800" y="458"/>
			<point x="762" y="386" type="qcurve"/>
			<point x="775" y="380" type="line"/>
			<point x="853" y="441"/>
			<point x="910" y="515" type="qcurve"/>
			<point x="939" y="516"/>
			<point x="949" y="525" type="qcurve"/>
			<point x="871" y="601" type="line"/>
			<point x="826" y="557" type="line"/>
			<point x="529" y="557" type="line"/>
			<point x="529" y="684" type="line"/>
			<point x="876" y="684" type="line" smooth="yes"/>
			<point x="899" y="684"/>
			<point x="903" y="700" type="qcurve"/>
			<point x="880" y="721"/>
			<point x="808" y="778"/>
			<point x="808" y="778" type="qcurve"/>
		</contour>
	</outline>
	<note>
卖字头
</note>
</glyph>
<glyph name="南字心" format="2">
	<unicode hex="E016"/>
	<advance height="1880" width="1000"/>
	<outline>
		<contour>
			<point x="322" y="485" type="line"/>
			<point x="344" y="458"/>
			<point x="379" y="381"/>
			<point x="383" y="348" type="qcurve"/>
			<point x="404" y="330"/>
			<point x="442" y="349"/>
			<point x="445" y="403"/>
			<point x="392" y="467"/>
			<point x="334" y="492" type="qcurve"/>
		</contour>
		<contour>
			<point x="628" y="329" type="line"/>
			<point x="560" y="329" type="line"/>
			<point x="613" y="383"/>
			<point x="656" y="448" type="qcurve"/>
			<point x="688" y="448"/>
			<point x="694" y="465" type="qcurve"/>
			<point x="599" y="496" type="line"/>
			<point x="560" y="383"/>
			<point x="535" y="329" type="qcurve"/>
			<point x="272" y="329" type="line"/>
			<point x="280" y="299" type="line"/>
			<point x="465" y="299" type="line"/>
			<point x="465" y="174" type="line"/>
			<point x="245" y="174" type="line"/>
			<point x="253" y="144" type="line"/>
			<point x="465" y="144" type="line"/>
			<point x="465" y="-60" type="line"/>
			<point x="475" y="-60" type="line" smooth="yes"/>
			<point x="498" y="-60"/>
			<point x="529" y="-45"/>
			<point x="529" y="-40" type="qcurve" smooth="yes"/>
			<point x="529" y="144" type="line"/>
			<point x="737" y="144" type="line" smooth="yes"/>
			<point x="759" y="144"/>
			<point x="763" y="160" type="qcurve"/>
			<point x="744" y="178"/>
			<point x="681" y="228"/>
			<point x="681" y="228" type="qcurve"/>
			<point x="637" y="174" type="line"/>
			<point x="529" y="174" type="line"/>
			<point x="529" y="299" type="line"/>
			<point x="720" y="299" type="line" smooth="yes"/>
			<point x="742" y="299"/>
			<point x="745" y="315" type="qcurve"/>
			<point x="727" y="332"/>
			<point x="670" y="377"/>
			<point x="670" y="377" type="qcurve"/>
		</contour>
	</outline>
	<note>
南字心
</note>
</glyph>
<glyph name="卢字头" format="2">
	<unicode hex="E018"/>
	<advance height="1880" width="1000"/>
	<outline>
		<contour>
			<point x="455" y="840" type="line"/>
			<point x="455" y="537" type="line"/>
			<point x="521" y="537" type="line"/>
			<point x="521" y="667" type="line"/>
			<point x="912" y="667" type="line" smooth="yes"/>
			<point x="935" y="667"/>
			<point x="939" y="683" type="qcurve"/>
			<point x="917" y="704"/>
			<point x="848" y="759"/>
			<point x="848" y="759" type="qcurve"/>
			<point x="800" y="697" type="line"/>
			<point x="521" y="697" type="line"/>
			<point x="521" y="803" type="line"/>
			<point x="554" y="807"/>
			<point x="557" y="829" type="qcurve"/>
		</contour>
	</outline>
	<note>
卢字头
</note>
</glyph>
<glyph name="卯字旁" format="2">
	<unicode hex="E01A"/>
	<advance height="1880" width="1000"/>
	<outline>
		<contour>
			<point x="389" y="658" type="line"/>
			<point x="389" y="376" type="line"/>
			<point x="388" y="325" type="line"/>
			<point x="354" y="312"/>
			<point x="195" y="253" type="qcurve"/>
			<point x="195" y="690" type="line"/>
			<point x="266" y="704"/>
			<point x="413" y="748"/>
			<point x="466" y="770" type="qcurve"/>
			<point x="503" y="758"/>
			<point x="516" y="772" type="qcurve"/>
			<point x="430" y="839" type="line"/>
			<point x="396" y="812"/>
			<point x="278" y="748"/>
			<point x="215" y="721" type="qcurve"/>
			<point x="131" y="748" type="line"/>
			<point x="131" y="263" type="line" smooth="yes"/>
			<point x="131" y="250"/>
			<point x="120" y="235"/>
			<point x="100" y="224" type="qcurve"/>
			<point x="133" y="154" type="line"/>
			<point x="144" y="160"/>
			<point x="152" y="171" type="qcurve"/>
			<point x="233" y="213"/>
			<point x="386" y="300" type="qcurve"/>
			<point x="374" y="178"/>
			<point x="248" y="-2"/>
			<point x="109" y="-63" type="qcurve"/>
			<point x="118" y="-78" type="line"/>
			<point x="309" y="-14"/>
			<point x="451" y="212"/>
			<point x="452" y="375" type="qcurve" smooth="yes"/>
			<point x="452" y="620" type="line"/>
			<point x="485" y="626"/>
			<point x="487" y="647" type="qcurve"/>
		</contour>
	</outline>
	<note>
卯字旁
</note>
</glyph>
<glyph name="印字旁" format="2">
	<unicode hex="E01B"/>
	<advance height="1880" width="1000"/>
	<outline>
		<contour>
			<point x="335" y="455" type="line"/>
			<point x="170" y="455" type="line"/>
			<point x="170" y="694" type="line"/>
			<point x="238" y="700"/>
			<point x="398" y="728"/>
			<point x="457" y="748" type="qcurve"/>
			<point x="480" y="739"/>
			<point x="493" y="749" type="qcurve"/>
			<point x="427" y="818" type="line"/>
			<point x="299" y="754"/>
			<point x="177" y="717" type="qcurve"/>
			<point x="106" y="757" type="line"/>
			<point x="106" y="187" type="line" smooth="yes"/>
			<point x="106" y="173"/>
			<point x="93" y="158"/>
			<point x="70" y="147" type="qcurve"/>
			<point x="105" y="69" type="line"/>
			<point x="115" y="73"/>
			<point x="122" y="83" type="qcurve"/>
			<point x="216" y="118"/>
			<point x="270" y="140"/>
			<point x="479" y="227" type="qcurve"/>
			<point x="475" y="242" type="line"/>
			<point x="273" y="190"/>
			<point x="170" y="167" type="qcurve"/>
			<point x="170" y="425" type="line"/>
			<point x="441" y="425" type="line" smooth="yes"/>
			<point x="464" y="425"/>
			<point x="468" y="441" type="qcurve"/>
			<point x="448" y="460"/>
			<point x="382" y="515"/>
			<point x="382" y="515" type="qcurve"/>
		</contour>
	</outline>
	<note>
印字旁
</note>
</glyph>
<glyph name="即字旁" format="2">
	<unicode hex="E01C"/>
	<advance height="1880" width="1000"/>
	<outline>
		<contour>
			<point x="308" y="300" type="line"/>
			<point x="363" y="233"/>
			<point x="400" y="161" type="qcurve"/>
			<point x="266" y="105"/>
			<point x="182" y="72" type="qcurve"/>
			<point x="182" y="377" type="line"/>
			<point x="419" y="377" type="line"/>
			<point x="419" y="316" type="line"/>
			<point x="428" y="316" type="line" smooth="yes"/>
			<point x="443" y="316"/>
			<point x="481" y="333"/>
			<point x="482" y="338" type="qcurve"/>
			<point x="482" y="726" type="line"/>
			<point x="514" y="732"/>
			<point x="525" y="745" type="qcurve"/>
			<point x="445" y="807" type="line"/>
			<point x="409" y="767" type="line"/>
			<point x="194" y="767" type="line"/>
			<point x="119" y="801" type="line"/>
			<point x="119" y="86" type="line" smooth="yes"/>
			<point x="119" y="70"/>
			<point x="110" y="56"/>
			<point x="93" y="46" type="qcurve"/>
			<point x="136" y="-35" type="line"/>
			<point x="150" y="-28"/>
			<point x="160" y="-8" type="qcurve"/>
			<point x="225" y="29"/>
			<point x="410" y="141" type="qcurve"/>
			<point x="445" y="68"/>
			<point x="449" y="10" type="qcurve"/>
			<point x="477" y="-14"/>
			<point x="516" y="24"/>
			<point x="502" y="122"/>
			<point x="411" y="248"/>
			<point x="321" y="307" type="qcurve"/>
		</contour>
		<contour>
			<point x="182" y="737" type="line"/>
			<point x="419" y="737" type="line"/>
			<point x="419" y="587" type="line"/>
			<point x="182" y="587" type="line"/>
			<point x="182" y="708" type="line"/>
		</contour>
		<contour>
			<point x="182" y="557" type="line"/>
			<point x="419" y="557" type="line"/>
			<point x="419" y="407" type="line"/>
			<point x="182" y="407" type="line"/>
		</contour>
	</outline>
	<note>
即字旁
</note>
</glyph>
<glyph name="负字头" format="2">
	<unicode hex="E020"/>
	<advance height="1880" width="1000"/>
	<outline>
		<contour>
			<point x="573" y="579"/>
			<point x="635" y="648"/>
			<point x="681" y="702" type="qcurve"/>
			<point x="711" y="704"/>
			<point x="721" y="712" type="qcurve"/>
			<point x="642" y="784" type="line"/>
			<point x="597" y="740" type="line"/>
			<point x="347" y="740" type="line"/>
			<point x="361" y="761"/>
			<point x="387" y="806" type="qcurve"/>
			<point x="423" y="803"/>
			<point x="426" y="819" type="qcurve"/>
			<point x="316" y="848" type="line"/>
			<point x="277" y="747"/>
			<point x="131" y="532"/>
			<point x="55" y="465" type="qcurve"/>
			<point x="66" y="453" type="line"/>
			<point x="137" y="499"/>
			<point x="206" y="568" type="qcurve" smooth="yes"/>
			<point x="217" y="579" type="line" smooth="yes"/>
			<point x="274" y="639"/>
			<point x="327" y="711" type="qcurve"/>
			<point x="596" y="711" type="line"/>
			<point x="548" y="603"/>
			<point x="515" y="551" type="qcurve"/>
			<point x="540" y="551" type="line"/>
		</contour>
	</outline>
	<note>
负字头
</note>
</glyph>
<glyph name="卸字旁" format="2">
	<unicode hex="E021"/>
	<advance height="1880" width="1000"/>
	<outline>
		<contour>
			<point x="74" y="-47" type="line"/>
			<point x="91" y="-42"/>
			<point x="99" y="-24" type="qcurve"/>
			<point x="355" y="44"/>
			<point x="591" y="118" type="qcurve"/>
			<point x="588" y="135" type="line"/>
			<point x="365" y="95" type="line"/>
			<point x="365" y="297" type="line"/>
			<point x="548" y="297" type="line" smooth="yes"/>
			<point x="570" y="297"/>
			<point x="575" y="312" type="qcurve"/>
			<point x="555" y="331"/>
			<point x="491" y="384"/>
			<point x="491" y="384" type="qcurve"/>
			<point x="445" y="326" type="line"/>
			<point x="365" y="326" type="line"/>
			<point x="365" y="477" type="line"/>
			<point x="570" y="477" type="line" smooth="yes"/>
			<point x="593" y="477"/>
			<point x="596" y="493" type="qcurve"/>
			<point x="575" y="512"/>
			<point x="510" y="567"/>
			<point x="510" y="567" type="qcurve"/>
			<point x="463" y="506" type="line"/>
			<point x="365" y="506" type="line"/>
			<point x="365" y="660" type="line"/>
			<point x="549" y="660" type="line" smooth="yes"/>
			<point x="572" y="660"/>
			<point x="575" y="676" type="qcurve"/>
			<point x="555" y="695"/>
			<point x="491" y="748"/>
			<point x="491" y="748" type="qcurve"/>
			<point x="445" y="690" type="line"/>
			<point x="221" y="690" type="line"/>
			<point x="247" y="732"/>
			<point x="271" y="783" type="qcurve"/>
			<point x="301" y="780"/>
			<point x="309" y="801" type="qcurve"/>
			<point x="205" y="837" type="line"/>
			<point x="153" y="658"/>
			<point x="70" y="542" type="qcurve"/>
			<point x="84" y="532" type="line"/>
			<point x="149" y="584"/>
			<point x="201" y="660" type="qcurve"/>
			<point x="301" y="660" type="line"/>
			<point x="301" y="506" type="line"/>
			<point x="45" y="506" type="line"/>
			<point x="53" y="477" type="line"/>
			<point x="301" y="477" type="line"/>
			<point x="301" y="83" type="line"/>
			<point x="184" y="63" type="line"/>
			<point x="184" y="354" type="line"/>
			<point x="217" y="360"/>
			<point x="220" y="380" type="qcurve"/>
			<point x="123" y="389" type="line"/>
			<point x="123" y="53" type="line"/>
			<point x="35" y="41" type="line"/>
		</contour>
	</outline>
	<note>
卸字旁
</note>
</glyph>
<glyph name="丝左角" format="2">
	<unicode hex="E023"/>
	<advance height="1880" width="1000"/>
	<outline>
		<contour>
			<point x="283" y="832" type="line"/>
			<point x="256" y="756"/>
			<point x="139" y="543"/>
			<point x="90" y="489" type="qcurve" smooth="yes"/>
			<point x="86" y="485"/>
			<point x="63" y="479"/>
			<point x="63" y="479" type="qcurve"/>
			<point x="108" y="389" type="line"/>
			<point x="122" y="396"/>
			<point x="130" y="414" type="qcurve"/>
			<point x="189" y="426"/>
			<point x="298" y="453" type="qcurve"/>
			<point x="194" y="300"/>
			<point x="92" y="205" type="qcurve" smooth="yes"/>
			<point x="87" y="201"/>
			<point x="61" y="193"/>
			<point x="61" y="193" type="qcurve"/>
			<point x="105" y="103" type="line"/>
			<point x="116" y="107"/>
			<point x="126" y="125" type="qcurve"/>
			<point x="208" y="142"/>
			<point x="547" y="227"/>
			<point x="448" y="203" type="qcurve"/>
			<point x="446" y="219" type="line"/>
			<point x="202" y="199"/>
			<point x="133" y="195" type="qcurve"/>
			<point x="230" y="282"/>
			<point x="417" y="499"/>
			<point x="471" y="584" type="qcurve"/>
			<point x="486" y="580"/>
			<point x="507" y="589"/>
			<point x="511" y="597" type="qcurve"/>
			<point x="417" y="653" type="line"/>
			<point x="382" y="578"/>
			<point x="316" y="480" type="qcurve"/>
			<point x="245" y="478"/>
			<point x="125" y="478" type="qcurve"/>
			<point x="184" y="537"/>
			<point x="307" y="703"/>
			<point x="345" y="771" type="qcurve"/>
			<point x="372" y="768"/>
			<point x="382" y="786" type="qcurve"/>
		</contour>
	</outline>
	<note>
丝左角
</note>
</glyph>
<glyph name="反字框" format="2">
	<unicode hex="E024"/>
	<advance height="1880" width="1000"/>
	<outline>
		<contour>
			<point x="187" y="504" type="line" smooth="yes"/>
			<point x="187" y="328"/>
			<point x="126" y="46"/>
			<point x="37" y="-70" type="qcurve"/>
			<point x="51" y="-81" type="line"/>
			<point x="134" y="-6"/>
			<point x="223" y="188"/>
			<point x="252" y="381"/>
			<point x="253" y="488" type="qcurve" smooth="yes"/>
			<point x="253" y="518" type="line"/>
			<point x="253" y="700" type="line"/>
			<point x="390" y="701"/>
			<point x="734" y="732"/>
			<point x="876" y="759" type="qcurve"/>
			<point x="897" y="745"/>
			<point x="912" y="755" type="qcurve"/>
			<point x="851" y="832" type="line"/>
			<point x="709" y="794"/>
			<point x="384" y="736"/>
			<point x="245" y="721" type="qcurve"/>
			<point x="187" y="745" type="line"/>
			<point x="187" y="722" type="line"/>
		</contour>
	</outline>
	<note>
反字框
</note>
</glyph>
<glyph name="变字头" format="2">
	<unicode hex="E025"/>
	<advance height="1880" width="1000"/>
	<outline>
		<contour>
			<point x="407" y="839" type="line"/>
			<point x="435" y="813"/>
			<point x="492" y="739"/>
			<point x="503" y="709" type="qcurve"/>
			<point x="529" y="694"/>
			<point x="566" y="719"/>
			<point x="559" y="775"/>
			<point x="487" y="831"/>
			<point x="417" y="847" type="qcurve"/>
		</contour>
		<contour>
			<point x="239" y="618" type="line"/>
			<point x="201" y="542"/>
			<point x="94" y="409"/>
			<point x="41" y="369" type="qcurve"/>
			<point x="54" y="355" type="line"/>
			<point x="118" y="386"/>
			<point x="241" y="490"/>
			<point x="288" y="556" type="qcurve"/>
			<point x="318" y="551"/>
			<point x="328" y="567" type="qcurve"/>
		</contour>
		<contour>
			<point x="683" y="592" type="line"/>
			<point x="741" y="554"/>
			<point x="852" y="442"/>
			<point x="872" y="394" type="qcurve"/>
			<point x="903" y="378"/>
			<point x="935" y="414"/>
			<point x="907" y="493"/>
			<point x="794" y="575"/>
			<point x="693" y="602" type="qcurve"/>
		</contour>
		<contour>
			<point x="806" y="701" type="line"/>
			<point x="54" y="701" type="line"/>
			<point x="63" y="671" type="line"/>
			<point x="360" y="671" type="line"/>
			<point x="360" y="355" type="line"/>
			<point x="370" y="355" type="line" smooth="yes"/>
			<point x="392" y="355"/>
			<point x="424" y="369"/>
			<point x="424" y="373" type="qcurve" smooth="yes"/>
			<point x="424" y="671" type="line"/>
			<point x="577" y="671" type="line"/>
			<point x="577" y="357" type="line"/>
			<point x="587" y="357" type="line" smooth="yes"/>
			<point x="609" y="357"/>
			<point x="641" y="372"/>
			<point x="641" y="376" type="qcurve" smooth="yes"/>
			<point x="641" y="671" type="line"/>
			<point x="920" y="671" type="line" smooth="yes"/>
			<point x="943" y="671"/>
			<point x="946" y="687" type="qcurve"/>
			<point x="924" y="707"/>
			<point x="856" y="762"/>
			<point x="856" y="762" type="qcurve"/>
		</contour>
	</outline>
	<note>
变字头
</note>
</glyph>
<glyph name="后字框" format="2">
	<unicode hex="E027"/>
	<advance height="1880" width="1000"/>
	<outline>
		<contour>
			<point x="568" y="768"/>
			<point x="255" y="717" type="qcurve"/>
			<point x="168" y="746" type="line"/>
			<point x="168" y="461" type="line" smooth="yes"/>
			<point x="168" y="296"/>
			<point x="116" y="44"/>
			<point x="36" y="-59" type="qcurve"/>
			<point x="51" y="-71" type="line"/>
			<point x="129" y="-3"/>
			<point x="210" y="175"/>
			<point x="234" y="355"/>
			<point x="234" y="461" type="qcurve" smooth="yes"/>
			<point x="234" y="512" type="line"/>
			<point x="933" y="512" type="line" smooth="yes"/>
			<point x="956" y="512"/>
			<point x="960" y="528" type="qcurve"/>
			<point x="938" y="549"/>
			<point x="866" y="604"/>
			<point x="866" y="604" type="qcurve"/>
			<point x="816" y="542" type="line"/>
			<point x="234" y="542" type="line"/>
			<point x="234" y="693" type="line"/>
			<point x="374" y="701"/>
			<point x="676" y="744"/>
			<point x="798" y="770" type="qcurve"/>
			<point x="837" y="755"/>
			<point x="850" y="768" type="qcurve"/>
			<point x="775" y="839" type="line"/>
		</contour>
	</outline>
	<note>
后字框
</note>
</glyph>
<glyph name="向字框" format="2">
	<unicode hex="E028"/>
	<advance height="1880" width="1000"/>
	<outline>
		<contour>
			<point x="102" y="-77" type="line"/>
			<point x="113" y="-77" type="line" smooth="yes"/>
			<point x="133" y="-77"/>
			<point x="166" y="-59"/>
			<point x="166" y="-52" type="qcurve" smooth="yes"/>
			<point x="166" y="626" type="line"/>
			<point x="835" y="626" type="line"/>
			<point x="835" y="29" type="line" smooth="yes"/>
			<point x="835" y="15"/>
			<point x="824" y="5"/>
			<point x="809" y="5" type="qcurve" smooth="yes"/>
			<point x="793" y="5"/>
			<point x="666" y="14"/>
			<point x="666" y="14" type="qcurve"/>
			<point x="666" y="-2" type="line"/>
			<point x="736" y="-10"/>
			<point x="763" y="-28" type="qcurve" smooth="yes"/>
			<point x="783" y="-43"/>
			<point x="788" y="-77" type="qcurve"/>
			<point x="858" y="-70"/>
			<point x="900" y="-25"/>
			<point x="900" y="21" type="qcurve" smooth="yes"/>
			<point x="900" y="613" type="line"/>
			<point x="929" y="617"/>
			<point x="944" y="632" type="qcurve"/>
			<point x="860" y="696" type="line"/>
			<point x="825" y="654" type="line"/>
			<point x="415" y="654" type="line"/>
			<point x="472" y="716"/>
			<point x="520" y="789" type="qcurve"/>
			<point x="549" y="788"/>
			<point x="558" y="808" type="qcurve"/>
			<point x="448" y="837" type="line"/>
			<point x="420" y="742"/>
			<point x="379" y="654" type="qcurve"/>
			<point x="173" y="654" type="line"/>
			<point x="102" y="688" type="line"/>
			<point x="102" y="654" type="line"/>
		</contour>
	</outline>
	<note>
向字框
</note>
</glyph>
<glyph name="告字头" format="2">
	<unicode hex="E029"/>
	<advance height="1880" width="1000"/>
	<outline>
		<contour>
			<point x="230" y="735"/>
			<point x="158" y="550"/>
			<point x="117" y="490" type="qcurve"/>
			<point x="132" y="481" type="line"/>
			<point x="196" y="539"/>
			<point x="252" y="638" type="qcurve"/>
			<point x="467" y="638" type="line"/>
			<point x="467" y="445" type="line"/>
			<point x="44" y="445" type="line"/>
			<point x="53" y="416" type="line"/>
			<point x="930" y="416" type="line" smooth="yes"/>
			<point x="953" y="416"/>
			<point x="957" y="432" type="qcurve"/>
			<point x="935" y="452"/>
			<point x="865" y="509"/>
			<point x="865" y="509" type="qcurve"/>
			<point x="814" y="445" type="line"/>
			<point x="533" y="445" type="line"/>
			<point x="533" y="638" type="line"/>
			<point x="851" y="638" type="line" smooth="yes"/>
			<point x="874" y="638"/>
			<point x="877" y="654" type="qcurve"/>
			<point x="855" y="674"/>
			<point x="785" y="730"/>
			<point x="785" y="730" type="qcurve"/>
			<point x="735" y="667" type="line"/>
			<point x="533" y="667" type="line"/>
			<point x="533" y="800" type="line"/>
			<point x="567" y="805"/>
			<point x="570" y="828" type="qcurve"/>
			<point x="467" y="838" type="line"/>
			<point x="467" y="667" type="line"/>
			<point x="268" y="667" type="line"/>
			<point x="296" y="724"/>
			<point x="315" y="779" type="qcurve"/>
			<point x="346" y="779"/>
			<point x="351" y="800" type="qcurve"/>
			<point x="249" y="828" type="line"/>
		</contour>
	</outline>
	<note>
告字头
</note>
</glyph>
<glyph name="周字框" format="2">
	<unicode hex="E02A"/>
	<advance height="1880" width="1000"/>
	<outline>
		<contour>
			<point x="160" y="469" type="line" smooth="yes"/>
			<point x="160" y="296"/>
			<point x="112" y="37"/>
			<point x="38" y="-66" type="qcurve"/>
			<point x="53" y="-77" type="line"/>
			<point x="159" y="23"/>
			<point x="224" y="296"/>
			<point x="224" y="470" type="qcurve" smooth="yes"/>
			<point x="224" y="733" type="line"/>
			<point x="798" y="733" type="line"/>
			<point x="798" y="29" type="line" smooth="yes"/>
			<point x="798" y="16"/>
			<point x="788" y="6"/>
			<point x="773" y="6" type="qcurve" smooth="yes"/>
			<point x="760" y="6"/>
			<point x="647" y="14"/>
			<point x="647" y="14" type="qcurve"/>
			<point x="647" y="-2" type="line"/>
			<point x="715" y="-11"/>
			<point x="735" y="-27" type="qcurve" smooth="yes"/>
			<point x="752" y="-40"/>
			<point x="757" y="-76" type="qcurve"/>
			<point x="823" y="-70"/>
			<point x="863" y="-24"/>
			<point x="863" y="21" type="qcurve" smooth="yes"/>
			<point x="863" y="716" type="line"/>
			<point x="898" y="722"/>
			<point x="915" y="739" type="qcurve"/>
			<point x="822" y="809" type="line"/>
			<point x="786" y="762" type="line"/>
			<point x="236" y="762" type="line"/>
			<point x="160" y="796" type="line"/>
			<point x="160" y="762" type="line"/>
		</contour>
	</outline>
	<note>
周字框
</note>
</glyph>
<glyph name="丧字头" format="2">
	<unicode hex="E02C"/>
	<advance height="1880" width="1000"/>
	<outline>
		<contour>
			<point x="453" y="351" type="line"/>
			<point x="475" y="351" type="line"/>
			<point x="930" y="351" type="line" smooth="yes"/>
			<point x="952" y="351"/>
			<point x="956" y="367" type="qcurve"/>
			<point x="935" y="386"/>
			<point x="868" y="440"/>
			<point x="868" y="440" type="qcurve"/>
			<point x="820" y="381" type="line"/>
			<point x="529" y="381" type="line"/>
			<point x="529" y="656" type="line"/>
			<point x="904" y="656" type="line" smooth="yes"/>
			<point x="927" y="656"/>
			<point x="930" y="672" type="qcurve"/>
			<point x="909" y="692"/>
			<point x="839" y="746"/>
			<point x="839" y="746" type="qcurve"/>
			<point x="789" y="686" type="line"/>
			<point x="529" y="686" type="line"/>
			<point x="529" y="801" type="line"/>
			<point x="561" y="806"/>
			<point x="566" y="828" type="qcurve"/>
			<point x="464" y="839" type="line"/>
			<point x="464" y="686" type="line"/>
			<point x="84" y="686" type="line"/>
			<point x="93" y="656" type="line"/>
			<point x="464" y="656" type="line"/>
			<point x="464" y="381" type="line"/>
			<point x="42" y="381" type="line"/>
			<point x="51" y="351" type="line"/>
			<point x="223" y="351" type="line"/>
			<point x="287" y="351" type="line"/>
		</contour>
		<contour>
			<point x="211" y="601" type="line"/>
			<point x="239" y="565"/>
			<point x="289" y="473"/>
			<point x="297" y="436" type="qcurve"/>
			<point x="319" y="418"/>
			<point x="356" y="440"/>
			<point x="353" y="501"/>
			<point x="289" y="576"/>
			<point x="223" y="608" type="qcurve"/>
		</contour>
		<contour>
			<point x="718" y="616" type="line"/>
			<point x="667" y="495"/>
			<point x="605" y="419" type="qcurve"/>
			<point x="619" y="408" type="line"/>
			<point x="699" y="459"/>
			<point x="771" y="556" type="qcurve"/>
			<point x="799" y="552"/>
			<point x="810" y="571" type="qcurve"/>
		</contour>
	</outline>
	<note>
丧字头
</note>
</glyph>
<glyph name="囱字框" format="2">
	<unicode hex="E02D"/>
	<advance height="1880" width="1000"/>
	<outline>
		<contour>
			<point x="183" y="665" type="line"/>
			<point x="814" y="665" type="line"/>
			<point x="814" y="37" type="line"/>
			<point x="183" y="37" type="line"/>
		</contour>
		<contour>
			<point x="120" y="-77" type="line"/>
			<point x="130" y="-77" type="line" smooth="yes"/>
			<point x="152" y="-77"/>
			<point x="183" y="-61"/>
			<point x="183" y="-56" type="qcurve" smooth="yes"/>
			<point x="183" y="8" type="line"/>
			<point x="814" y="8" type="line"/>
			<point x="814" y="-61" type="line"/>
			<point x="823" y="-61" type="line" smooth="yes"/>
			<point x="844" y="-61"/>
			<point x="879" y="-44"/>
			<point x="879" y="-39" type="qcurve" smooth="yes"/>
			<point x="879" y="658" type="line"/>
			<point x="909" y="662"/>
			<point x="921" y="676" type="qcurve"/>
			<point x="844" y="737" type="line"/>
			<point x="809" y="694" type="line"/>
			<point x="425" y="694" type="line"/>
			<point x="471" y="757"/>
			<point x="501" y="803" type="qcurve"/>
			<point x="533" y="803"/>
			<point x="539" y="823" type="qcurve"/>
			<point x="434" y="848" type="line"/>
			<point x="416" y="779"/>
			<point x="387" y="694" type="qcurve"/>
			<point x="195" y="694" type="line"/>
			<point x="120" y="726" type="line"/>
		</contour>
	</outline>
	<note>
囱字框
</note>
</glyph>
<glyph name="在字框" format="2">
	<unicode hex="E02E"/>
	<advance height="1880" width="1000"/>
	<outline>
		<contour>
			<point x="802" y="646" type="line"/>
			<point x="425" y="646" type="line"/>
			<point x="457" y="711"/>
			<point x="484" y="791" type="qcurve"/>
			<point x="503" y="791"/>
			<point x="521" y="799"/>
			<point x="525" y="809" type="qcurve"/>
			<point x="416" y="839" type="line"/>
			<point x="390" y="737"/>
			<point x="349" y="646" type="qcurve"/>
			<point x="64" y="646" type="line"/>
			<point x="73" y="616" type="line"/>
			<point x="335" y="616" type="line"/>
			<point x="281" y="502"/>
			<point x="130" y="304"/>
			<point x="35" y="233" type="qcurve"/>
			<point x="46" y="221" type="line"/>
			<point x="138" y="275"/>
			<point x="220" y="355" type="qcurve"/>
			<point x="220" y="-78" type="line"/>
			<point x="232" y="-78" type="line" smooth="yes"/>
			<point x="249" y="-78"/>
			<point x="284" y="-61"/>
			<point x="285" y="-56" type="qcurve"/>
			<point x="285" y="396" type="line"/>
			<point x="310" y="400"/>
			<point x="316" y="414" type="qcurve"/>
			<point x="284" y="426" type="line"/>
			<point x="357" y="514"/>
			<point x="409" y="616" type="qcurve"/>
			<point x="914" y="616" type="line" smooth="yes"/>
			<point x="938" y="616"/>
			<point x="941" y="632" type="qcurve"/>
			<point x="920" y="652"/>
			<point x="851" y="707"/>
			<point x="851" y="707" type="qcurve"/>
		</contour>
	</outline>
	<note>
在字框
</note>
</glyph>
<glyph name="眉字框" format="2">
	<unicode hex="E031"/>
	<advance height="1880" width="1000"/>
	<outline>
		<contour>
			<point x="173" y="508" type="line" smooth="yes"/>
			<point x="173" y="328"/>
			<point x="121" y="53"/>
			<point x="41" y="-59" type="qcurve"/>
			<point x="56" y="-70" type="line"/>
			<point x="168" y="39"/>
			<point x="239" y="329"/>
			<point x="239" y="509" type="qcurve" smooth="yes"/>
			<point x="239" y="554" type="line"/>
			<point x="792" y="554" type="line"/>
			<point x="792" y="511" type="line"/>
			<point x="802" y="511" type="line" smooth="yes"/>
			<point x="817" y="511"/>
			<point x="856" y="527"/>
			<point x="857" y="532" type="qcurve"/>
			<point x="857" y="735" type="line"/>
			<point x="884" y="740"/>
			<point x="895" y="753" type="qcurve"/>
			<point x="818" y="811" type="line"/>
			<point x="783" y="773" type="line"/>
			<point x="251" y="773" type="line"/>
			<point x="173" y="806" type="line"/>
			<point x="173" y="773" type="line"/>
		</contour>
		<contour>
			<point x="239" y="745" type="line"/>
			<point x="486" y="745" type="line"/>
			<point x="486" y="582" type="line"/>
			<point x="239" y="582" type="line"/>
		</contour>
		<contour>
			<point x="549" y="745" type="line"/>
			<point x="792" y="745" type="line"/>
			<point x="792" y="582" type="line"/>
			<point x="549" y="582" type="line"/>
		</contour>
	</outline>
	<note>
眉字框
</note>
</glyph>
<glyph name="壳字头" format="2">
	<unicode hex="E032"/>
	<advance height="1880" width="1000"/>
	<outline>
		<contour>
			<point x="142" y="485" type="line"/>
			<point x="145" y="443"/>
			<point x="102" y="370"/>
			<point x="72" y="355" type="qcurve" smooth="yes"/>
			<point x="55" y="346"/>
			<point x="39" y="319"/>
			<point x="46" y="305" type="qcurve" smooth="yes"/>
			<point x="53" y="288"/>
			<point x="95" y="285"/>
			<point x="115" y="298" type="qcurve" smooth="yes"/>
			<point x="137" y="311"/>
			<point x="169" y="369"/>
			<point x="170" y="409" type="qcurve"/>
			<point x="843" y="409" type="line"/>
			<point x="827" y="356"/>
			<point x="807" y="306" type="qcurve"/>
			<point x="820" y="300" type="line"/>
			<point x="878" y="344"/>
			<point x="924" y="398" type="qcurve"/>
			<point x="952" y="398"/>
			<point x="962" y="407" type="qcurve"/>
			<point x="884" y="482" type="line"/>
			<point x="841" y="439" type="line"/>
			<point x="169" y="439" type="line"/>
			<point x="166" y="463"/>
			<point x="159" y="486" type="qcurve"/>
		</contour>
		<contour>
			<point x="783" y="712" type="line"/>
			<point x="533" y="712" type="line"/>
			<point x="533" y="801" type="line"/>
			<point x="567" y="805"/>
			<point x="571" y="828" type="qcurve"/>
			<point x="465" y="839" type="line"/>
			<point x="465" y="712" type="line"/>
			<point x="94" y="712" type="line"/>
			<point x="102" y="682" type="line"/>
			<point x="465" y="682" type="line"/>
			<point x="465" y="563" type="line"/>
			<point x="196" y="563" type="line"/>
			<point x="204" y="533" type="line"/>
			<point x="814" y="533" type="line" smooth="yes"/>
			<point x="835" y="533"/>
			<point x="840" y="549" type="qcurve"/>
			<point x="819" y="569"/>
			<point x="752" y="623"/>
			<point x="752" y="623" type="qcurve"/>
			<point x="704" y="563" type="line"/>
			<point x="533" y="563" type="line"/>
			<point x="533" y="682" type="line"/>
			<point x="895" y="682" type="line" smooth="yes"/>
			<point x="919" y="682"/>
			<point x="922" y="698" type="qcurve"/>
			<point x="901" y="718"/>
			<point x="832" y="773"/>
			<point x="832" y="773" type="qcurve"/>
		</contour>
	</outline>
	<note>
壳字头
</note>
</glyph>
<glyph name="夜下角" format="2">
	<unicode hex="E034"/>
	<advance height="1880" width="1000"/>
	<outline>
		<contour>
			<point x="532" y="437" type="line"/>
			<point x="562" y="409"/>
			<point x="618" y="331"/>
			<point x="626" y="299" type="qcurve"/>
			<point x="648" y="282"/>
			<point x="682" y="303"/>
			<point x="676" y="358"/>
			<point x="610" y="421"/>
			<point x="544" y="445" type="qcurve"/>
		</contour>
		<contour>
			<point x="507" y="652" type="line"/>
			<point x="479" y="533"/>
			<point x="383" y="308"/>
			<point x="328" y="230" type="qcurve"/>
			<point x="343" y="220" type="line"/>
			<point x="404" y="278"/>
			<point x="460" y="367" type="qcurve"/>
			<point x="513" y="228"/>
			<point x="592" y="137" type="qcurve"/>
			<point x="466" y="5"/>
			<point x="282" y="-69" type="qcurve"/>
			<point x="292" y="-84" type="line"/>
			<point x="494" y="-20"/>
			<point x="626" y="99" type="qcurve"/>
			<point x="738" y="-13"/>
			<point x="917" y="-75" type="qcurve"/>
			<point x="928" y="-27"/>
			<point x="978" y="-14" type="qcurve"/>
			<point x="980" y="-4" type="line"/>
			<point x="794" y="40"/>
			<point x="667" y="139" type="qcurve"/>
			<point x="795" y="274"/>
			<point x="862" y="479" type="qcurve"/>
			<point x="893" y="480"/>
			<point x="904" y="491" type="qcurve"/>
			<point x="831" y="560" type="line"/>
			<point x="787" y="518" type="line"/>
			<point x="538" y="518" type="line"/>
			<point x="558" y="566"/>
			<point x="570" y="602" type="qcurve"/>
			<point x="601" y="602"/>
			<point x="608" y="621" type="qcurve"/>
		</contour>
		<contour>
			<point x="530" y="264"/>
			<point x="473" y="390" type="qcurve"/>
			<point x="501" y="435"/>
			<point x="524" y="488" type="qcurve"/>
			<point x="790" y="488" type="line"/>
			<point x="737" y="308"/>
			<point x="626" y="175" type="qcurve"/>
		</contour>
	</outline>
	<note>
夜下角
</note>
</glyph>
<glyph name="姊字边" format="2">
	<unicode hex="E036"/>
	<advance height="1880" width="1000"/>
	<outline>
		<contour>
			<point x="631" y="838" type="line"/>
			<point x="631" y="663" type="line"/>
			<point x="580" y="648"/>
			<point x="505" y="632" type="qcurve"/>
			<point x="445" y="669" type="line"/>
			<point x="433" y="535"/>
			<point x="408" y="393" type="qcurve"/>
			<point x="382" y="384"/>
			<point x="368" y="374" type="qcurve"/>
			<point x="439" y="321" type="line"/>
			<point x="469" y="353" type="line"/>
			<point x="596" y="353" type="line"/>
			<point x="553" y="247"/>
			<point x="408" y="58"/>
			<point x="314" y="-10" type="qcurve"/>
			<point x="326" y="-26" type="line"/>
			<point x="526" y="91"/>
			<point x="631" y="276" type="qcurve"/>
			<point x="631" y="-79" type="line"/>
			<point x="644" y="-79" type="line" smooth="yes"/>
			<point x="661" y="-79"/>
			<point x="693" y="-63"/>
			<point x="693" y="-56" type="qcurve" smooth="yes"/>
			<point x="693" y="353" type="line"/>
			<point x="862" y="353" type="line"/>
			<point x="856" y="154"/>
			<point x="832" y="131" type="qcurve" smooth="yes"/>
			<point x="824" y="124"/>
			<point x="805" y="124" type="qcurve" smooth="yes"/>
			<point x="772" y="124"/>
			<point x="722" y="128" type="qcurve"/>
			<point x="721" y="112" type="line"/>
			<point x="766" y="103"/>
			<point x="778" y="91" type="qcurve"/>
			<point x="791" y="82"/>
			<point x="791" y="48" type="qcurve"/>
			<point x="842" y="48"/>
			<point x="872" y="74" type="qcurve" smooth="yes"/>
			<point x="897" y="95"/>
			<point x="919" y="216"/>
			<point x="924" y="347" type="qcurve"/>
			<point x="952" y="350"/>
			<point x="962" y="361" type="qcurve"/>
			<point x="889" y="421" type="line"/>
			<point x="853" y="383" type="line"/>
			<point x="693" y="383" type="line"/>
			<point x="693" y="634" type="line"/>
			<point x="798" y="653"/>
			<point x="875" y="676" type="qcurve"/>
			<point x="909" y="662"/>
			<point x="924" y="675" type="qcurve"/>
			<point x="850" y="744" type="line"/>
			<point x="788" y="712"/>
			<point x="693" y="682" type="qcurve"/>
			<point x="693" y="799" type="line"/>
			<point x="711" y="802"/>
			<point x="727" y="815"/>
			<point x="729" y="826" type="qcurve"/>
		</contour>
		<contour>
			<point x="560" y="614"/>
			<point x="631" y="624" type="qcurve"/>
			<point x="631" y="383" type="line"/>
			<point x="466" y="383" type="line"/>
			<point x="489" y="503"/>
			<point x="501" y="610" type="qcurve"/>
		</contour>
	</outline>
	<note>
姊字边
</note>
</glyph>
<glyph name="无三" format="2">
	<unicode hex="E039"/>
	<advance height="1880" width="1000"/>
	<outline>
		<contour>
			<point x="931" y="443" type="line" smooth="yes"/>
			<point x="954" y="443"/>
			<point x="957" y="459" type="qcurve"/>
			<point x="935" y="480"/>
			<point x="864" y="537"/>
			<point x="864" y="537" type="qcurve"/>
			<point x="812" y="472" type="line"/>
			<point x="481" y="472" type="line"/>
			<point x="495" y="592"/>
			<point x="497" y="725" type="qcurve"/>
			<point x="864" y="725" type="line" smooth="yes"/>
			<point x="886" y="725"/>
			<point x="890" y="741" type="qcurve"/>
			<point x="868" y="762"/>
			<point x="798" y="818"/>
			<point x="798" y="818" type="qcurve"/>
			<point x="748" y="755" type="line"/>
			<point x="111" y="755" type="line"/>
			<point x="119" y="725" type="line"/>
			<point x="424" y="725" type="line"/>
			<point x="422" y="553"/>
			<point x="412" y="472" type="qcurve"/>
			<point x="48" y="472" type="line"/>
			<point x="57" y="443" type="line"/>
			<point x="408" y="443" type="line"/>
			<point x="384" y="283"/>
			<point x="218" y="36"/>
			<point x="37" y="-62" type="qcurve"/>
			<point x="50" y="-80" type="line"/>
			<point x="259" y="16"/>
			<point x="449" y="270"/>
			<point x="477" y="443" type="qcurve"/>
			<point x="533" y="443" type="line"/>
			<point x="598" y="443" type="line"/>
		</contour>
	</outline>
	<note>
无三
</note>
</glyph>
<glyph name="定字底" format="2">
	<unicode hex="E03A"/>
	<advance height="1880" width="1000"/>
	<outline>
		<contour>
			<point x="712" y="509" type="line"/>
			<point x="159" y="509" type="line"/>
			<point x="167" y="479" type="line"/>
			<point x="466" y="479" type="line"/>
			<point x="466" y="34" type="line"/>
			<point x="401" y="54"/>
			<point x="309" y="136"/>
			<point x="277" y="207" type="qcurve"/>
			<point x="300" y="265"/>
			<point x="315" y="337" type="qcurve"/>
			<point x="346" y="338"/>
			<point x="352" y="359" type="qcurve"/>
			<point x="249" y="381" type="line"/>
			<point x="232" y="247"/>
			<point x="129" y="9"/>
			<point x="35" y="-67" type="qcurve"/>
			<point x="46" y="-78" type="line"/>
			<point x="191" y="7"/>
			<point x="266" y="181" type="qcurve"/>
			<point x="306" y="84"/>
			<point x="421" y="-19"/>
			<point x="581" y="-58"/>
			<point x="704" y="-58" type="qcurve" smooth="yes"/>
			<point x="923" y="-58"/>
			<point x="923" y="-58" type="qcurve"/>
			<point x="925" y="-15"/>
			<point x="964" y="-5" type="qcurve"/>
			<point x="964" y="10" type="line"/>
			<point x="900" y="8"/>
			<point x="710" y="8" type="qcurve" smooth="yes"/>
			<point x="602" y="8"/>
			<point x="532" y="19" type="qcurve"/>
			<point x="532" y="265" type="line"/>
			<point x="814" y="265" type="line" smooth="yes"/>
			<point x="837" y="265"/>
			<point x="841" y="281" type="qcurve"/>
			<point x="820" y="300"/>
			<point x="753" y="353"/>
			<point x="753" y="353" type="qcurve"/>
			<point x="707" y="294" type="line"/>
			<point x="532" y="294" type="line"/>
			<point x="532" y="479" type="line"/>
			<point x="819" y="479" type="line" smooth="yes"/>
			<point x="842" y="479"/>
			<point x="846" y="495" type="qcurve"/>
			<point x="825" y="514"/>
			<point x="758" y="564"/>
			<point x="758" y="564" type="qcurve"/>
		</contour>
	</outline>
	<note>
定字底
</note>
</glyph>
<glyph name="寒字头" format="2">
	<unicode hex="E03C"/>
	<advance height="1880" width="1000"/>
	<outline>
		<contour>
			<point x="420" y="840" type="line"/>
			<point x="446" y="821"/>
			<point x="491" y="763"/>
			<point x="498" y="737" type="qcurve"/>
			<point x="522" y="722"/>
			<point x="561" y="745"/>
			<point x="557" y="796"/>
			<point x="494" y="841"/>
			<point x="430" y="848" type="qcurve"/>
		</contour>
		<contour>
			<point x="139" y="771" type="line"/>
			<point x="143" y="727"/>
			<point x="104" y="649"/>
			<point x="75" y="632" type="qcurve" smooth="yes"/>
			<point x="58" y="622"/>
			<point x="43" y="594"/>
			<point x="49" y="579" type="qcurve" smooth="yes"/>
			<point x="58" y="562"/>
			<point x="101" y="561"/>
			<point x="120" y="574" type="qcurve" smooth="yes"/>
			<point x="142" y="589"/>
			<point x="171" y="653"/>
			<point x="170" y="696" type="qcurve"/>
			<point x="849" y="696" type="line"/>
			<point x="836" y="643"/>
			<point x="820" y="598" type="qcurve"/>
			<point x="833" y="590" type="line"/>
			<point x="885" y="634"/>
			<point x="925" y="685" type="qcurve"/>
			<point x="953" y="687"/>
			<point x="962" y="694" type="qcurve"/>
			<point x="886" y="768" type="line"/>
			<point x="844" y="726" type="line"/>
			<point x="168" y="726" type="line"/>
			<point x="165" y="746"/>
			<point x="157" y="772" type="qcurve"/>
		</contour>
		<contour>
			<point x="400" y="447" type="line"/>
			<point x="400" y="541" type="line"/>
			<point x="596" y="541" type="line"/>
			<point x="596" y="447" type="line"/>
		</contour>
		<contour>
			<point x="596" y="320" type="line"/>
			<point x="400" y="319" type="line"/>
			<point x="400" y="417" type="line"/>
			<point x="596" y="417" type="line"/>
		</contour>
		<contour>
			<point x="829" y="320" type="line"/>
			<point x="659" y="320" type="line"/>
			<point x="659" y="417" type="line"/>
			<point x="824" y="417" type="line" smooth="yes"/>
			<point x="845" y="417"/>
			<point x="849" y="433" type="qcurve"/>
			<point x="832" y="449"/>
			<point x="780" y="488"/>
			<point x="780" y="488" type="qcurve"/>
			<point x="742" y="447" type="line"/>
			<point x="659" y="447" type="line"/>
			<point x="659" y="541" type="line"/>
			<point x="829" y="541" type="line" smooth="yes"/>
			<point x="850" y="541"/>
			<point x="854" y="557" type="qcurve"/>
			<point x="836" y="573"/>
			<point x="781" y="614"/>
			<point x="781" y="614" type="qcurve"/>
			<point x="742" y="570" type="line"/>
			<point x="659" y="570" type="line"/>
			<point x="659" y="636" type="line"/>
			<point x="682" y="641"/>
			<point x="684" y="658" type="qcurve"/>
			<point x="596" y="668" type="line"/>
			<point x="596" y="570" type="line"/>
			<point x="400" y="570" type="line"/>
			<point x="400" y="637" type="line"/>
			<point x="423" y="642"/>
			<point x="425" y="659" type="qcurve"/>
			<point x="337" y="668" type="line"/>
			<point x="337" y="570" type="line"/>
			<point x="146" y="570" type="line"/>
			<point x="154" y="541" type="line"/>
			<point x="337" y="541" type="line"/>
			<point x="337" y="447" type="line"/>
			<point x="166" y="447" type="line"/>
			<point x="174" y="417" type="line"/>
			<point x="337" y="417" type="line"/>
			<point x="337" y="319" type="line"/>
			<point x="54" y="320" type="line"/>
			<point x="63" y="291" type="line"/>
			<point x="304" y="291" type="line"/>
			<point x="263" y="222"/>
			<point x="115" y="88"/>
			<point x="31" y="42" type="qcurve"/>
			<point x="40" y="27" type="line"/>
			<point x="145" y="72"/>
			<point x="328" y="209"/>
			<point x="385" y="291" type="qcurve"/>
			<point x="633" y="291" type="line"/>
			<point x="677" y="217"/>
			<point x="831" y="94"/>
			<point x="921" y="55" type="qcurve"/>
			<point x="933" y="99"/>
			<point x="973" y="107" type="qcurve"/>
			<point x="974" y="118" type="line"/>
			<point x="885" y="142"/>
			<point x="713" y="234"/>
			<point x="662" y="291" type="qcurve"/>
			<point x="925" y="291" type="line" smooth="yes"/>
			<point x="947" y="291"/>
			<point x="950" y="307" type="qcurve"/>
			<point x="931" y="324"/>
			<point x="871" y="367"/>
			<point x="871" y="367" type="qcurve"/>
		</contour>
	</outline>
	<note>
寒字头
</note>
</glyph>
<glyph name="尚字头" format="2">
	<unicode hex="E03E"/>
	<advance height="1880" width="1000"/>
	<outline>
		<contour>
			<point x="151" y="799" type="line"/>
			<point x="196" y="760"/>
			<point x="270" y="648"/>
			<point x="278" y="600" type="qcurve"/>
			<point x="308" y="581"/>
			<point x="347" y="613"/>
			<point x="335" y="690"/>
			<point x="247" y="776"/>
			<point x="162" y="807" type="qcurve"/>
		</contour>
		<contour>
			<point x="688" y="680"/>
			<point x="621" y="591" type="qcurve"/>
			<point x="635" y="580" type="line"/>
			<point x="728" y="648"/>
			<point x="811" y="754" type="qcurve"/>
			<point x="839" y="749"/>
			<point x="850" y="767" type="qcurve"/>
			<point x="750" y="816" type="line"/>
		</contour>
		<contour>
			<point x="528" y="804" type="line"/>
			<point x="561" y="808"/>
			<point x="564" y="830" type="qcurve"/>
			<point x="462" y="841" type="line"/>
			<point x="462" y="558" type="line"/>
			<point x="528" y="558" type="line"/>
		</contour>
	</outline>
	<note>
尚字头
</note>
</glyph>
<glyph name="尧字头" format="2">
	<unicode hex="E03F"/>
	<advance height="1880" width="1000"/>
	<outline>
		<contour>
			<point x="744" y="730" type="line"/>
			<point x="425" y="681" type="line"/>
			<point x="398" y="742"/>
			<point x="392" y="809" type="qcurve"/>
			<point x="419" y="814"/>
			<point x="421" y="834" type="qcurve"/>
			<point x="320" y="843" type="line"/>
			<point x="326" y="746"/>
			<point x="358" y="671" type="qcurve"/>
			<point x="69" y="626" type="line"/>
			<point x="82" y="599" type="line"/>
			<point x="370" y="643" type="line"/>
			<point x="411" y="562"/>
			<point x="486" y="502" type="qcurve"/>
			<point x="288" y="424"/>
			<point x="69" y="383" type="qcurve"/>
			<point x="74" y="365" type="line"/>
			<point x="315" y="390"/>
			<point x="537" y="467" type="qcurve"/>
			<point x="646" y="402"/>
			<point x="811" y="372" type="qcurve" smooth="yes"/>
			<point x="872" y="360"/>
			<point x="943" y="366"/>
			<point x="949" y="390" type="qcurve" smooth="yes"/>
			<point x="952" y="401"/>
			<point x="939" y="416"/>
			<point x="912" y="429" type="qcurve"/>
			<point x="920" y="533" type="line"/>
			<point x="908" y="536" type="line"/>
			<point x="889" y="474"/>
			<point x="871" y="443" type="qcurve"/>
			<point x="863" y="425"/>
			<point x="824" y="434" type="qcurve"/>
			<point x="706" y="452"/>
			<point x="614" y="496" type="qcurve"/>
			<point x="732" y="545"/>
			<point x="811" y="599" type="qcurve"/>
			<point x="838" y="583"/>
			<point x="849" y="596" type="qcurve"/>
			<point x="779" y="665" type="line"/>
			<point x="698" y="596"/>
			<point x="554" y="531" type="qcurve"/>
			<point x="481" y="580"/>
			<point x="439" y="654" type="qcurve"/>
			<point x="863" y="719" type="line" smooth="yes"/>
			<point x="886" y="722"/>
			<point x="886" y="739" type="qcurve"/>
			<point x="862" y="755"/>
			<point x="784" y="799"/>
			<point x="784" y="799" type="qcurve"/>
		</contour>
	</outline>
	<note>
尧字头
</note>
</glyph>
<glyph name="展字心" format="2">
	<unicode hex="E041"/>
	<advance height="1880" width="1000"/>
	<outline>
		<contour>
			<point x="214" y="263" type="line"/>
			<point x="346" y="263" type="line"/>
			<point x="346" y="33" type="line" smooth="yes"/>
			<point x="346" y="23"/>
			<point x="333" y="7"/>
			<point x="312" y="-7" type="qcurve"/>
			<point x="364" y="-82" type="line"/>
			<point x="376" y="-74"/>
			<point x="381" y="-61" type="qcurve"/>
			<point x="516" y="14"/>
			<point x="589" y="57" type="qcurve"/>
			<point x="584" y="72" type="line"/>
			<point x="518" y="49"/>
			<point x="409" y="13" type="qcurve"/>
			<point x="409" y="263" type="line"/>
			<point x="534" y="263" type="line"/>
			<point x="578" y="127"/>
			<point x="759" y="-34"/>
			<point x="907" y="-78" type="qcurve"/>
			<point x="922" y="-29"/>
			<point x="965" y="-20" type="qcurve"/>
			<point x="967" y="-9" type="line"/>
			<point x="799" y="20"/>
			<point x="690" y="98" type="qcurve"/>
			<point x="776" y="138"/>
			<point x="859" y="186" type="qcurve"/>
			<point x="888" y="176"/>
			<point x="897" y="191" type="qcurve"/>
			<point x="818" y="246" type="line"/>
			<point x="769" y="194"/>
			<point x="671" y="113" type="qcurve"/>
			<point x="595" y="175"/>
			<point x="556" y="263" type="qcurve"/>
			<point x="930" y="263" type="line" smooth="yes"/>
			<point x="953" y="263"/>
			<point x="956" y="279" type="qcurve"/>
			<point x="936" y="298"/>
			<point x="871" y="352"/>
			<point x="871" y="352" type="qcurve"/>
			<point x="824" y="293" type="line"/>
			<point x="705" y="293" type="line"/>
			<point x="705" y="428" type="line"/>
			<point x="867" y="428" type="line" smooth="yes"/>
			<point x="889" y="428"/>
			<point x="892" y="444" type="qcurve"/>
			<point x="873" y="463"/>
			<point x="811" y="514"/>
			<point x="811" y="514" type="qcurve"/>
			<point x="767" y="457" type="line"/>
			<point x="705" y="457" type="line"/>
			<point x="705" y="534" type="line"/>
			<point x="734" y="538"/>
			<point x="737" y="558" type="qcurve"/>
			<point x="642" y="568" type="line"/>
			<point x="642" y="457" type="line"/>
			<point x="460" y="457" type="line"/>
			<point x="460" y="535" type="line"/>
			<point x="489" y="539"/>
			<point x="491" y="559" type="qcurve"/>
			<point x="396" y="569" type="line"/>
			<point x="396" y="457" type="line"/>
			<point x="243" y="457" type="line"/>
			<point x="251" y="428" type="line"/>
			<point x="396" y="428" type="line"/>
			<point x="396" y="293" type="line"/>
			<point x="207" y="293" type="line"/>
			<point x="207" y="291" type="line"/>
		</contour>
		<contour>
			<point x="460" y="293" type="line"/>
			<point x="460" y="428" type="line"/>
			<point x="642" y="428" type="line"/>
			<point x="642" y="293" type="line"/>
		</contour>
	</outline>
	<note>
展字心
</note>
</glyph>
<glyph name="差字头" format="2">
	<unicode hex="E042"/>
	<advance height="1880" width="1000"/>
	<outline>
		<contour>
			<point x="274" y="835" type="line"/>
			<point x="305" y="807"/>
			<point x="358" y="728"/>
			<point x="364" y="694" type="qcurve"/>
			<point x="390" y="677"/>
			<point x="431" y="703"/>
			<point x="426" y="763"/>
			<point x="356" y="824"/>
			<point x="285" y="842" type="qcurve"/>
		</contour>
		<contour>
			<point x="819" y="383" type="line"/>
			<point x="439" y="383" type="line"/>
			<point x="466" y="442"/>
			<point x="484" y="508" type="qcurve"/>
			<point x="846" y="508" type="line" smooth="yes"/>
			<point x="868" y="508"/>
			<point x="872" y="524" type="qcurve"/>
			<point x="851" y="542"/>
			<point x="788" y="592"/>
			<point x="788" y="592" type="qcurve"/>
			<point x="743" y="537" type="line"/>
			<point x="492" y="537" type="line"/>
			<point x="506" y="593"/>
			<point x="515" y="646" type="qcurve"/>
			<point x="515" y="650" type="line"/>
			<point x="907" y="650" type="line" smooth="yes"/>
			<point x="931" y="650"/>
			<point x="934" y="666" type="qcurve"/>
			<point x="913" y="685"/>
			<point x="847" y="737"/>
			<point x="847" y="737" type="qcurve"/>
			<point x="799" y="680" type="line"/>
			<point x="601" y="680" type="line"/>
			<point x="671" y="734"/>
			<point x="719" y="794" type="qcurve"/>
			<point x="751" y="791"/>
			<point x="759" y="811" type="qcurve"/>
			<point x="652" y="845" type="line"/>
			<point x="617" y="753"/>
			<point x="573" y="680" type="qcurve"/>
			<point x="95" y="680" type="line"/>
			<point x="104" y="650" type="line"/>
			<point x="438" y="650" type="line"/>
			<point x="428" y="586"/>
			<point x="416" y="537" type="qcurve"/>
			<point x="139" y="537" type="line"/>
			<point x="147" y="508" type="line"/>
			<point x="408" y="508" type="line"/>
			<point x="391" y="445"/>
			<point x="364" y="383" type="qcurve"/>
			<point x="53" y="383" type="line"/>
			<point x="62" y="354" type="line"/>
			<point x="352" y="354" type="line"/>
			<point x="248" y="130"/>
			<point x="48" y="-4" type="qcurve"/>
			<point x="60" y="-17" type="line"/>
			<point x="232" y="75"/>
			<point x="339" y="215" type="qcurve" smooth="yes"/>
			<point x="351" y="231" type="line" smooth="yes"/>
			<point x="390" y="283"/>
			<point x="426" y="354" type="qcurve"/>
			<point x="927" y="354" type="line" smooth="yes"/>
			<point x="950" y="354"/>
			<point x="954" y="370" type="qcurve"/>
			<point x="933" y="389"/>
			<point x="867" y="441"/>
			<point x="867" y="441" type="qcurve"/>
		</contour>
	</outline>
	<note>
差字头
</note>
</glyph>
<glyph name="大框" format="2">
	<unicode hex="E043"/>
	<advance height="1880" width="1000"/>
	<outline>
		<contour>
			<point x="579" y="249"/>
			<point x="535" y="384"/>
			<point x="525" y="469" type="qcurve"/>
			<point x="525" y="492" type="line"/>
			<point x="525" y="682" type="line"/>
			<point x="922" y="682" type="line" smooth="yes"/>
			<point x="945" y="682"/>
			<point x="949" y="698" type="qcurve"/>
			<point x="926" y="718"/>
			<point x="855" y="774"/>
			<point x="855" y="774" type="qcurve"/>
			<point x="806" y="711" type="line"/>
			<point x="525" y="711" type="line"/>
			<point x="525" y="798" type="line"/>
			<point x="558" y="803"/>
			<point x="561" y="826" type="qcurve"/>
			<point x="459" y="836" type="line"/>
			<point x="459" y="711" type="line"/>
			<point x="52" y="711" type="line"/>
			<point x="61" y="682" type="line"/>
			<point x="459" y="682" type="line"/>
			<point x="459" y="492" type="line" smooth="yes"/>
			<point x="459" y="356"/>
			<point x="391" y="153"/>
			<point x="209" y="-7"/>
			<point x="44" y="-61" type="qcurve"/>
			<point x="50" y="-79" type="line"/>
			<point x="282" y="-20"/>
			<point x="494" y="203"/>
			<point x="517" y="367" type="qcurve"/>
			<point x="544" y="202"/>
			<point x="711" y="-13"/>
			<point x="891" y="-76" type="qcurve"/>
			<point x="897" y="-50"/>
			<point x="929" y="-26"/>
			<point x="957" y="-23" type="qcurve"/>
			<point x="959" y="-11" type="line"/>
			<point x="841" y="22"/>
			<point x="682" y="114"/>
			<point x="632" y="176" type="qcurve" smooth="yes"/>
			<point x="618" y="195" type="line" smooth="yes"/>
		</contour>
	</outline>
	<note>
大框
</note>
</glyph>
<glyph name="师字旁" format="2">
	<unicode hex="E044"/>
	<advance height="1880" width="1000"/>
	<outline>
		<contour>
			<point x="95" y="713" type="line"/>
			<point x="95" y="168" type="line"/>
			<point x="106" y="168" type="line" smooth="yes"/>
			<point x="123" y="168"/>
			<point x="155" y="183"/>
			<point x="155" y="190" type="qcurve" smooth="yes"/>
			<point x="155" y="676" type="line"/>
			<point x="186" y="681"/>
			<point x="191" y="702" type="qcurve"/>
		</contour>
		<contour>
			<point x="252" y="835" type="line"/>
			<point x="252" y="416" type="line" smooth="yes"/>
			<point x="252" y="318"/>
			<point x="221" y="139"/>
			<point x="142" y="-8"/>
			<point x="73" y="-66" type="qcurve"/>
			<point x="86" y="-78" type="line"/>
			<point x="213" y="3"/>
			<point x="312" y="247"/>
			<point x="314" y="416" type="qcurve" smooth="yes"/>
			<point x="314" y="797" type="line"/>
			<point x="346" y="802"/>
			<point x="349" y="825" type="qcurve"/>
		</contour>
	</outline>
	<note>
师字旁
</note>
</glyph>
<glyph name="应字心" format="2">
	<unicode hex="E046"/>
	<advance height="1880" width="1000"/>
	<outline>
		<contour>
			<point x="461" y="552" type="line"/>
			<point x="499" y="475"/>
			<point x="550" y="298"/>
			<point x="549" y="217" type="qcurve"/>
			<point x="576" y="191"/>
			<point x="616" y="229"/>
			<point x="614" y="337"/>
			<point x="547" y="483"/>
			<point x="477" y="558" type="qcurve"/>
		</contour>
		<contour>
			<point x="280" y="501" type="line"/>
			<point x="321" y="422"/>
			<point x="376" y="228"/>
			<point x="373" y="150" type="qcurve"/>
			<point x="400" y="123"/>
			<point x="441" y="163"/>
			<point x="438" y="275"/>
			<point x="369" y="428"/>
			<point x="296" y="507" type="qcurve"/>
		</contour>
		<contour>
			<point x="775" y="567" type="line"/>
			<point x="751" y="449"/>
			<point x="660" y="130"/>
			<point x="613" y="9" type="qcurve"/>
			<point x="189" y="9" type="line"/>
			<point x="198" y="-21" type="line"/>
			<point x="919" y="-21" type="line" smooth="yes"/>
			<point x="941" y="-21"/>
			<point x="945" y="-5" type="qcurve"/>
			<point x="924" y="15"/>
			<point x="858" y="70"/>
			<point x="858" y="70" type="qcurve"/>
			<point x="810" y="9" type="line"/>
			<point x="634" y="9" type="line"/>
			<point x="696" y="125"/>
			<point x="815" y="408"/>
			<point x="849" y="515" type="qcurve"/>
			<point x="881" y="512"/>
			<point x="887" y="528" type="qcurve"/>
		</contour>
	</outline>
	<note>
应字心
</note>
</glyph>
<glyph name="弟省" format="2">
	<unicode hex="E04A"/>
	<advance height="1880" width="1000"/>
	<outline>
		<contour>
			<point x="529" y="283" type="line"/>
			<point x="823" y="283" type="line"/>
			<point x="806" y="113"/>
			<point x="774" y="83" type="qcurve"/>
			<point x="762" y="74"/>
			<point x="739" y="74" type="qcurve" smooth="yes"/>
			<point x="727" y="74"/>
			<point x="616" y="83" type="qcurve"/>
			<point x="615" y="66" type="line"/>
			<point x="683" y="54"/>
			<point x="700" y="41" type="qcurve" smooth="yes"/>
			<point x="717" y="28"/>
			<point x="717" y="-4" type="qcurve"/>
			<point x="778" y="-4"/>
			<point x="814" y="23" type="qcurve" smooth="yes"/>
			<point x="874" y="68"/>
			<point x="888" y="275" type="qcurve"/>
			<point x="918" y="278"/>
			<point x="927" y="289" type="qcurve"/>
			<point x="853" y="351" type="line"/>
			<point x="816" y="312" type="line"/>
			<point x="529" y="312" type="line"/>
			<point x="529" y="451" type="line"/>
			<point x="773" y="451" type="line"/>
			<point x="773" y="404" type="line"/>
			<point x="783" y="404" type="line" smooth="yes"/>
			<point x="798" y="404"/>
			<point x="836" y="420"/>
			<point x="837" y="425" type="qcurve"/>
			<point x="837" y="621" type="line"/>
			<point x="870" y="628"/>
			<point x="879" y="640" type="qcurve"/>
			<point x="799" y="701" type="line"/>
			<point x="763" y="661" type="line"/>
			<point x="607" y="661" type="line"/>
			<point x="579" y="661" type="line"/>
			<point x="123" y="661" type="line"/>
			<point x="132" y="632" type="line"/>
			<point x="464" y="632" type="line"/>
			<point x="464" y="481" type="line"/>
			<point x="252" y="481" type="line"/>
			<point x="174" y="519" type="line"/>
			<point x="162" y="433"/>
			<point x="134" y="324" type="qcurve"/>
			<point x="108" y="316"/>
			<point x="92" y="305" type="qcurve"/>
			<point x="164" y="250" type="line"/>
			<point x="197" y="283" type="line"/>
			<point x="405" y="283" type="line"/>
			<point x="275" y="96"/>
			<point x="45" y="-29" type="qcurve"/>
			<point x="56" y="-45" type="line"/>
			<point x="183" y="6"/>
			<point x="393" y="153"/>
			<point x="464" y="243" type="qcurve"/>
			<point x="464" y="-78" type="line"/>
			<point x="474" y="-78" type="line" smooth="yes"/>
			<point x="496" y="-78"/>
			<point x="529" y="-62"/>
			<point x="529" y="-57" type="qcurve" smooth="yes"/>
		</contour>
		<contour>
			<point x="196" y="312" type="line"/>
			<point x="215" y="386"/>
			<point x="229" y="451" type="qcurve"/>
			<point x="464" y="451" type="line"/>
			<point x="464" y="312" type="line"/>
		</contour>
		<contour>
			<point x="529" y="632" type="line"/>
			<point x="773" y="632" type="line"/>
			<point x="773" y="481" type="line"/>
			<point x="529" y="481" type="line"/>
		</contour>
	</outline>
	<note>
弟省
</note>
</glyph>
<glyph name="彀左角" format="2">
	<unicode hex="E04B"/>
	<advance height="1880" width="1000"/>
	<outline>
		<contour>
			<point x="345" y="447" type="line"/>
			<point x="139" y="447" type="line"/>
			<point x="147" y="417" type="line"/>
			<point x="419" y="417" type="line" smooth="yes"/>
			<point x="441" y="417"/>
			<point x="443" y="433" type="qcurve"/>
			<point x="428" y="449"/>
			<point x="379" y="488"/>
			<point x="379" y="488" type="qcurve"/>
		</contour>
		<contour>
			<point x="97" y="580" type="line"/>
			<point x="98" y="553"/>
			<point x="71" y="497"/>
			<point x="51" y="486" type="qcurve" smooth="yes"/>
			<point x="37" y="478"/>
			<point x="25" y="453"/>
			<point x="31" y="441" type="qcurve" smooth="yes"/>
			<point x="38" y="428"/>
			<point x="72" y="429"/>
			<point x="87" y="439" type="qcurve" smooth="yes"/>
			<point x="102" y="450"/>
			<point x="122" y="491"/>
			<point x="123" y="519" type="qcurve"/>
			<point x="458" y="519" type="line"/>
			<point x="444" y="446" type="line"/>
			<point x="460" y="440" type="line"/>
			<point x="490" y="469"/>
			<point x="518" y="510" type="qcurve"/>
			<point x="546" y="512"/>
			<point x="555" y="519" type="qcurve"/>
			<point x="487" y="586" type="line"/>
			<point x="451" y="548" type="line"/>
			<point x="121" y="548" type="line"/>
			<point x="119" y="564"/>
			<point x="115" y="580" type="qcurve"/>
		</contour>
		<contour>
			<point x="427" y="739" type="line"/>
			<point x="312" y="739" type="line"/>
			<point x="312" y="800" type="line"/>
			<point x="346" y="804"/>
			<point x="349" y="826" type="qcurve"/>
			<point x="250" y="837" type="line"/>
			<point x="250" y="739" type="line"/>
			<point x="44" y="739" type="line"/>
			<point x="52" y="710" type="line"/>
			<point x="250" y="710" type="line"/>
			<point x="250" y="634" type="line"/>
			<point x="92" y="634" type="line"/>
			<point x="100" y="604" type="line"/>
			<point x="473" y="604" type="line" smooth="yes"/>
			<point x="495" y="604"/>
			<point x="498" y="620" type="qcurve"/>
			<point x="481" y="636"/>
			<point x="430" y="679"/>
			<point x="430" y="679" type="qcurve"/>
			<point x="393" y="634" type="line"/>
			<point x="312" y="634" type="line"/>
			<point x="312" y="710" type="line"/>
			<point x="514" y="710" type="line" smooth="yes"/>
			<point x="534" y="710"/>
			<point x="539" y="726" type="qcurve"/>
			<point x="521" y="743"/>
			<point x="466" y="787"/>
			<point x="466" y="787" type="qcurve"/>
		</contour>
	</outline>
	<note>
彀左角
</note>
</glyph>
<glyph name="木框" format="2">
	<unicode hex="E04C"/>
	<advance height="1880" width="1000"/>
	<outline>
		<contour>
			<point x="553" y="361"/>
			<point x="530" y="409" type="qcurve"/>
			<point x="530" y="647" type="line"/>
			<point x="920" y="647" type="line" smooth="yes"/>
			<point x="942" y="647"/>
			<point x="946" y="663" type="qcurve"/>
			<point x="924" y="683"/>
			<point x="854" y="738"/>
			<point x="854" y="738" type="qcurve"/>
			<point x="804" y="677" type="line"/>
			<point x="530" y="677" type="line"/>
			<point x="530" y="798" type="line"/>
			<point x="548" y="801"/>
			<point x="563" y="814"/>
			<point x="566" y="826" type="qcurve"/>
			<point x="464" y="837" type="line"/>
			<point x="464" y="677" type="line"/>
			<point x="54" y="677" type="line"/>
			<point x="63" y="647" type="line"/>
			<point x="464" y="647" type="line"/>
			<point x="464" y="429" type="line"/>
			<point x="405" y="295"/>
			<point x="172" y="58"/>
			<point x="37" y="-15" type="qcurve"/>
			<point x="45" y="-31" type="line"/>
			<point x="168" y="23"/>
			<point x="389" y="191"/>
			<point x="464" y="286" type="qcurve"/>
			<point x="464" y="-79" type="line"/>
			<point x="477" y="-79" type="line" smooth="yes"/>
			<point x="495" y="-79"/>
			<point x="530" y="-60"/>
			<point x="530" y="-51" type="qcurve" smooth="yes"/>
			<point x="530" y="361" type="line"/>
			<point x="589" y="227"/>
			<point x="781" y="27"/>
			<point x="903" y="-28" type="qcurve"/>
			<point x="910" y="-5"/>
			<point x="943" y="25"/>
			<point x="964" y="29" type="qcurve"/>
			<point x="966" y="39" type="line"/>
			<point x="861" y="73"/>
			<point x="667" y="212"/>
			<point x="597" y="302" type="qcurve" smooth="yes"/>
			<point x="584" y="320" type="line" smooth="yes"/>
		</contour>
	</outline>
	<note>
木框
</note>
</glyph>
<glyph name="虫无口" format="2">
	<unicode hex="E04D"/>
	<advance height="1880" width="1000"/>
	<outline>
		<contour>
			<point x="529" y="609" type="line"/>
			<point x="529" y="357" type="line"/>
		</contour>
		<contour>
			<point x="756" y="139"/>
			<point x="804" y="71" type="qcurve"/>
			<point x="529" y="54" type="line"/>
			<point x="529" y="328" type="line"/>
			<point x="529" y="638" type="line"/>
			<point x="529" y="794" type="line"/>
			<point x="560" y="799"/>
			<point x="565" y="822" type="qcurve"/>
			<point x="463" y="833" type="line"/>
			<point x="463" y="638" type="line"/>
			<point x="463" y="328" type="line"/>
			<point x="463" y="50" type="line"/>
			<point x="161" y="34"/>
			<point x="73" y="33" type="qcurve"/>
			<point x="105" y="-55" type="line"/>
			<point x="120" y="-51"/>
			<point x="131" y="-34" type="qcurve"/>
			<point x="512" y="6"/>
			<point x="819" y="49" type="qcurve"/>
			<point x="861" y="-17"/>
			<point x="872" y="-65" type="qcurve"/>
			<point x="903" y="-86"/>
			<point x="937" y="-50"/>
			<point x="912" y="42"/>
			<point x="799" y="151"/>
			<point x="694" y="199" type="qcurve"/>
		</contour>
		<contour>
			<point x="463" y="357" type="line"/>
			<point x="463" y="609" type="line"/>
		</contour>
	</outline>
	<note>
虫无口
</note>
</glyph>
<glyph name="带字头" format="2">
	<unicode hex="E050"/>
	<advance height="1880" width="1000"/>
	<outline>
		<contour>
			<point x="841" y="692" type="line"/>
			<point x="763" y="692" type="line"/>
			<point x="763" y="798" type="line"/>
			<point x="799" y="802"/>
			<point x="801" y="825" type="qcurve"/>
			<point x="699" y="835" type="line"/>
			<point x="699" y="692" type="line"/>
			<point x="529" y="692" type="line"/>
			<point x="529" y="800" type="line"/>
			<point x="562" y="804"/>
			<point x="565" y="827" type="qcurve"/>
			<point x="465" y="837" type="line"/>
			<point x="465" y="692" type="line"/>
			<point x="301" y="692" type="line"/>
			<point x="301" y="798" type="line"/>
			<point x="335" y="803"/>
			<point x="338" y="825" type="qcurve"/>
			<point x="238" y="836" type="line"/>
			<point x="238" y="692" type="line"/>
			<point x="40" y="692" type="line"/>
			<point x="49" y="662" type="line"/>
			<point x="238" y="662" type="line"/>
			<point x="238" y="520" type="line"/>
			<point x="250" y="520" type="line" smooth="yes"/>
			<point x="267" y="520"/>
			<point x="301" y="534"/>
			<point x="301" y="540" type="qcurve" smooth="yes"/>
			<point x="301" y="662" type="line"/>
			<point x="465" y="662" type="line"/>
			<point x="465" y="521" type="line"/>
			<point x="477" y="521" type="line" smooth="yes"/>
			<point x="495" y="521"/>
			<point x="529" y="535"/>
			<point x="529" y="541" type="qcurve" smooth="yes"/>
			<point x="529" y="662" type="line"/>
			<point x="699" y="662" type="line"/>
			<point x="699" y="529" type="line"/>
			<point x="711" y="529" type="line" smooth="yes"/>
			<point x="729" y="529"/>
			<point x="763" y="542"/>
			<point x="763" y="548" type="qcurve" smooth="yes"/>
			<point x="763" y="662" type="line"/>
			<point x="942" y="662" type="line" smooth="yes"/>
			<point x="964" y="662"/>
			<point x="967" y="678" type="qcurve"/>
			<point x="948" y="697"/>
			<point x="885" y="749"/>
			<point x="885" y="749" type="qcurve"/>
		</contour>
	</outline>
	<note>
带字头
</note>
</glyph>
<glyph name="恭字底" format="2">
	<unicode hex="E051"/>
	<advance height="1880" width="1000"/>
	<outline>
		<contour>
			<point x="271" y="205"/>
			<point x="201" y="108"/>
			<point x="158" y="83" type="qcurve"/>
			<point x="140" y="54"/>
			<point x="180" y="26"/>
			<point x="255" y="58"/>
			<point x="306" y="170"/>
			<point x="301" y="267" type="qcurve"/>
			<point x="285" y="269" type="line"/>
		</contour>
		<contour>
			<point x="530" y="264" type="line"/>
			<point x="555" y="213"/>
			<point x="589" y="90"/>
			<point x="587" y="40" type="qcurve"/>
			<point x="609" y="16"/>
			<point x="650" y="39"/>
			<point x="655" y="116"/>
			<point x="604" y="218"/>
			<point x="545" y="269" type="qcurve"/>
		</contour>
		<contour>
			<point x="655" y="281" type="line"/>
			<point x="702" y="229"/>
			<point x="785" y="93"/>
			<point x="796" y="38" type="qcurve"/>
			<point x="825" y="18"/>
			<point x="862" y="52"/>
			<point x="847" y="137"/>
			<point x="755" y="242"/>
			<point x="667" y="288" type="qcurve"/>
		</contour>
		<contour>
			<point x="402" y="17" type="line" smooth="yes"/>
			<point x="402" y="6"/>
			<point x="394" y="-2"/>
			<point x="384" y="-2" type="qcurve" smooth="yes"/>
			<point x="373" y="-2"/>
			<point x="288" y="5"/>
			<point x="288" y="5" type="qcurve"/>
			<point x="288" y="-11" type="line"/>
			<point x="338" y="-18"/>
			<point x="356" y="-33" type="qcurve"/>
			<point x="370" y="-48"/>
			<point x="373" y="-79" type="qcurve"/>
			<point x="429" y="-73"/>
			<point x="461" y="-32"/>
			<point x="461" y="12" type="qcurve" smooth="yes"/>
			<point x="461" y="332" type="line"/>
			<point x="495" y="337"/>
			<point x="497" y="357" type="qcurve"/>
			<point x="402" y="368" type="line"/>
		</contour>
	</outline>
	<note>
恭字底
</note>
</glyph>
<glyph name="惠字头" format="2">
	<unicode hex="E052"/>
	<advance height="1880" width="1000"/>
	<outline>
		<contour>
			<point x="250" y="372" type="line"/>
			<point x="466" y="372" type="line"/>
			<point x="466" y="279" type="line"/>
			<point x="186" y="276"/>
			<point x="78" y="277" type="qcurve"/>
			<point x="121" y="196" type="line"/>
			<point x="138" y="200"/>
			<point x="147" y="217" type="qcurve"/>
			<point x="612" y="243"/>
			<point x="797" y="261" type="qcurve"/>
			<point x="846" y="226"/>
			<point x="876" y="186" type="qcurve"/>
			<point x="901" y="166"/>
			<point x="941" y="189"/>
			<point x="921" y="253"/>
			<point x="798" y="322"/>
			<point x="675" y="345" type="qcurve"/>
			<point x="668" y="329" type="line"/>
			<point x="720" y="308"/>
			<point x="761" y="284" type="qcurve"/>
			<point x="531" y="280" type="line"/>
			<point x="531" y="372" type="line"/>
			<point x="748" y="372" type="line"/>
			<point x="748" y="338" type="line"/>
			<point x="758" y="338" type="line" smooth="yes"/>
			<point x="773" y="338"/>
			<point x="811" y="353"/>
			<point x="812" y="358" type="qcurve"/>
			<point x="812" y="592" type="line"/>
			<point x="844" y="598"/>
			<point x="855" y="612" type="qcurve"/>
			<point x="774" y="674" type="line"/>
			<point x="738" y="633" type="line"/>
			<point x="531" y="633" type="line"/>
			<point x="531" y="709" type="line"/>
			<point x="918" y="709" type="line" smooth="yes"/>
			<point x="940" y="709"/>
			<point x="945" y="725" type="qcurve"/>
			<point x="923" y="744"/>
			<point x="855" y="798"/>
			<point x="855" y="798" type="qcurve"/>
			<point x="806" y="739" type="line"/>
			<point x="531" y="739" type="line"/>
			<point x="531" y="805" type="line"/>
			<point x="563" y="810"/>
			<point x="568" y="832" type="qcurve"/>
			<point x="466" y="843" type="line"/>
			<point x="466" y="739" type="line"/>
			<point x="58" y="739" type="line"/>
			<point x="67" y="709" type="line"/>
			<point x="466" y="709" type="line"/>
			<point x="466" y="633" type="line"/>
			<point x="256" y="633" type="line"/>
			<point x="186" y="666" type="line"/>
			<point x="186" y="327" type="line"/>
			<point x="196" y="327" type="line" smooth="yes"/>
			<point x="215" y="327"/>
			<point x="250" y="342"/>
			<point x="250" y="348" type="qcurve" smooth="yes"/>
		</contour>
		<contour>
			<point x="250" y="402" type="line"/>
			<point x="250" y="484" type="line"/>
			<point x="466" y="484" type="line"/>
			<point x="466" y="402" type="line"/>
		</contour>
		<contour>
			<point x="531" y="484" type="line"/>
			<point x="748" y="484" type="line"/>
			<point x="748" y="402" type="line"/>
			<point x="531" y="402" type="line"/>
		</contour>
		<contour>
			<point x="250" y="514" type="line"/>
			<point x="250" y="604" type="line"/>
			<point x="466" y="604" type="line"/>
			<point x="466" y="514" type="line"/>
		</contour>
		<contour>
			<point x="531" y="604" type="line"/>
			<point x="748" y="604" type="line"/>
			<point x="748" y="514" type="line"/>
			<point x="531" y="514" type="line"/>
		</contour>
	</outline>
	<note>
惠字头
</note>
</glyph>
<glyph name="立无横" format="2">
	<unicode hex="E054"/>
	<advance height="1880" width="1000"/>
	<outline>
		<contour>
			<point x="381" y="833" type="line"/>
			<point x="417" y="791"/>
			<point x="479" y="688"/>
			<point x="488" y="646" type="qcurve"/>
			<point x="515" y="627"/>
			<point x="555" y="654"/>
			<point x="546" y="723"/>
			<point x="470" y="805"/>
			<point x="393" y="839" type="qcurve"/>
		</contour>
		<contour>
			<point x="218" y="514" type="line"/>
			<point x="264" y="411"/>
			<point x="330" y="177"/>
			<point x="331" y="86" type="qcurve"/>
			<point x="362" y="57"/>
			<point x="403" y="105"/>
			<point x="394" y="238"/>
			<point x="315" y="422"/>
			<point x="235" y="519" type="qcurve"/>
		</contour>
		<contour>
			<point x="779" y="619" type="line"/>
			<point x="82" y="619" type="line"/>
			<point x="90" y="589" type="line"/>
			<point x="897" y="589" type="line" smooth="yes"/>
			<point x="921" y="589"/>
			<point x="924" y="605" type="qcurve"/>
			<point x="902" y="626"/>
			<point x="830" y="682"/>
			<point x="830" y="682" type="qcurve"/>
		</contour>
		<contour>
			<point x="628" y="119"/>
			<point x="736" y="371"/>
			<point x="771" y="477" type="qcurve"/>
			<point x="802" y="476"/>
			<point x="809" y="497" type="qcurve"/>
			<point x="699" y="528" type="line"/>
			<point x="642" y="272"/>
			<point x="545" y="17" type="qcurve"/>
			<point x="570" y="17" type="line"/>
		</contour>
	</outline>
	<note>
立无横
</note>
</glyph>
<glyph name="扁字心" format="2">
	<unicode hex="E055"/>
	<advance height="1880" width="1000"/>
	<outline>
		<contour>
			<point x="823" y="375" type="line"/>
			<point x="823" y="213" type="line"/>
			<point x="698" y="213" type="line"/>
			<point x="698" y="375" type="line"/>
		</contour>
		<contour>
			<point x="321" y="184" type="line"/>
			<point x="453" y="184" type="line"/>
			<point x="453" y="-16" type="line"/>
			<point x="462" y="-16" type="line" smooth="yes"/>
			<point x="482" y="-16"/>
			<point x="512" y="-2"/>
			<point x="512" y="2" type="qcurve" smooth="yes"/>
			<point x="512" y="184" type="line"/>
			<point x="638" y="184" type="line"/>
			<point x="638" y="19" type="line"/>
			<point x="648" y="19" type="line" smooth="yes"/>
			<point x="668" y="19"/>
			<point x="698" y="33"/>
			<point x="698" y="37" type="qcurve" smooth="yes"/>
			<point x="698" y="184" type="line"/>
			<point x="823" y="184" type="line"/>
			<point x="823" y="16" type="line" smooth="yes"/>
			<point x="823" y="6"/>
			<point x="815" y="-3"/>
			<point x="803" y="-3" type="qcurve" smooth="yes"/>
			<point x="791" y="-3"/>
			<point x="709" y="3"/>
			<point x="709" y="3" type="qcurve"/>
			<point x="709" y="-13" type="line"/>
			<point x="756" y="-20"/>
			<point x="777" y="-34" type="qcurve"/>
			<point x="790" y="-45"/>
			<point x="794" y="-75" type="qcurve"/>
			<point x="851" y="-69"/>
			<point x="885" y="-31"/>
			<point x="885" y="10" type="qcurve" smooth="yes"/>
			<point x="885" y="363" type="line"/>
			<point x="917" y="368"/>
			<point x="928" y="382" type="qcurve"/>
			<point x="846" y="444" type="line"/>
			<point x="813" y="404" type="line"/>
			<point x="326" y="404" type="line"/>
			<point x="260" y="436" type="line"/>
			<point x="260" y="-71" type="line"/>
			<point x="270" y="-71" type="line" smooth="yes"/>
			<point x="288" y="-71"/>
			<point x="321" y="-55"/>
			<point x="321" y="-49" type="qcurve" smooth="yes"/>
		</contour>
		<contour>
			<point x="638" y="213" type="line"/>
			<point x="512" y="213" type="line"/>
			<point x="512" y="375" type="line"/>
			<point x="638" y="375" type="line"/>
		</contour>
		<contour>
			<point x="453" y="213" type="line"/>
			<point x="321" y="213" type="line"/>
			<point x="321" y="375" type="line"/>
			<point x="453" y="375" type="line"/>
		</contour>
	</outline>
	<note>
扁字心
</note>
</glyph>
<glyph name="卬字旁" format="2">
	<unicode hex="E057"/>
	<advance height="1880" width="1000"/>
	<outline>
		<contour>
			<point x="419" y="829" type="line"/>
			<point x="341" y="769"/>
			<point x="210" y="702" type="qcurve"/>
			<point x="152" y="734" type="line"/>
			<point x="152" y="188" type="line" smooth="yes"/>
			<point x="152" y="174"/>
			<point x="138" y="159"/>
			<point x="113" y="147" type="qcurve"/>
			<point x="150" y="65" type="line"/>
			<point x="167" y="73"/>
			<point x="175" y="89" type="qcurve"/>
			<point x="252" y="131"/>
			<point x="573" y="321"/>
			<point x="472" y="262" type="qcurve"/>
			<point x="465" y="276" type="line"/>
			<point x="287" y="206"/>
			<point x="218" y="181" type="qcurve"/>
			<point x="218" y="679" type="line"/>
			<point x="369" y="722"/>
			<point x="462" y="764" type="qcurve"/>
			<point x="484" y="755"/>
			<point x="495" y="766" type="qcurve"/>
		</contour>
	</outline>
	<note>
卬字旁
</note>
</glyph>
<glyph name="永无点" format="2">
	<unicode hex="E059"/>
	<advance height="1880" width="1000"/>
	<outline>
		<contour>
			<point x="66" y="409" type="line"/>
			<point x="311" y="409" type="line"/>
			<point x="280" y="287"/>
			<point x="139" y="78"/>
			<point x="34" y="11" type="qcurve"/>
			<point x="43" y="-4" type="line"/>
			<point x="290" y="117"/>
			<point x="380" y="402" type="qcurve"/>
			<point x="411" y="402"/>
			<point x="420" y="415" type="qcurve"/>
			<point x="350" y="477" type="line"/>
			<point x="308" y="437" type="line"/>
			<point x="57" y="437" type="line"/>
		</contour>
		<contour>
			<point x="786" y="545"/>
			<point x="673" y="422"/>
			<point x="613" y="371" type="qcurve"/>
			<point x="564" y="461"/>
			<point x="540" y="570" type="qcurve"/>
			<point x="540" y="573" type="line"/>
			<point x="574" y="579"/>
			<point x="585" y="594" type="qcurve"/>
			<point x="498" y="659" type="line"/>
			<point x="464" y="617" type="line"/>
			<point x="203" y="617" type="line"/>
			<point x="212" y="587" type="line"/>
			<point x="474" y="587" type="line"/>
			<point x="474" y="28" type="line" smooth="yes"/>
			<point x="474" y="15"/>
			<point x="463" y="4"/>
			<point x="448" y="4" type="qcurve" smooth="yes"/>
			<point x="433" y="4"/>
			<point x="306" y="14"/>
			<point x="306" y="14" type="qcurve"/>
			<point x="306" y="-2" type="line"/>
			<point x="376" y="-12"/>
			<point x="403" y="-28" type="qcurve" smooth="yes"/>
			<point x="422" y="-41"/>
			<point x="427" y="-76" type="qcurve"/>
			<point x="497" y="-69"/>
			<point x="540" y="-24"/>
			<point x="540" y="20" type="qcurve" smooth="yes"/>
			<point x="540" y="509" type="line"/>
			<point x="584" y="314"/>
			<point x="766" y="79"/>
			<point x="907" y="-4" type="qcurve"/>
			<point x="922" y="46"/>
			<point x="966" y="54" type="qcurve"/>
			<point x="969" y="64" type="line"/>
			<point x="860" y="110"/>
			<point x="683" y="248"/>
			<point x="622" y="353" type="qcurve"/>
			<point x="689" y="390"/>
			<point x="826" y="490"/>
			<point x="871" y="533" type="qcurve"/>
			<point x="887" y="528"/>
			<point x="903" y="532"/>
			<point x="909" y="540" type="qcurve"/>
			<point x="820" y="595" type="line"/>
		</contour>
	</outline>
	<note>
永无点
</note>
</glyph>
<glyph name="拜字边" format="2">
	<unicode hex="E05A"/>
	<advance height="1880" width="1000"/>
	<outline>
		<contour>
			<point x="462" y="726" type="line"/>
			<point x="658" y="726" type="line"/>
			<point x="658" y="580" type="line"/>
			<point x="472" y="580" type="line"/>
			<point x="480" y="551" type="line"/>
			<point x="658" y="551" type="line"/>
			<point x="658" y="399" type="line"/>
			<point x="472" y="399" type="line"/>
			<point x="480" y="369" type="line"/>
			<point x="658" y="369" type="line"/>
			<point x="658" y="219" type="line"/>
			<point x="410" y="219" type="line"/>
			<point x="418" y="189" type="line"/>
			<point x="658" y="189" type="line"/>
			<point x="658" y="-83" type="line"/>
			<point x="668" y="-83" type="line" smooth="yes"/>
			<point x="690" y="-83"/>
			<point x="721" y="-67"/>
			<point x="721" y="-62" type="qcurve" smooth="yes"/>
			<point x="721" y="189" type="line"/>
			<point x="938" y="189" type="line" smooth="yes"/>
			<point x="961" y="189"/>
			<point x="965" y="205" type="qcurve"/>
			<point x="945" y="224"/>
			<point x="881" y="276"/>
			<point x="881" y="276" type="qcurve"/>
			<point x="836" y="219" type="line"/>
			<point x="721" y="219" type="line"/>
			<point x="721" y="369" type="line"/>
			<point x="902" y="369" type="line" smooth="yes"/>
			<point x="924" y="369"/>
			<point x="928" y="385" type="qcurve"/>
			<point x="909" y="404"/>
			<point x="847" y="454"/>
			<point x="847" y="454" type="qcurve"/>
			<point x="804" y="399" type="line"/>
			<point x="721" y="399" type="line"/>
			<point x="721" y="551" type="line"/>
			<point x="900" y="551" type="line" smooth="yes"/>
			<point x="922" y="551"/>
			<point x="926" y="567" type="qcurve"/>
			<point x="907" y="585"/>
			<point x="845" y="636"/>
			<point x="845" y="636" type="qcurve"/>
			<point x="802" y="580" type="line"/>
			<point x="721" y="580" type="line"/>
			<point x="721" y="726" type="line"/>
			<point x="926" y="726" type="line" smooth="yes"/>
			<point x="948" y="726"/>
			<point x="952" y="742" type="qcurve"/>
			<point x="933" y="761"/>
			<point x="870" y="813"/>
			<point x="870" y="813" type="qcurve"/>
			<point x="824" y="756" type="line"/>
			<point x="463" y="756" type="line"/>
			<point x="454" y="755" type="line"/>
		</contour>
	</outline>
	<note>
拜字边
</note>
</glyph>
<glyph name="凸无横" format="2">
	<unicode hex="E05D"/>
	<advance height="1880" width="1000"/>
	<outline>
		<contour>
			<point x="392" y="741" type="line"/>
			<point x="612" y="740" type="line"/>
			<point x="612" y="441" type="line"/>
			<point x="593" y="431"/>
			<point x="584" y="420" type="qcurve"/>
			<point x="658" y="379" type="line"/>
			<point x="683" y="408" type="line"/>
			<point x="834" y="408" type="line"/>
			<point x="834" y="-66" type="line"/>
			<point x="844" y="-66" type="line" smooth="yes"/>
			<point x="860" y="-66"/>
			<point x="898" y="-49"/>
			<point x="899" y="-43" type="qcurve"/>
			<point x="899" y="396" type="line"/>
			<point x="931" y="402"/>
			<point x="942" y="415" type="qcurve"/>
			<point x="861" y="478" type="line"/>
			<point x="824" y="437" type="line"/>
			<point x="676" y="437" type="line"/>
			<point x="676" y="726" type="line"/>
			<point x="699" y="730"/>
			<point x="711" y="742" type="qcurve"/>
			<point x="656" y="805" type="line"/>
			<point x="629" y="770" type="line"/>
			<point x="397" y="770" type="line"/>
			<point x="328" y="802" type="line"/>
			<point x="328" y="435" type="line"/>
			<point x="170" y="435" type="line"/>
			<point x="101" y="468" type="line"/>
			<point x="101" y="-76" type="line"/>
			<point x="112" y="-76" type="line" smooth="yes"/>
			<point x="132" y="-76"/>
			<point x="165" y="-60"/>
			<point x="165" y="-53" type="qcurve" smooth="yes"/>
			<point x="165" y="406" type="line"/>
			<point x="328" y="406" type="line"/>
			<point x="328" y="369" type="line"/>
			<point x="338" y="369" type="line" smooth="yes"/>
			<point x="357" y="369"/>
			<point x="392" y="385"/>
			<point x="392" y="391" type="qcurve" smooth="yes"/>
		</contour>
		<contour>
			<point x="844" y="-66" type="line" smooth="yes"/>
			<point x="860" y="-66"/>
			<point x="898" y="-49"/>
			<point x="899" y="-43" type="qcurve"/>
			<point x="899" y="396" type="line"/>
			<point x="931" y="402"/>
			<point x="942" y="415" type="qcurve"/>
			<point x="861" y="478" type="line"/>
			<point x="824" y="437" type="line"/>
			<point x="676" y="437" type="line"/>
			<point x="676" y="726" type="line"/>
			<point x="699" y="730"/>
			<point x="711" y="742" type="qcurve"/>
			<point x="656" y="805" type="line"/>
			<point x="629" y="770" type="line"/>
			<point x="397" y="770" type="line"/>
			<point x="328" y="802" type="line"/>
			<point x="328" y="435" type="line"/>
			<point x="170" y="435" type="line"/>
			<point x="101" y="468" type="line"/>
			<point x="101" y="-76" type="line"/>
			<point x="112" y="-76" type="line" smooth="yes"/>
			<point x="132" y="-76"/>
			<point x="165" y="-60"/>
			<point x="165" y="-53" type="qcurve" smooth="yes"/>
			<point x="165" y="406" type="line"/>
			<point x="328" y="406" type="line"/>
			<point x="328" y="369" type="line"/>
			<point x="338" y="369" type="line" smooth="yes"/>
			<point x="357" y="369"/>
			<point x="392" y="385"/>
			<point x="392" y="391" type="qcurve" smooth="yes"/>
			<point x="392" y="741" type="line"/>
			<point x="612" y="740" type="line"/>
			<point x="612" y="441" type="line"/>
			<point x="593" y="431"/>
			<point x="584" y="420" type="qcurve"/>
			<point x="658" y="379" type="line"/>
			<point x="683" y="408" type="line"/>
			<point x="834" y="408" type="line"/>
			<point x="834" y="-66" type="line"/>
		</contour>
	</outline>
	<note>
凸无横
</note>
</glyph>
<glyph name="敖字旁" format="2">
	<unicode hex="E05F"/>
	<advance height="1880" width="1000"/>
	<outline>
		<contour>
			<point x="398" y="710" type="line"/>
			<point x="312" y="710" type="line"/>
			<point x="312" y="806" type="line"/>
			<point x="341" y="810"/>
			<point x="344" y="830" type="qcurve"/>
			<point x="248" y="840" type="line"/>
			<point x="248" y="710" type="line"/>
			<point x="57" y="710" type="line"/>
			<point x="65" y="680" type="line"/>
			<point x="248" y="680" type="line"/>
			<point x="248" y="575" type="line"/>
			<point x="94" y="575" type="line"/>
			<point x="102" y="546" type="line"/>
			<point x="248" y="546" type="line"/>
			<point x="248" y="433" type="line"/>
			<point x="43" y="433" type="line"/>
			<point x="51" y="404" type="line"/>
			<point x="177" y="404" type="line"/>
			<point x="173" y="255"/>
			<point x="108" y="25"/>
			<point x="32" y="-66" type="qcurve"/>
			<point x="42" y="-79" type="line"/>
			<point x="120" y="-14"/>
			<point x="210" y="157"/>
			<point x="230" y="267" type="qcurve"/>
			<point x="392" y="267" type="line"/>
			<point x="380" y="41"/>
			<point x="350" y="14" type="qcurve" smooth="yes"/>
			<point x="340" y="5"/>
			<point x="320" y="5" type="qcurve" smooth="yes"/>
			<point x="301" y="5"/>
			<point x="231" y="10" type="qcurve"/>
			<point x="231" y="-6" type="line"/>
			<point x="276" y="-15"/>
			<point x="291" y="-26" type="qcurve"/>
			<point x="304" y="-39"/>
			<point x="304" y="-71" type="qcurve"/>
			<point x="358" y="-71"/>
			<point x="390" y="-43" type="qcurve" smooth="yes"/>
			<point x="418" y="-19"/>
			<point x="448" y="123"/>
			<point x="453" y="260" type="qcurve"/>
			<point x="481" y="263"/>
			<point x="492" y="275" type="qcurve"/>
			<point x="419" y="335" type="line"/>
			<point x="383" y="296" type="line"/>
			<point x="234" y="296" type="line"/>
			<point x="243" y="348"/>
			<point x="246" y="404" type="qcurve"/>
			<point x="506" y="404" type="line" smooth="yes"/>
			<point x="529" y="404"/>
			<point x="533" y="420" type="qcurve"/>
			<point x="513" y="439"/>
			<point x="450" y="490"/>
			<point x="450" y="490" type="qcurve"/>
			<point x="405" y="433" type="line"/>
			<point x="312" y="433" type="line"/>
			<point x="312" y="546" type="line"/>
			<point x="466" y="546" type="line" smooth="yes"/>
			<point x="488" y="546"/>
			<point x="491" y="562" type="qcurve"/>
			<point x="473" y="580"/>
			<point x="413" y="631"/>
			<point x="413" y="631" type="qcurve"/>
			<point x="371" y="575" type="line"/>
			<point x="312" y="575" type="line"/>
			<point x="312" y="680" type="line"/>
			<point x="495" y="680" type="line" smooth="yes"/>
			<point x="517" y="680"/>
			<point x="520" y="696" type="qcurve"/>
			<point x="502" y="715"/>
			<point x="441" y="766"/>
			<point x="441" y="766" type="qcurve"/>
		</contour>
	</outline>
	<note>
敖字旁
</note>
</glyph>
<glyph name="凹无横" format="2">
	<unicode hex="E060"/>
	<advance height="1880" width="1000"/>
	<outline>
		<contour>
			<point x="173" y="719" type="line"/>
			<point x="341" y="719" type="line"/>
			<point x="341" y="397" type="line"/>
			<point x="324" y="388"/>
			<point x="313" y="375" type="qcurve"/>
			<point x="385" y="335" type="line"/>
			<point x="408" y="362" type="line"/>
			<point x="591" y="362" type="line"/>
			<point x="591" y="335" type="line"/>
			<point x="602" y="335" type="line" smooth="yes"/>
			<point x="621" y="335"/>
			<point x="654" y="351"/>
			<point x="654" y="357" type="qcurve" smooth="yes"/>
			<point x="654" y="719" type="line"/>
			<point x="828" y="719" type="line"/>
			<point x="828" y="-77" type="line"/>
			<point x="838" y="-77" type="line" smooth="yes"/>
			<point x="854" y="-77"/>
			<point x="892" y="-58"/>
			<point x="893" y="-52" type="qcurve"/>
			<point x="893" y="707" type="line"/>
			<point x="925" y="713"/>
			<point x="937" y="727" type="qcurve"/>
			<point x="855" y="791" type="line"/>
			<point x="818" y="749" type="line"/>
			<point x="659" y="749" type="line"/>
			<point x="591" y="780" type="line"/>
			<point x="591" y="392" type="line"/>
			<point x="403" y="392" type="line"/>
			<point x="403" y="704" type="line"/>
			<point x="425" y="709"/>
			<point x="438" y="720" type="qcurve"/>
			<point x="384" y="782" type="line"/>
			<point x="357" y="748" type="line"/>
			<point x="178" y="748" type="line"/>
			<point x="109" y="782" type="line"/>
			<point x="109" y="-80" type="line"/>
			<point x="121" y="-80" type="line" smooth="yes"/>
			<point x="142" y="-80"/>
			<point x="173" y="-62"/>
			<point x="173" y="-54" type="qcurve" smooth="yes"/>
			<point x="173" y="719" type="line"/>
			<point x="341" y="719" type="line"/>
			<point x="341" y="397" type="line"/>
			<point x="324" y="388"/>
			<point x="313" y="375" type="qcurve"/>
			<point x="385" y="335" type="line"/>
			<point x="408" y="362" type="line"/>
			<point x="591" y="362" type="line"/>
			<point x="591" y="335" type="line"/>
			<point x="602" y="335" type="line" smooth="yes"/>
			<point x="621" y="335"/>
			<point x="654" y="351"/>
			<point x="654" y="357" type="qcurve" smooth="yes"/>
			<point x="654" y="719" type="line"/>
			<point x="828" y="719" type="line"/>
			<point x="828" y="-77" type="line"/>
			<point x="838" y="-77" type="line" smooth="yes"/>
			<point x="854" y="-77"/>
			<point x="892" y="-58"/>
			<point x="893" y="-52" type="qcurve"/>
			<point x="893" y="707" type="line"/>
			<point x="925" y="713"/>
			<point x="937" y="727" type="qcurve"/>
			<point x="855" y="791" type="line"/>
			<point x="818" y="749" type="line"/>
			<point x="659" y="749" type="line"/>
			<point x="591" y="780" type="line"/>
			<point x="591" y="392" type="line"/>
			<point x="403" y="392" type="line"/>
			<point x="403" y="704" type="line"/>
			<point x="425" y="709"/>
			<point x="438" y="720" type="qcurve"/>
			<point x="384" y="782" type="line"/>
			<point x="357" y="748" type="line"/>
			<point x="178" y="748" type="line"/>
			<point x="109" y="782" type="line"/>
			<point x="109" y="-80" type="line"/>
			<point x="121" y="-80" type="line" smooth="yes"/>
			<point x="142" y="-80"/>
			<point x="173" y="-62"/>
			<point x="173" y="-54" type="qcurve" smooth="yes"/>
		</contour>
	</outline>
	<note>
凹无横
</note>
</glyph>
<glyph name="丙三" format="2">
	<unicode hex="E063"/>
	<advance height="1880" width="1000"/>
	<outline>
		<contour>
			<point x="805" y="529" type="line"/>
			<point x="805" y="24" type="line" smooth="yes"/>
			<point x="805" y="11"/>
			<point x="794" y="1"/>
			<point x="778" y="1" type="qcurve" smooth="yes"/>
			<point x="760" y="1"/>
			<point x="625" y="10"/>
			<point x="625" y="10" type="qcurve"/>
			<point x="625" y="-6" type="line"/>
			<point x="696" y="-14"/>
			<point x="729" y="-31" type="qcurve"/>
			<point x="747" y="-43"/>
			<point x="754" y="-77" type="qcurve"/>
			<point x="826" y="-71"/>
			<point x="871" y="-26"/>
			<point x="871" y="18" type="qcurve" smooth="yes"/>
			<point x="871" y="516" type="line"/>
			<point x="900" y="522"/>
			<point x="914" y="536" type="qcurve"/>
			<point x="829" y="600" type="line"/>
			<point x="795" y="559" type="line"/>
			<point x="524" y="559" type="line"/>
			<point x="459" y="559" type="line"/>
			<point x="195" y="559" type="line"/>
			<point x="123" y="592" type="line"/>
			<point x="123" y="-78" type="line"/>
			<point x="134" y="-78" type="line" smooth="yes"/>
			<point x="154" y="-78"/>
			<point x="188" y="-60"/>
			<point x="188" y="-53" type="qcurve" smooth="yes"/>
			<point x="188" y="529" type="line"/>
			<point x="457" y="529" type="line"/>
			<point x="522" y="529" type="line"/>
		</contour>
		<contour>
			<point x="932" y="721" type="line" smooth="yes"/>
			<point x="955" y="721"/>
			<point x="958" y="737" type="qcurve"/>
			<point x="936" y="758"/>
			<point x="865" y="813"/>
			<point x="865" y="813" type="qcurve"/>
			<point x="813" y="751" type="line"/>
			<point x="43" y="751" type="line"/>
			<point x="52" y="721" type="line"/>
			<point x="460" y="721" type="line"/>
			<point x="525" y="721" type="line"/>
		</contour>
	</outline>
	<note>
丙三
</note>
</glyph>
<glyph name="春字头" format="2">
	<unicode hex="E064"/>
	<advance height="1880" width="1000"/>
	<outline>
		<contour>
			<point x="819" y="219"/>
			<point x="910" y="182" type="qcurve"/>
			<point x="920" y="219"/>
			<point x="970" y="234" type="qcurve"/>
			<point x="972" y="245" type="line"/>
			<point x="883" y="267"/>
			<point x="718" y="362"/>
			<point x="673" y="426" type="qcurve"/>
			<point x="933" y="426" type="line" smooth="yes"/>
			<point x="956" y="426"/>
			<point x="960" y="442" type="qcurve"/>
			<point x="938" y="462"/>
			<point x="869" y="516"/>
			<point x="869" y="516" type="qcurve"/>
			<point x="820" y="455" type="line"/>
			<point x="385" y="455" type="line"/>
			<point x="414" y="505"/>
			<point x="439" y="562" type="qcurve"/>
			<point x="838" y="562" type="line" smooth="yes"/>
			<point x="860" y="562"/>
			<point x="864" y="578" type="qcurve"/>
			<point x="844" y="597"/>
			<point x="779" y="648"/>
			<point x="779" y="648" type="qcurve"/>
			<point x="733" y="591" type="line"/>
			<point x="450" y="591" type="line"/>
			<point x="467" y="634"/>
			<point x="484" y="692" type="qcurve"/>
			<point x="891" y="692" type="line" smooth="yes"/>
			<point x="914" y="692"/>
			<point x="918" y="708" type="qcurve"/>
			<point x="896" y="728"/>
			<point x="829" y="781"/>
			<point x="829" y="781" type="qcurve"/>
			<point x="782" y="722" type="line"/>
			<point x="491" y="722" type="line"/>
			<point x="508" y="797" type="line"/>
			<point x="541" y="797"/>
			<point x="547" y="820" type="qcurve"/>
			<point x="437" y="843" type="line"/>
			<point x="426" y="770"/>
			<point x="414" y="722" type="qcurve"/>
			<point x="96" y="722" type="line"/>
			<point x="105" y="692" type="line"/>
			<point x="407" y="692" type="line"/>
			<point x="392" y="634"/>
			<point x="376" y="591" type="qcurve"/>
			<point x="144" y="591" type="line"/>
			<point x="152" y="562" type="line"/>
			<point x="365" y="562" type="line"/>
			<point x="340" y="501"/>
			<point x="314" y="455" type="qcurve"/>
			<point x="47" y="455" type="line"/>
			<point x="56" y="426" type="line"/>
			<point x="298" y="426" type="line"/>
			<point x="197" y="262"/>
			<point x="37" y="167" type="qcurve"/>
			<point x="47" y="156" type="line"/>
			<point x="176" y="215"/>
			<point x="269" y="307" type="qcurve" smooth="yes"/>
			<point x="338" y="381"/>
			<point x="367" y="426" type="qcurve"/>
			<point x="644" y="426" type="line"/>
			<point x="664" y="387"/>
			<point x="692" y="350" type="qcurve"/>
			<point x="748" y="287" type="line"/>
		</contour>
	</outline>
	<note>
春字头
</note>
</glyph>
<glyph name="左字框" format="2">
	<unicode hex="E068"/>
	<advance height="1880" width="1000"/>
	<outline>
		<contour>
			<point x="375" y="729"/>
			<point x="354" y="625" type="qcurve"/>
			<point x="51" y="625" type="line"/>
			<point x="59" y="595" type="line"/>
			<point x="347" y="595" type="line"/>
			<point x="305" y="409"/>
			<point x="152" y="88"/>
			<point x="35" y="-26" type="qcurve"/>
			<point x="49" y="-36" type="line"/>
			<point x="227" y="104"/>
			<point x="335" y="349" type="qcurve" smooth="yes"/>
			<point x="341" y="363" type="line" smooth="yes"/>
			<point x="385" y="467"/>
			<point x="418" y="595" type="qcurve"/>
			<point x="925" y="595" type="line" smooth="yes"/>
			<point x="948" y="595"/>
			<point x="952" y="611" type="qcurve"/>
			<point x="930" y="631"/>
			<point x="859" y="688"/>
			<point x="859" y="688" type="qcurve"/>
			<point x="810" y="625" type="line"/>
			<point x="426" y="625" type="line"/>
			<point x="445" y="708"/>
			<point x="460" y="799" type="qcurve"/>
			<point x="483" y="800"/>
			<point x="502" y="812"/>
			<point x="504" y="823" type="qcurve"/>
			<point x="388" y="838" type="line"/>
		</contour>
	</outline>
	<note>
左字框
</note>
</glyph>
<glyph name="卑六" format="2">
	<unicode hex="E069"/>
	<advance height="1880" width="1000"/>
	<outline>
		<contour>
			<point x="771" y="563" type="line"/>
			<point x="529" y="563" type="line"/>
			<point x="532" y="605"/>
			<point x="534" y="697" type="qcurve"/>
			<point x="771" y="697" type="line"/>
		</contour>
		<contour>
			<point x="460" y="836"/>
			<point x="429" y="726" type="qcurve"/>
			<point x="234" y="726" type="line"/>
			<point x="163" y="759" type="line"/>
			<point x="163" y="297" type="line"/>
			<point x="173" y="297" type="line" smooth="yes"/>
			<point x="192" y="297"/>
			<point x="228" y="313"/>
			<point x="228" y="319" type="qcurve" smooth="yes"/>
			<point x="228" y="367" type="line"/>
			<point x="419" y="367" type="line"/>
			<point x="392" y="312"/>
			<point x="291" y="225"/>
			<point x="210" y="191" type="qcurve"/>
			<point x="223" y="174" type="line"/>
			<point x="328" y="210"/>
			<point x="452" y="304"/>
			<point x="484" y="367" type="qcurve"/>
			<point x="771" y="367" type="line"/>
			<point x="771" y="305" type="line"/>
			<point x="781" y="305" type="line" smooth="yes"/>
			<point x="796" y="305"/>
			<point x="836" y="323"/>
			<point x="837" y="328" type="qcurve"/>
			<point x="837" y="685" type="line"/>
			<point x="869" y="691"/>
			<point x="880" y="704" type="qcurve"/>
			<point x="798" y="767" type="line"/>
			<point x="761" y="726" type="line"/>
			<point x="470" y="726" type="line"/>
			<point x="513" y="775"/>
			<point x="533" y="801" type="qcurve"/>
			<point x="566" y="801"/>
			<point x="572" y="823" type="qcurve"/>
			<point x="463" y="846" type="line"/>
		</contour>
		<contour>
			<point x="497" y="396" type="line"/>
			<point x="519" y="452"/>
			<point x="527" y="534" type="qcurve"/>
			<point x="771" y="534" type="line"/>
			<point x="771" y="396" type="line"/>
		</contour>
		<contour>
			<point x="228" y="534" type="line"/>
			<point x="460" y="534" type="line"/>
			<point x="454" y="458"/>
			<point x="432" y="396" type="qcurve"/>
			<point x="228" y="396" type="line"/>
		</contour>
		<contour>
			<point x="228" y="697" type="line"/>
			<point x="465" y="697" type="line"/>
			<point x="462" y="571"/>
			<point x="462" y="563" type="qcurve"/>
			<point x="228" y="563" type="line"/>
		</contour>
	</outline>
	<note>
卑六
</note>
</glyph>
<glyph name="叚字旁无二" format="2">
	<unicode hex="E06B"/>
	<advance height="1880" width="1000"/>
	<outline>
		<contour>
			<point x="400" y="744" type="line"/>
			<point x="400" y="565" type="line"/>
			<point x="183" y="565" type="line"/>
			<point x="183" y="744" type="line"/>
		</contour>
		<contour>
			<point x="118" y="-79" type="line"/>
			<point x="128" y="-79" type="line" smooth="yes"/>
			<point x="150" y="-79"/>
			<point x="183" y="-61"/>
			<point x="183" y="-56" type="qcurve" smooth="yes"/>
			<point x="183" y="160" type="line"/>
			<point x="183" y="189" type="line"/>
			<point x="183" y="348" type="line"/>
			<point x="183" y="377" type="line"/>
			<point x="183" y="536" type="line"/>
			<point x="400" y="536" type="line"/>
			<point x="400" y="477" type="line"/>
			<point x="410" y="477" type="line" smooth="yes"/>
			<point x="425" y="477"/>
			<point x="463" y="493"/>
			<point x="464" y="498" type="qcurve"/>
			<point x="464" y="732" type="line"/>
			<point x="494" y="738"/>
			<point x="506" y="752" type="qcurve"/>
			<point x="426" y="813" type="line"/>
			<point x="390" y="773" type="line"/>
			<point x="195" y="773" type="line"/>
			<point x="118" y="807" type="line"/>
			<point x="118" y="773" type="line"/>
		</contour>
	</outline>
	<note>
叚字旁无二
</note>
</glyph>
<glyph name="拣字边无七" format="2">
	<unicode hex="E06C"/>
	<advance height="1880" width="1000"/>
	<outline>
		<contour>
			<point x="759" y="241" type="line"/>
			<point x="807" y="187"/>
			<point x="888" y="50"/>
			<point x="897" y="-5" type="qcurve"/>
			<point x="926" y="-26"/>
			<point x="964" y="7"/>
			<point x="949" y="93"/>
			<point x="859" y="201"/>
			<point x="771" y="249" type="qcurve"/>
		</contour>
		<contour>
			<point x="475" y="260" type="line"/>
			<point x="443" y="178"/>
			<point x="345" y="28"/>
			<point x="294" y="-20" type="qcurve"/>
			<point x="306" y="-32" type="line"/>
			<point x="437" y="47"/>
			<point x="530" y="203" type="qcurve"/>
			<point x="562" y="199"/>
			<point x="569" y="218" type="qcurve"/>
		</contour>
		<contour>
			<point x="363" y="530" type="line"/>
			<point x="372" y="501" type="line"/>
			<point x="456" y="501" type="line"/>
			<point x="520" y="501" type="line"/>
			<point x="641" y="501" type="line"/>
			<point x="641" y="23" type="line" smooth="yes"/>
			<point x="641" y="13"/>
			<point x="633" y="4"/>
			<point x="621" y="4" type="qcurve" smooth="yes"/>
			<point x="610" y="4"/>
			<point x="522" y="11"/>
			<point x="522" y="11" type="qcurve"/>
			<point x="522" y="-5" type="line"/>
			<point x="571" y="-13"/>
			<point x="592" y="-29" type="qcurve" smooth="yes"/>
			<point x="606" y="-41"/>
			<point x="610" y="-77" type="qcurve"/>
			<point x="668" y="-71"/>
			<point x="704" y="-28"/>
			<point x="704" y="15" type="qcurve" smooth="yes"/>
			<point x="704" y="310" type="line"/>
			<point x="704" y="339" type="line"/>
			<point x="704" y="489" type="line"/>
			<point x="736" y="495"/>
			<point x="747" y="508" type="qcurve"/>
			<point x="664" y="571" type="line"/>
			<point x="631" y="530" type="line"/>
			<point x="531" y="530" type="line"/>
			<point x="466" y="530" type="line"/>
		</contour>
	</outline>
	<note>
拣字边无七
</note>
</glyph>
<glyph name="争字底" format="2">
	<unicode hex="E06D"/>
	<advance height="1880" width="1000"/>
	<outline>
		<contour>
			<point x="202" y="562" type="line"/>
			<point x="211" y="533" type="line"/>
			<point x="452" y="533" type="line"/>
			<point x="452" y="396" type="line"/>
			<point x="40" y="396" type="line"/>
			<point x="49" y="367" type="line"/>
			<point x="452" y="367" type="line"/>
			<point x="452" y="223" type="line"/>
			<point x="140" y="223" type="line"/>
			<point x="149" y="194" type="line"/>
			<point x="452" y="194" type="line"/>
			<point x="452" y="23" type="line" smooth="yes"/>
			<point x="452" y="11"/>
			<point x="439" y="1"/>
			<point x="422" y="1" type="qcurve" smooth="yes"/>
			<point x="405" y="1"/>
			<point x="258" y="10"/>
			<point x="258" y="10" type="qcurve"/>
			<point x="258" y="-5" type="line"/>
			<point x="344" y="-15"/>
			<point x="369" y="-32" type="qcurve"/>
			<point x="392" y="-44"/>
			<point x="397" y="-78" type="qcurve"/>
			<point x="470" y="-72"/>
			<point x="518" y="-24"/>
			<point x="518" y="20" type="qcurve" smooth="yes"/>
			<point x="518" y="194" type="line"/>
			<point x="744" y="194" type="line"/>
			<point x="744" y="120" type="line"/>
			<point x="754" y="120" type="line" smooth="yes"/>
			<point x="770" y="120"/>
			<point x="809" y="136"/>
			<point x="810" y="142" type="qcurve"/>
			<point x="810" y="367" type="line"/>
			<point x="944" y="367" type="line" smooth="yes"/>
			<point x="966" y="367"/>
			<point x="969" y="382" type="qcurve"/>
			<point x="950" y="402"/>
			<point x="884" y="456"/>
			<point x="884" y="456" type="qcurve"/>
			<point x="838" y="396" type="line"/>
			<point x="810" y="396" type="line"/>
			<point x="810" y="521" type="line"/>
			<point x="838" y="527"/>
			<point x="851" y="540" type="qcurve"/>
			<point x="771" y="602" type="line"/>
			<point x="734" y="562" type="line"/>
			<point x="499" y="562" type="line"/>
			<point x="471" y="561" type="line"/>
		</contour>
		<contour>
			<point x="744" y="223" type="line"/>
			<point x="518" y="223" type="line"/>
			<point x="518" y="367" type="line"/>
			<point x="744" y="367" type="line"/>
		</contour>
		<contour>
			<point x="518" y="396" type="line"/>
			<point x="518" y="533" type="line"/>
			<point x="744" y="533" type="line"/>
			<point x="744" y="396" type="line"/>
		</contour>
	</outline>
	<note>
争字底
</note>
</glyph>
<glyph name="妻字头无横" format="2">
	<unicode hex="E06E"/>
	<advance height="1880" width="1000"/>
	<outline>
		<contour>
			<point x="525" y="388" type="line"/>
			<point x="525" y="478" type="line"/>
			<point x="736" y="478" type="line"/>
			<point x="736" y="388" type="line"/>
		</contour>
		<contour>
			<point x="847" y="508" type="line"/>
			<point x="798" y="508" type="line"/>
			<point x="798" y="585" type="line"/>
			<point x="829" y="590"/>
			<point x="840" y="604" type="qcurve"/>
			<point x="762" y="664" type="line"/>
			<point x="726" y="625" type="line"/>
			<point x="525" y="625" type="line"/>
			<point x="525" y="711" type="line"/>
			<point x="525" y="740" type="line"/>
			<point x="525" y="802" type="line"/>
			<point x="557" y="807"/>
			<point x="562" y="829" type="qcurve"/>
			<point x="460" y="840" type="line"/>
			<point x="460" y="740" type="line"/>
			<point x="460" y="711" type="line"/>
			<point x="460" y="625" type="line"/>
			<point x="157" y="625" type="line"/>
			<point x="166" y="596" type="line"/>
			<point x="460" y="596" type="line"/>
			<point x="460" y="508" type="line"/>
			<point x="41" y="508" type="line"/>
			<point x="50" y="478" type="line"/>
			<point x="460" y="478" type="line"/>
			<point x="460" y="388" type="line"/>
			<point x="150" y="388" type="line"/>
			<point x="159" y="358" type="line"/>
			<point x="736" y="358" type="line"/>
			<point x="736" y="314" type="line"/>
			<point x="745" y="314" type="line" smooth="yes"/>
			<point x="760" y="314"/>
			<point x="797" y="330"/>
			<point x="798" y="336" type="qcurve"/>
			<point x="798" y="478" type="line"/>
			<point x="944" y="478" type="line" smooth="yes"/>
			<point x="966" y="478"/>
			<point x="970" y="494" type="qcurve"/>
			<point x="952" y="513"/>
			<point x="890" y="565"/>
			<point x="890" y="565" type="qcurve"/>
		</contour>
		<contour>
			<point x="736" y="508" type="line"/>
			<point x="525" y="508" type="line"/>
			<point x="525" y="596" type="line"/>
			<point x="736" y="596" type="line"/>
		</contour>
	</outline>
	<note>
妻字头无横
</note>
</glyph>
<glyph name="临下角" format="2">
	<unicode hex="E070"/>
	<advance height="1880" width="1000"/>
	<outline>
		<contour>
			<point x="638" y="37" type="line"/>
			<point x="489" y="37" type="line"/>
			<point x="489" y="353" type="line"/>
			<point x="638" y="353" type="line"/>
		</contour>
		<contour>
			<point x="841" y="353" type="line"/>
			<point x="841" y="37" type="line"/>
			<point x="698" y="37" type="line"/>
			<point x="698" y="353" type="line"/>
		</contour>
		<contour>
			<point x="489" y="8" type="line"/>
			<point x="841" y="8" type="line"/>
			<point x="841" y="-64" type="line"/>
			<point x="851" y="-64" type="line" smooth="yes"/>
			<point x="866" y="-64"/>
			<point x="904" y="-47"/>
			<point x="905" y="-43" type="qcurve"/>
			<point x="905" y="348" type="line"/>
			<point x="927" y="351"/>
			<point x="937" y="363" type="qcurve"/>
			<point x="867" y="419" type="line"/>
			<point x="833" y="383" type="line"/>
			<point x="494" y="383" type="line"/>
			<point x="427" y="414" type="line"/>
			<point x="427" y="-75" type="line"/>
			<point x="437" y="-75" type="line" smooth="yes"/>
			<point x="456" y="-75"/>
			<point x="489" y="-59"/>
			<point x="489" y="-53" type="qcurve" smooth="yes"/>
		</contour>
	</outline>
	<note>
临下角
</note>
</glyph>
<glyph name="囊字头" format="2">
	<unicode hex="E072"/>
	<advance height="1880" width="1000"/>
	<outline>
		<contour>
			<point x="466" y="839" type="line"/>
			<point x="466" y="771" type="line"/>
			<point x="53" y="771" type="line"/>
			<point x="61" y="743" type="line"/>
			<point x="466" y="743" type="line"/>
			<point x="466" y="703" type="line"/>
			<point x="264" y="703" type="line"/>
			<point x="200" y="732" type="line"/>
			<point x="200" y="570" type="line"/>
			<point x="209" y="570" type="line" smooth="yes"/>
			<point x="225" y="570"/>
			<point x="258" y="583"/>
			<point x="258" y="588" type="qcurve" smooth="yes"/>
			<point x="258" y="597" type="line"/>
			<point x="466" y="597" type="line"/>
			<point x="466" y="557" type="line"/>
			<point x="154" y="557" type="line"/>
			<point x="152" y="576"/>
			<point x="147" y="593" type="qcurve"/>
			<point x="130" y="593" type="line"/>
			<point x="130" y="566"/>
			<point x="97" y="516"/>
			<point x="75" y="506" type="qcurve" smooth="yes"/>
			<point x="58" y="498"/>
			<point x="43" y="472"/>
			<point x="49" y="456" type="qcurve" smooth="yes"/>
			<point x="55" y="440"/>
			<point x="94" y="434"/>
			<point x="111" y="444" type="qcurve" smooth="yes"/>
			<point x="129" y="455"/>
			<point x="154" y="498"/>
			<point x="155" y="528" type="qcurve"/>
			<point x="863" y="528" type="line"/>
			<point x="844" y="455" type="line"/>
			<point x="857" y="450" type="line"/>
			<point x="900" y="478"/>
			<point x="935" y="517" type="qcurve"/>
			<point x="962" y="517"/>
			<point x="972" y="526" type="qcurve"/>
			<point x="899" y="597" type="line"/>
			<point x="858" y="557" type="line"/>
			<point x="531" y="557" type="line"/>
			<point x="531" y="597" type="line"/>
			<point x="737" y="597" type="line"/>
			<point x="737" y="576" type="line"/>
			<point x="746" y="576" type="line" smooth="yes"/>
			<point x="760" y="576"/>
			<point x="794" y="591"/>
			<point x="795" y="597" type="qcurve"/>
			<point x="795" y="668" type="line"/>
			<point x="818" y="672"/>
			<point x="828" y="683" type="qcurve"/>
			<point x="761" y="735" type="line"/>
			<point x="729" y="703" type="line"/>
			<point x="531" y="703" type="line"/>
			<point x="531" y="743" type="line"/>
			<point x="925" y="743" type="line" smooth="yes"/>
			<point x="948" y="743"/>
			<point x="952" y="759" type="qcurve"/>
			<point x="931" y="777"/>
			<point x="867" y="825"/>
			<point x="867" y="825" type="qcurve"/>
			<point x="822" y="771" type="line"/>
			<point x="531" y="771" type="line"/>
			<point x="531" y="801" type="line"/>
			<point x="565" y="806"/>
			<point x="568" y="828" type="qcurve"/>
		</contour>
		<contour>
			<point x="531" y="626" type="line"/>
			<point x="531" y="675" type="line"/>
			<point x="737" y="675" type="line"/>
			<point x="737" y="626" type="line"/>
		</contour>
		<contour>
			<point x="258" y="675" type="line"/>
			<point x="466" y="675" type="line"/>
			<point x="466" y="626" type="line"/>
			<point x="258" y="626" type="line"/>
		</contour>
	</outline>
	<note>
囊字头
</note>
</glyph>
<glyph name="步字底" format="2">
	<unicode hex="E073"/>
	<advance height="1880" width="1000"/>
	<outline>
		<contour>
			<point x="469" y="421" type="line"/>
			<point x="469" y="109" type="line"/>
			<point x="479" y="109" type="line" smooth="yes"/>
			<point x="498" y="109"/>
			<point x="535" y="127"/>
			<point x="535" y="134" type="qcurve" smooth="yes"/>
			<point x="535" y="384" type="line"/>
			<point x="569" y="388"/>
			<point x="571" y="411" type="qcurve"/>
		</contour>
		<contour>
			<point x="777" y="382" type="line"/>
			<point x="694" y="234"/>
			<point x="481" y="59"/>
			<point x="234" y="-30"/>
			<point x="60" y="-62" type="qcurve"/>
			<point x="64" y="-82" type="line"/>
			<point x="246" y="-63"/>
			<point x="507" y="13"/>
			<point x="732" y="178"/>
			<point x="826" y="322" type="qcurve"/>
			<point x="862" y="313"/>
			<point x="871" y="330" type="qcurve"/>
		</contour>
		<contour>
			<point x="282" y="396" type="line"/>
			<point x="250" y="331"/>
			<point x="128" y="184"/>
			<point x="62" y="136" type="qcurve"/>
			<point x="72" y="122" type="line"/>
			<point x="150" y="161"/>
			<point x="292" y="282"/>
			<point x="336" y="340" type="qcurve"/>
			<point x="352" y="337"/>
			<point x="368" y="343"/>
			<point x="374" y="351" type="qcurve"/>
		</contour>
	</outline>
	<note>
步字底
</note>
</glyph>
<glyph name="段字旁" format="2">
	<unicode hex="E075"/>
	<advance height="1880" width="1000"/>
	<outline>
		<contour>
			<point x="306" y="564" type="line"/>
			<point x="193" y="564" type="line"/>
			<point x="193" y="702" type="line"/>
			<point x="311" y="728"/>
			<point x="418" y="769" type="qcurve"/>
			<point x="443" y="761"/>
			<point x="452" y="773" type="qcurve"/>
			<point x="369" y="835" type="line"/>
			<point x="305" y="789"/>
			<point x="205" y="736" type="qcurve"/>
			<point x="130" y="770" type="line"/>
			<point x="130" y="166" type="line"/>
			<point x="70" y="152"/>
			<point x="26" y="145" type="qcurve"/>
			<point x="68" y="60" type="line"/>
			<point x="83" y="66"/>
			<point x="91" y="85" type="qcurve"/>
			<point x="130" y="99" type="line"/>
			<point x="130" y="-78" type="line"/>
			<point x="139" y="-78" type="line" smooth="yes"/>
			<point x="163" y="-78"/>
			<point x="192" y="-63"/>
			<point x="193" y="-57" type="qcurve"/>
			<point x="193" y="122" type="line"/>
			<point x="295" y="160"/>
			<point x="453" y="225" type="qcurve"/>
			<point x="449" y="241" type="line"/>
			<point x="193" y="180" type="line"/>
			<point x="193" y="345" type="line"/>
			<point x="404" y="345" type="line" smooth="yes"/>
			<point x="426" y="345"/>
			<point x="430" y="361" type="qcurve"/>
			<point x="411" y="379"/>
			<point x="350" y="430"/>
			<point x="350" y="430" type="qcurve"/>
			<point x="307" y="374" type="line"/>
			<point x="193" y="374" type="line"/>
			<point x="193" y="534" type="line"/>
			<point x="400" y="534" type="line" smooth="yes"/>
			<point x="423" y="534"/>
			<point x="427" y="550" type="qcurve"/>
			<point x="408" y="568"/>
			<point x="348" y="618"/>
			<point x="348" y="618" type="qcurve"/>
		</contour>
	</outline>
	<note>
段字旁
</note>
</glyph>
<glyph name="卧人" format="2">
	<unicode hex="E078"/>
	<advance height="1880" width="1000"/>
	<outline>
		<contour>
			<point x="757" y="721" type="line"/>
			<point x="297" y="721" type="line"/>
			<point x="313" y="747"/>
			<point x="331" y="779" type="qcurve"/>
			<point x="361" y="775"/>
			<point x="370" y="795" type="qcurve"/>
			<point x="272" y="837" type="line"/>
			<point x="236" y="737"/>
			<point x="118" y="561"/>
			<point x="54" y="505" type="qcurve"/>
			<point x="67" y="492" type="line"/>
			<point x="187" y="564"/>
			<point x="278" y="692" type="qcurve"/>
			<point x="868" y="692" type="line" smooth="yes"/>
			<point x="890" y="692"/>
			<point x="894" y="708" type="qcurve"/>
			<point x="873" y="727"/>
			<point x="804" y="781"/>
			<point x="804" y="781" type="qcurve"/>
		</contour>
	</outline>
	<note>
卧人
</note>
</glyph>
<glyph name="比字旁" format="2">
	<unicode hex="E079"/>
	<advance height="1880" width="1000"/>
	<outline>
		<contour>
			<point x="361" y="481" type="line"/>
			<point x="222" y="481" type="line"/>
			<point x="222" y="784" type="line"/>
			<point x="260" y="790"/>
			<point x="264" y="815" type="qcurve"/>
			<point x="158" y="826" type="line"/>
			<point x="158" y="50" type="line" smooth="yes"/>
			<point x="158" y="35"/>
			<point x="145" y="19"/>
			<point x="120" y="2" type="qcurve"/>
			<point x="171" y="-66" type="line"/>
			<point x="184" y="-55"/>
			<point x="189" y="-40" type="qcurve"/>
			<point x="387" y="57"/>
			<point x="499" y="115" type="qcurve"/>
			<point x="494" y="131" type="line"/>
			<point x="304" y="64"/>
			<point x="222" y="37" type="qcurve"/>
			<point x="222" y="451" type="line"/>
			<point x="472" y="451" type="line" smooth="yes"/>
			<point x="495" y="451"/>
			<point x="498" y="467" type="qcurve"/>
			<point x="477" y="488"/>
			<point x="410" y="546"/>
			<point x="410" y="546" type="qcurve"/>
		</contour>
	</outline>
	<note>
比字旁
</note>
</glyph>
<glyph name="韦无二" format="2">
	<unicode hex="E07B"/>
	<advance height="1880" width="1000"/>
	<outline>
		<contour>
			<point x="459" y="517" type="line"/>
			<point x="459" y="488" type="line"/>
			<point x="459" y="341" type="line"/>
			<point x="64" y="341" type="line"/>
			<point x="73" y="311" type="line"/>
			<point x="459" y="311" type="line"/>
			<point x="459" y="-80" type="line"/>
			<point x="472" y="-80" type="line" smooth="yes"/>
			<point x="491" y="-80"/>
			<point x="526" y="-61"/>
			<point x="526" y="-53" type="qcurve" smooth="yes"/>
			<point x="526" y="311" type="line"/>
			<point x="823" y="311" type="line"/>
			<point x="814" y="127"/>
			<point x="792" y="106" type="qcurve" smooth="yes"/>
			<point x="783" y="97"/>
			<point x="757" y="97" type="qcurve" smooth="yes"/>
			<point x="714" y="97"/>
			<point x="599" y="109" type="qcurve"/>
			<point x="598" y="92" type="line"/>
			<point x="690" y="77"/>
			<point x="709" y="64" type="qcurve" smooth="yes"/>
			<point x="730" y="52"/>
			<point x="730" y="20" type="qcurve"/>
			<point x="761" y="20"/>
			<point x="816" y="35"/>
			<point x="833" y="48" type="qcurve" smooth="yes"/>
			<point x="858" y="70"/>
			<point x="883" y="200"/>
			<point x="886" y="304" type="qcurve"/>
			<point x="914" y="307"/>
			<point x="924" y="318" type="qcurve"/>
			<point x="851" y="379" type="line"/>
			<point x="813" y="341" type="line"/>
			<point x="526" y="341" type="line"/>
			<point x="526" y="488" type="line"/>
			<point x="526" y="517" type="line"/>
			<point x="526" y="662" type="line"/>
			<point x="526" y="691" type="line"/>
			<point x="526" y="798" type="line"/>
			<point x="544" y="801"/>
			<point x="560" y="814"/>
			<point x="562" y="825" type="qcurve"/>
			<point x="459" y="837" type="line"/>
			<point x="459" y="691" type="line"/>
			<point x="459" y="662" type="line"/>
		</contour>
	</outline>
	<note>
韦无二
</note>
</glyph>
<glyph name="旅下角" format="2">
	<unicode hex="E07E"/>
	<advance height="1880" width="1000"/>
	<outline>
		<contour>
			<point x="824" y="604" type="line"/>
			<point x="729" y="549"/>
			<point x="586" y="508" type="qcurve"/>
			<point x="490" y="538" type="line"/>
			<point x="490" y="47" type="line" smooth="yes"/>
			<point x="490" y="34"/>
			<point x="474" y="17"/>
			<point x="444" y="0" type="qcurve"/>
			<point x="487" y="-77" type="line"/>
			<point x="500" y="-71"/>
			<point x="509" y="-52" type="qcurve"/>
			<point x="560" y="-25"/>
			<point x="525" y="-46"/>
			<point x="705" y="63" type="qcurve"/>
			<point x="701" y="78" type="line"/>
			<point x="629" y="54"/>
			<point x="553" y="32" type="qcurve"/>
			<point x="553" y="477" type="line"/>
			<point x="594" y="481"/>
			<point x="647" y="491" type="qcurve"/>
			<point x="671" y="295"/>
			<point x="796" y="7"/>
			<point x="908" y="-71" type="qcurve"/>
			<point x="926" y="-21"/>
			<point x="966" y="-12" type="qcurve"/>
			<point x="968" y="-2" type="line"/>
			<point x="822" y="72"/>
			<point x="735" y="268" type="qcurve"/>
			<point x="841" y="336"/>
			<point x="906" y="394" type="qcurve"/>
			<point x="919" y="388"/>
			<point x="943" y="394"/>
			<point x="947" y="401" type="qcurve"/>
			<point x="866" y="458" type="line"/>
			<point x="816" y="384"/>
			<point x="726" y="290" type="qcurve"/>
			<point x="690" y="380"/>
			<point x="667" y="494" type="qcurve"/>
			<point x="798" y="518"/>
			<point x="865" y="545" type="qcurve"/>
			<point x="888" y="534"/>
			<point x="899" y="546" type="qcurve"/>
		</contour>
	</outline>
	<note>
旅下角
</note>
</glyph>
<glyph name="荒字底" format="2">
	<unicode hex="E07F"/>
	<advance height="1880" width="1000"/>
	<outline>
		<contour>
			<point x="688" y="309" type="line"/>
			<point x="688" y="6" type="line" smooth="yes"/>
			<point x="688" y="-30"/>
			<point x="716" y="-56"/>
			<point x="762" y="-56" type="qcurve" smooth="yes"/>
			<point x="832" y="-56" type="line" smooth="yes"/>
			<point x="913" y="-56"/>
			<point x="971" y="-38"/>
			<point x="971" y="-16" type="qcurve" smooth="yes"/>
			<point x="971" y="-6"/>
			<point x="960" y="6"/>
			<point x="946" y="12" type="qcurve"/>
			<point x="943" y="140" type="line"/>
			<point x="931" y="140" type="line"/>
			<point x="911" y="33"/>
			<point x="904" y="16" type="qcurve" smooth="yes"/>
			<point x="900" y="4"/>
			<point x="888" y="4" type="qcurve" smooth="yes"/>
			<point x="881" y="3"/>
			<point x="835" y="3" type="qcurve" smooth="yes"/>
			<point x="778" y="3" type="line" smooth="yes"/>
			<point x="760" y="3"/>
			<point x="751" y="9"/>
			<point x="751" y="19" type="qcurve" smooth="yes"/>
			<point x="751" y="275" type="line"/>
			<point x="778" y="278"/>
			<point x="781" y="299" type="qcurve"/>
		</contour>
		<contour>
			<point x="244" y="308" type="line"/>
			<point x="244" y="205" type="line" smooth="yes"/>
			<point x="244" y="120"/>
			<point x="158" y="-16"/>
			<point x="44" y="-63" type="qcurve"/>
			<point x="54" y="-75" type="line"/>
			<point x="200" y="-34"/>
			<point x="308" y="111"/>
			<point x="310" y="203" type="qcurve" smooth="yes"/>
			<point x="310" y="274" type="line"/>
			<point x="339" y="277"/>
			<point x="343" y="298" type="qcurve"/>
		</contour>
		<contour>
			<point x="456" y="300" type="line"/>
			<point x="456" y="-40" type="line"/>
			<point x="468" y="-40" type="line" smooth="yes"/>
			<point x="486" y="-40"/>
			<point x="520" y="-25"/>
			<point x="520" y="-19" type="qcurve" smooth="yes"/>
			<point x="520" y="263" type="line"/>
			<point x="553" y="267"/>
			<point x="556" y="289" type="qcurve"/>
		</contour>
	</outline>
	<note>
荒字底
</note>
</glyph>
<glyph name="芈二" format="2">
	<unicode hex="E081"/>
	<advance height="1880" width="1000"/>
	<outline>
		<contour>
			<point x="321" y="770" type="line"/>
			<point x="351" y="774"/>
			<point x="356" y="797" type="qcurve"/>
			<point x="257" y="808" type="line"/>
			<point x="257" y="639" type="line"/>
			<point x="51" y="639" type="line"/>
			<point x="60" y="610" type="line"/>
			<point x="257" y="610" type="line"/>
			<point x="257" y="388" type="line"/>
			<point x="321" y="388" type="line"/>
		</contour>
	</outline>
	<note>
芈二
</note>
</glyph>
<glyph name="然左角" format="2">
	<unicode hex="E083"/>
	<advance height="1880" width="1000"/>
	<outline>
		<contour>
			<point x="494" y="626"/>
			<point x="508" y="669" type="qcurve"/>
			<point x="539" y="670"/>
			<point x="549" y="682" type="qcurve"/>
			<point x="478" y="747" type="line"/>
			<point x="436" y="706" type="line"/>
			<point x="275" y="706" type="line"/>
			<point x="291" y="737"/>
			<point x="313" y="790" type="qcurve"/>
			<point x="345" y="788"/>
			<point x="351" y="808" type="qcurve"/>
			<point x="255" y="841" type="line"/>
			<point x="220" y="721"/>
			<point x="101" y="504"/>
			<point x="34" y="433" type="qcurve"/>
			<point x="47" y="422" type="line"/>
			<point x="84" y="449"/>
			<point x="127" y="493" type="qcurve"/>
			<point x="158" y="468"/>
			<point x="211" y="402"/>
			<point x="219" y="373" type="qcurve"/>
			<point x="250" y="357"/>
			<point x="277" y="403"/>
			<point x="218" y="483"/>
			<point x="138" y="505" type="qcurve"/>
			<point x="176" y="546"/>
			<point x="212" y="599" type="qcurve"/>
			<point x="244" y="579"/>
			<point x="297" y="526"/>
			<point x="307" y="502" type="qcurve"/>
			<point x="338" y="489"/>
			<point x="361" y="534"/>
			<point x="301" y="602"/>
			<point x="224" y="616" type="qcurve"/>
			<point x="237" y="636"/>
			<point x="261" y="678" type="qcurve"/>
			<point x="439" y="678" type="line"/>
			<point x="395" y="508"/>
			<point x="197" y="229"/>
			<point x="44" y="142" type="qcurve"/>
			<point x="55" y="127" type="line"/>
			<point x="353" y="261"/>
			<point x="478" y="580" type="qcurve"/>
			<point x="478" y="582" type="line"/>
		</contour>
	</outline>
	<note>
然左角
</note>
</glyph>
<glyph name="飞无折" format="2">
	<unicode hex="E088"/>
	<advance height="1880" width="1000"/>
	<outline>
		<contour>
			<point x="642" y="399"/>
			<point x="806" y="270"/>
			<point x="842" y="215" type="qcurve"/>
			<point x="876" y="204"/>
			<point x="903" y="244"/>
			<point x="864" y="322"/>
			<point x="741" y="409"/>
			<point x="637" y="443" type="qcurve"/>
			<point x="781" y="554"/>
			<point x="889" y="654" type="qcurve"/>
			<point x="916" y="645"/>
			<point x="925" y="659" type="qcurve"/>
			<point x="842" y="725" type="line"/>
			<point x="743" y="592"/>
			<point x="616" y="449" type="qcurve"/>
			<point x="559" y="465" type="line"/>
			<point x="560" y="443" type="line"/>
		</contour>
	</outline>
	<note>
飞无折
</note>
</glyph>
<glyph name="刀中" format="2">
	<unicode hex="E089"/>
	<advance height="1880" width="1000"/>
	<outline>
		<contour>
			<point x="486" y="417" type="line" smooth="yes"/>
			<point x="486" y="254"/>
			<point x="396" y="19"/>
			<point x="281" y="-64" type="qcurve"/>
			<point x="294" y="-77" type="line"/>
			<point x="436" y="1"/>
			<point x="546" y="246"/>
			<point x="547" y="417" type="qcurve" smooth="yes"/>
			<point x="547" y="790" type="line"/>
			<point x="579" y="795"/>
			<point x="581" y="818" type="qcurve"/>
			<point x="486" y="828" type="line"/>
		</contour>
		<contour>
			<point x="378" y="563"/>
			<point x="350" y="402"/>
			<point x="322" y="362" type="qcurve" smooth="yes"/>
			<point x="310" y="346"/>
			<point x="307" y="313"/>
			<point x="318" y="304" type="qcurve" smooth="yes"/>
			<point x="332" y="293"/>
			<point x="375" y="316"/>
			<point x="387" y="341" type="qcurve" smooth="yes"/>
			<point x="409" y="385"/>
			<point x="417" y="547"/>
			<point x="388" y="644" type="qcurve"/>
			<point x="369" y="644" type="line"/>
		</contour>
	</outline>
	<note>
刀中
</note>
</glyph>
<glyph name="甬字底" format="2">
	<unicode hex="E08C"/>
	<advance height="1880" width="1000"/>
	<outline>
		<contour>
			<point x="232" y="539" type="line"/>
			<point x="155" y="572" type="line"/>
			<point x="155" y="-78" type="line"/>
			<point x="165" y="-78" type="line" smooth="yes"/>
			<point x="187" y="-78"/>
			<point x="219" y="-61"/>
			<point x="219" y="-56" type="qcurve" smooth="yes"/>
			<point x="219" y="171" type="line"/>
			<point x="463" y="171" type="line"/>
			<point x="463" y="-70" type="line"/>
			<point x="473" y="-70" type="line" smooth="yes"/>
			<point x="495" y="-70"/>
			<point x="527" y="-54"/>
			<point x="527" y="-50" type="qcurve" smooth="yes"/>
			<point x="527" y="171" type="line"/>
			<point x="775" y="171" type="line"/>
			<point x="775" y="26" type="line" smooth="yes"/>
			<point x="775" y="15"/>
			<point x="765" y="6"/>
			<point x="752" y="6" type="qcurve" smooth="yes"/>
			<point x="740" y="6"/>
			<point x="638" y="13"/>
			<point x="638" y="13" type="qcurve"/>
			<point x="638" y="-3" type="line"/>
			<point x="698" y="-12"/>
			<point x="718" y="-27" type="qcurve"/>
			<point x="734" y="-42"/>
			<point x="739" y="-76" type="qcurve"/>
			<point x="802" y="-70"/>
			<point x="840" y="-26"/>
			<point x="840" y="18" type="qcurve" smooth="yes"/>
			<point x="840" y="495" type="line"/>
			<point x="873" y="500"/>
			<point x="888" y="516" type="qcurve"/>
			<point x="800" y="582" type="line"/>
			<point x="764" y="539" type="line"/>
			<point x="598" y="539" type="line"/>
			<point x="556" y="539" type="line"/>
		</contour>
		<contour>
			<point x="463" y="369" type="line"/>
			<point x="219" y="369" type="line"/>
			<point x="219" y="510" type="line"/>
			<point x="463" y="510" type="line"/>
		</contour>
		<contour>
			<point x="775" y="510" type="line"/>
			<point x="775" y="369" type="line"/>
			<point x="527" y="369" type="line"/>
			<point x="527" y="510" type="line"/>
		</contour>
		<contour>
			<point x="463" y="200" type="line"/>
			<point x="219" y="200" type="line"/>
			<point x="219" y="341" type="line"/>
			<point x="463" y="341" type="line"/>
		</contour>
		<contour>
			<point x="775" y="341" type="line"/>
			<point x="775" y="200" type="line"/>
			<point x="527" y="200" type="line"/>
			<point x="527" y="341" type="line"/>
		</contour>
	</outline>
	<note>
甬字底
</note>
</glyph>
<glyph name="疏字旁" format="2">
	<unicode hex="E091"/>
	<advance height="1880" width="1000"/>
	<outline>
		<contour>
			<point x="88" y="513" type="line"/>
			<point x="88" y="86" type="line"/>
			<point x="34" y="74" type="line"/>
			<point x="77" y="-10" type="line"/>
			<point x="93" y="-4"/>
			<point x="99" y="15" type="qcurve"/>
			<point x="236" y="71"/>
			<point x="432" y="160" type="qcurve"/>
			<point x="428" y="175" type="line"/>
			<point x="271" y="132" type="line"/>
			<point x="271" y="373" type="line"/>
			<point x="395" y="373" type="line" smooth="yes"/>
			<point x="416" y="373"/>
			<point x="419" y="389" type="qcurve"/>
			<point x="403" y="406"/>
			<point x="350" y="454"/>
			<point x="350" y="454" type="qcurve"/>
			<point x="313" y="402" type="line"/>
			<point x="271" y="402" type="line"/>
			<point x="271" y="574" type="line"/>
			<point x="301" y="577"/>
			<point x="304" y="598" type="qcurve"/>
			<point x="279" y="601" type="line"/>
			<point x="346" y="658"/>
			<point x="397" y="707" type="qcurve"/>
			<point x="426" y="707"/>
			<point x="437" y="716" type="qcurve"/>
			<point x="366" y="783" type="line"/>
			<point x="325" y="744" type="line"/>
			<point x="58" y="744" type="line"/>
			<point x="67" y="714" type="line"/>
			<point x="319" y="714" type="line"/>
			<point x="282" y="647"/>
			<point x="254" y="603" type="qcurve"/>
			<point x="211" y="608" type="line"/>
			<point x="211" y="117" type="line"/>
			<point x="144" y="99" type="line"/>
			<point x="144" y="480" type="line"/>
			<point x="173" y="483"/>
			<point x="175" y="503" type="qcurve"/>
		</contour>
	</outline>
	<note>
疏字旁
</note>
</glyph>
<glyph name="屯无横" format="2">
	<unicode hex="E092"/>
	<advance height="1880" width="1000"/>
	<outline>
		<contour>
			<point x="759" y="551" type="line"/>
			<point x="759" y="255" type="line"/>
			<point x="521" y="255" type="line"/>
			<point x="521" y="618" type="line"/>
			<point x="521" y="648" type="line"/>
			<point x="521" y="798" type="line"/>
			<point x="555" y="803"/>
			<point x="558" y="826" type="qcurve"/>
			<point x="455" y="837" type="line"/>
			<point x="455" y="648" type="line"/>
			<point x="455" y="618" type="line"/>
			<point x="455" y="255" type="line"/>
			<point x="224" y="255" type="line"/>
			<point x="224" y="518" type="line"/>
			<point x="257" y="522"/>
			<point x="260" y="544" type="qcurve"/>
			<point x="160" y="556" type="line"/>
			<point x="160" y="262" type="line"/>
			<point x="143" y="254"/>
			<point x="127" y="240" type="qcurve"/>
			<point x="208" y="193" type="line"/>
			<point x="232" y="226" type="line"/>
			<point x="455" y="226" type="line"/>
			<point x="455" y="33" type="line" smooth="yes"/>
			<point x="455" y="-18"/>
			<point x="510" y="-56"/>
			<point x="582" y="-56" type="qcurve" smooth="yes"/>
			<point x="716" y="-56" type="line" smooth="yes"/>
			<point x="819" y="-56"/>
			<point x="916" y="-50"/>
			<point x="954" y="-32"/>
			<point x="954" y="-14" type="qcurve" smooth="yes"/>
			<point x="954" y="6"/>
			<point x="921" y="16" type="qcurve"/>
			<point x="918" y="191" type="line"/>
			<point x="904" y="191" type="line"/>
			<point x="881" y="52"/>
			<point x="867" y="20" type="qcurve"/>
			<point x="859" y="8"/>
			<point x="840" y="5" type="qcurve" smooth="yes"/>
			<point x="812" y="2"/>
			<point x="717" y="2" type="qcurve" smooth="yes"/>
			<point x="588" y="2" type="line" smooth="yes"/>
			<point x="548" y="2"/>
			<point x="521" y="21"/>
			<point x="521" y="45" type="qcurve" smooth="yes"/>
			<point x="521" y="226" type="line"/>
			<point x="759" y="226" type="line"/>
			<point x="759" y="163" type="line"/>
			<point x="771" y="163" type="line" smooth="yes"/>
			<point x="789" y="163"/>
			<point x="824" y="179"/>
			<point x="824" y="185" type="qcurve" smooth="yes"/>
			<point x="824" y="513" type="line"/>
			<point x="858" y="518"/>
			<point x="861" y="540" type="qcurve"/>
		</contour>
	</outline>
	<note>
屯无横
</note>
</glyph>
<glyph name="美字头" format="2">
	<unicode hex="E093"/>
	<advance height="1880" width="1000"/>
	<outline>
		<contour>
			<point x="614" y="745"/>
			<point x="574" y="678" type="qcurve"/>
			<point x="377" y="678" type="line"/>
			<point x="402" y="680"/>
			<point x="415" y="740"/>
			<point x="353" y="811"/>
			<point x="279" y="833" type="qcurve"/>
			<point x="268" y="827" type="line"/>
			<point x="296" y="799"/>
			<point x="343" y="721"/>
			<point x="349" y="688" type="qcurve"/>
			<point x="362" y="678"/>
			<point x="375" y="678" type="qcurve" smooth="yes"/>
			<point x="112" y="678" type="line"/>
			<point x="121" y="648" type="line"/>
			<point x="463" y="648" type="line"/>
			<point x="463" y="535" type="line"/>
			<point x="163" y="535" type="line"/>
			<point x="171" y="506" type="line"/>
			<point x="463" y="506" type="line"/>
			<point x="463" y="387" type="line"/>
			<point x="67" y="387" type="line"/>
			<point x="76" y="358" type="line"/>
			<point x="914" y="358" type="line" smooth="yes"/>
			<point x="936" y="358"/>
			<point x="940" y="373" type="qcurve"/>
			<point x="919" y="392"/>
			<point x="853" y="445"/>
			<point x="853" y="445" type="qcurve"/>
			<point x="807" y="387" type="line"/>
			<point x="529" y="387" type="line"/>
			<point x="529" y="506" type="line"/>
			<point x="832" y="506" type="line" smooth="yes"/>
			<point x="855" y="506"/>
			<point x="859" y="522" type="qcurve"/>
			<point x="839" y="540"/>
			<point x="775" y="591"/>
			<point x="775" y="591" type="qcurve"/>
			<point x="730" y="535" type="line"/>
			<point x="529" y="535" type="line"/>
			<point x="529" y="648" type="line"/>
			<point x="882" y="648" type="line" smooth="yes"/>
			<point x="904" y="648"/>
			<point x="908" y="664" type="qcurve"/>
			<point x="887" y="683"/>
			<point x="821" y="736"/>
			<point x="821" y="736" type="qcurve"/>
			<point x="773" y="678" type="line"/>
			<point x="605" y="678" type="line"/>
			<point x="677" y="743"/>
			<point x="713" y="790" type="qcurve"/>
			<point x="744" y="787"/>
			<point x="752" y="807" type="qcurve"/>
			<point x="652" y="840" type="line"/>
		</contour>
	</outline>
	<note>
美字头
</note>
</glyph>
<glyph name="盥右角" format="2">
	<unicode hex="E094"/>
	<advance height="1880" width="1000"/>
	<outline>
		<contour>
			<point x="678" y="597" type="line"/>
			<point x="687" y="567" type="line"/>
			<point x="822" y="567" type="line"/>
			<point x="817" y="426" type="line"/>
			<point x="689" y="426" type="line"/>
			<point x="698" y="396" type="line"/>
			<point x="816" y="396" type="line"/>
			<point x="813" y="313" type="line"/>
			<point x="829" y="313" type="line" smooth="yes"/>
			<point x="843" y="312"/>
			<point x="876" y="325"/>
			<point x="877" y="334" type="qcurve" smooth="yes"/>
			<point x="890" y="725" type="line"/>
			<point x="925" y="732"/>
			<point x="934" y="744" type="qcurve"/>
			<point x="850" y="806" type="line"/>
			<point x="819" y="766" type="line"/>
			<point x="669" y="766" type="line"/>
			<point x="678" y="737" type="line"/>
			<point x="828" y="737" type="line"/>
			<point x="823" y="597" type="line"/>
		</contour>
	</outline>
	<note>
盥右角
</note>
</glyph>
<glyph name="盥左角" format="2">
	<unicode hex="E095"/>
	<advance height="1880" width="1000"/>
	<outline>
		<contour>
			<point x="227" y="593" type="line"/>
			<point x="178" y="593" type="line"/>
			<point x="171" y="718" type="line"/>
			<point x="259" y="733"/>
			<point x="351" y="765" type="qcurve"/>
			<point x="373" y="757"/>
			<point x="380" y="767" type="qcurve"/>
			<point x="310" y="823" type="line"/>
			<point x="265" y="790"/>
			<point x="192" y="752" type="qcurve"/>
			<point x="107" y="764" type="line"/>
			<point x="132" y="305" type="line"/>
			<point x="178" y="303"/>
			<point x="194" y="322" type="qcurve"/>
			<point x="190" y="394" type="line"/>
			<point x="308" y="394" type="line" smooth="yes"/>
			<point x="329" y="394"/>
			<point x="332" y="410" type="qcurve"/>
			<point x="318" y="425"/>
			<point x="272" y="465"/>
			<point x="272" y="465" type="qcurve"/>
			<point x="239" y="423" type="line"/>
			<point x="188" y="423" type="line"/>
			<point x="180" y="564" type="line"/>
			<point x="299" y="564" type="line" smooth="yes"/>
			<point x="319" y="564"/>
			<point x="323" y="580" type="qcurve"/>
			<point x="309" y="596"/>
			<point x="260" y="635"/>
			<point x="260" y="635" type="qcurve"/>
		</contour>
	</outline>
	<note>
盥左角
</note>
</glyph>
<glyph name="歺头" format="2">
	<unicode hex="E098"/>
	<advance height="1880" width="1000"/>
	<outline>
		<contour>
			<point x="282" y="550" type="line"/>
			<point x="724" y="550" type="line" smooth="yes"/>
			<point x="747" y="550"/>
			<point x="750" y="566" type="qcurve"/>
			<point x="731" y="583"/>
			<point x="672" y="629"/>
			<point x="672" y="629" type="qcurve"/>
			<point x="629" y="579" type="line"/>
			<point x="274" y="579" type="line"/>
		</contour>
		<contour>
			<point x="172" y="675"/>
			<point x="119" y="603"/>
			<point x="86" y="587" type="qcurve"/>
			<point x="70" y="577"/>
			<point x="55" y="550"/>
			<point x="61" y="536" type="qcurve" smooth="yes"/>
			<point x="69" y="520"/>
			<point x="111" y="518"/>
			<point x="131" y="530" type="qcurve" smooth="yes"/>
			<point x="154" y="545"/>
			<point x="190" y="600"/>
			<point x="196" y="638" type="qcurve"/>
			<point x="839" y="638" type="line"/>
			<point x="813" y="568"/>
			<point x="798" y="539" type="qcurve"/>
			<point x="812" y="532" type="line"/>
			<point x="873" y="574"/>
			<point x="919" y="626" type="qcurve"/>
			<point x="947" y="627"/>
			<point x="957" y="636" type="qcurve"/>
			<point x="880" y="711" type="line"/>
			<point x="837" y="667" type="line"/>
			<point x="525" y="667" type="line"/>
			<point x="525" y="730" type="line"/>
			<point x="794" y="730" type="line" smooth="yes"/>
			<point x="817" y="730"/>
			<point x="821" y="746" type="qcurve"/>
			<point x="800" y="764"/>
			<point x="737" y="814"/>
			<point x="737" y="814" type="qcurve"/>
			<point x="693" y="759" type="line"/>
			<point x="525" y="759" type="line"/>
			<point x="525" y="802" type="line"/>
			<point x="559" y="806"/>
			<point x="561" y="829" type="qcurve"/>
			<point x="460" y="839" type="line"/>
			<point x="460" y="667" type="line"/>
			<point x="198" y="667" type="line"/>
			<point x="198" y="688"/>
			<point x="193" y="716" type="qcurve"/>
			<point x="175" y="717" type="line"/>
		</contour>
	</outline>
	<note>
歺头
</note>
</glyph>
<glyph name="祭字头" format="2">
	<unicode hex="E09B"/>
	<advance height="1880" width="1000"/>
	<outline>
		<contour>
			<point x="251" y="843" type="line"/>
			<point x="218" y="755"/>
			<point x="104" y="592"/>
			<point x="41" y="542" type="qcurve"/>
			<point x="54" y="529" type="line"/>
			<point x="102" y="555"/>
			<point x="138" y="586" type="qcurve"/>
			<point x="164" y="565"/>
			<point x="205" y="513"/>
			<point x="211" y="489" type="qcurve"/>
			<point x="240" y="473"/>
			<point x="268" y="512"/>
			<point x="223" y="582"/>
			<point x="156" y="601" type="qcurve"/>
			<point x="181" y="623"/>
			<point x="216" y="661" type="qcurve"/>
			<point x="270" y="629"/>
			<point x="295" y="585" type="qcurve"/>
			<point x="324" y="574"/>
			<point x="347" y="613"/>
			<point x="297" y="671"/>
			<point x="232" y="680" type="qcurve"/>
			<point x="260" y="717" type="line"/>
			<point x="415" y="717" type="line"/>
			<point x="370" y="584"/>
			<point x="181" y="376"/>
			<point x="40" y="314" type="qcurve"/>
			<point x="49" y="298" type="line"/>
			<point x="219" y="355"/>
			<point x="432" y="564"/>
			<point x="487" y="709" type="qcurve"/>
			<point x="519" y="710"/>
			<point x="529" y="721" type="qcurve"/>
			<point x="457" y="787" type="line"/>
			<point x="413" y="747" type="line"/>
			<point x="280" y="747" type="line"/>
			<point x="305" y="789" type="line"/>
			<point x="334" y="785"/>
			<point x="343" y="804" type="qcurve"/>
		</contour>
		<contour>
			<point x="625" y="621"/>
			<point x="576" y="721" type="qcurve"/>
			<point x="810" y="721" type="line"/>
			<point x="766" y="627"/>
			<point x="706" y="545" type="qcurve"/>
		</contour>
		<contour>
			<point x="519" y="811" type="line"/>
			<point x="603" y="467"/>
			<point x="899" y="329" type="qcurve"/>
			<point x="918" y="376"/>
			<point x="962" y="381" type="qcurve"/>
			<point x="964" y="391" type="line"/>
			<point x="828" y="438"/>
			<point x="723" y="529" type="qcurve"/>
			<point x="823" y="616"/>
			<point x="888" y="711" type="qcurve"/>
			<point x="918" y="711"/>
			<point x="929" y="720" type="qcurve"/>
			<point x="854" y="792" type="line"/>
			<point x="810" y="750" type="line"/>
			<point x="562" y="750" type="line"/>
			<point x="544" y="796"/>
			<point x="537" y="821" type="qcurve"/>
		</contour>
	</outline>
	<note>
祭字头
</note>
</glyph>
<glyph name="竹头" format="2">
	<unicode hex="E09E"/>
	<advance height="1880" width="1000"/>
	<outline>
		<contour>
			<point x="142" y="606"/>
			<point x="32" y="455" type="qcurve"/>
			<point x="46" y="445" type="line"/>
			<point x="132" y="522"/>
			<point x="206" y="651" type="qcurve"/>
			<point x="258" y="651" type="line"/>
			<point x="283" y="615"/>
			<point x="321" y="527"/>
			<point x="322" y="491" type="qcurve"/>
			<point x="351" y="466"/>
			<point x="391" y="509"/>
			<point x="358" y="607"/>
			<point x="292" y="651" type="qcurve"/>
			<point x="492" y="651" type="line" smooth="yes"/>
			<point x="513" y="651"/>
			<point x="517" y="667" type="qcurve"/>
			<point x="499" y="685"/>
			<point x="440" y="734"/>
			<point x="440" y="734" type="qcurve"/>
			<point x="399" y="681" type="line"/>
			<point x="222" y="681" type="line"/>
			<point x="246" y="724"/>
			<point x="272" y="788" type="qcurve"/>
			<point x="302" y="787"/>
			<point x="310" y="807" type="qcurve"/>
			<point x="212" y="839" type="line"/>
		</contour>
		<contour>
			<point x="574" y="738"/>
			<point x="483" y="551"/>
			<point x="433" y="487" type="qcurve"/>
			<point x="446" y="477" type="line"/>
			<point x="527" y="543"/>
			<point x="595" y="651" type="qcurve"/>
			<point x="646" y="651" type="line"/>
			<point x="679" y="616"/>
			<point x="727" y="525"/>
			<point x="730" y="485" type="qcurve"/>
			<point x="753" y="466"/>
			<point x="792" y="486"/>
			<point x="795" y="546"/>
			<point x="744" y="620"/>
			<point x="688" y="651" type="qcurve"/>
			<point x="935" y="651" type="line" smooth="yes"/>
			<point x="958" y="651"/>
			<point x="962" y="667" type="qcurve"/>
			<point x="942" y="686"/>
			<point x="877" y="739"/>
			<point x="877" y="739" type="qcurve"/>
			<point x="831" y="681" type="line"/>
			<point x="613" y="681" type="line"/>
			<point x="640" y="728"/>
			<point x="664" y="787" type="qcurve"/>
			<point x="694" y="784"/>
			<point x="702" y="805" type="qcurve"/>
			<point x="602" y="838" type="line"/>
		</contour>
	</outline>
	<note>
竹头
</note>
</glyph>
<glyph name="索字头" format="2">
	<unicode hex="E0A0"/>
	<advance height="1880" width="1000"/>
	<outline>
		<contour>
			<point x="836" y="554" type="line"/>
			<point x="814" y="484"/>
			<point x="791" y="434" type="qcurve"/>
			<point x="803" y="426" type="line"/>
			<point x="872" y="478"/>
			<point x="920" y="541" type="qcurve"/>
			<point x="948" y="542"/>
			<point x="959" y="551" type="qcurve"/>
			<point x="878" y="629" type="line"/>
			<point x="833" y="584" type="line"/>
			<point x="531" y="584" type="line"/>
			<point x="531" y="695" type="line"/>
			<point x="867" y="695" type="line" smooth="yes"/>
			<point x="890" y="695"/>
			<point x="894" y="711" type="qcurve"/>
			<point x="872" y="731"/>
			<point x="802" y="785"/>
			<point x="802" y="785" type="qcurve"/>
			<point x="752" y="725" type="line"/>
			<point x="531" y="725" type="line"/>
			<point x="531" y="800" type="line"/>
			<point x="565" y="805"/>
			<point x="568" y="827" type="qcurve"/>
			<point x="467" y="838" type="line"/>
			<point x="467" y="725" type="line"/>
			<point x="149" y="725" type="line"/>
			<point x="158" y="695" type="line"/>
			<point x="467" y="695" type="line"/>
			<point x="467" y="584" type="line"/>
			<point x="170" y="584" type="line"/>
			<point x="169" y="593"/>
			<point x="165" y="628" type="qcurve"/>
			<point x="148" y="629" type="line"/>
			<point x="142" y="570"/>
			<point x="92" y="495"/>
			<point x="55" y="479" type="qcurve"/>
			<point x="36" y="455"/>
			<point x="62" y="420"/>
			<point x="121" y="428"/>
			<point x="168" y="492"/>
			<point x="170" y="554" type="qcurve"/>
			<point x="462" y="554" type="line"/>
			<point x="470" y="554" type="line"/>
		</contour>
	</outline>
	<note>
索字头
</note>
</glyph>
<glyph name="民字框" format="2">
	<unicode hex="E0A3"/>
	<advance height="1880" width="1000"/>
	<outline>
		<contour>
			<point x="736" y="747" type="line"/>
			<point x="736" y="551" type="line"/>
			<point x="209" y="551" type="line"/>
			<point x="209" y="747" type="line"/>
		</contour>
		<contour>
			<point x="209" y="521" type="line"/>
			<point x="453" y="521" type="line"/>
			<point x="517" y="521" type="line"/>
			<point x="736" y="521" type="line"/>
			<point x="736" y="472" type="line"/>
			<point x="746" y="472" type="line" smooth="yes"/>
			<point x="762" y="472"/>
			<point x="801" y="488"/>
			<point x="802" y="494" type="qcurve"/>
			<point x="802" y="735" type="line"/>
			<point x="834" y="741"/>
			<point x="845" y="754" type="qcurve"/>
			<point x="763" y="817" type="line"/>
			<point x="726" y="776" type="line"/>
			<point x="221" y="776" type="line"/>
			<point x="143" y="810" type="line"/>
			<point x="143" y="40" type="line" smooth="yes"/>
			<point x="143" y="23"/>
			<point x="131" y="7"/>
			<point x="110" y="-4" type="qcurve"/>
			<point x="147" y="-78" type="line"/>
			<point x="161" y="-72"/>
			<point x="169" y="-56" type="qcurve"/>
			<point x="273" y="-6"/>
			<point x="519" y="120" type="qcurve"/>
			<point x="514" y="135" type="line"/>
			<point x="318" y="63"/>
			<point x="209" y="26" type="qcurve"/>
			<point x="209" y="321" type="line"/>
			<point x="209" y="351" type="line"/>
		</contour>
	</outline>
	<note>
民字框
</note>
</glyph>
<glyph name="亥无亠无人" format="2">
	<unicode hex="E0A7"/>
	<advance height="1880" width="1000"/>
	<outline>
		<contour>
			<point x="358" y="582"/>
			<point x="245" y="455"/>
			<point x="200" y="428" type="qcurve"/>
			<point x="195" y="424"/>
			<point x="164" y="419"/>
			<point x="164" y="419" type="qcurve"/>
			<point x="192" y="340" type="line"/>
			<point x="205" y="345"/>
			<point x="214" y="356" type="qcurve"/>
			<point x="307" y="369"/>
			<point x="520" y="404" type="qcurve"/>
			<point x="351" y="251"/>
			<point x="85" y="138" type="qcurve"/>
			<point x="93" y="122" type="line"/>
			<point x="290" y="186"/>
			<point x="603" y="378"/>
			<point x="722" y="521" type="qcurve"/>
			<point x="754" y="510"/>
			<point x="764" y="527" type="qcurve"/>
			<point x="678" y="581" type="line"/>
			<point x="618" y="497"/>
			<point x="547" y="429" type="qcurve"/>
			<point x="375" y="419"/>
			<point x="238" y="417" type="qcurve"/>
			<point x="362" y="492"/>
			<point x="447" y="571" type="qcurve"/>
			<point x="462" y="568"/>
			<point x="484" y="576"/>
			<point x="488" y="584" type="qcurve"/>
			<point x="391" y="631" type="line"/>
			<point x="388" y="631" type="line"/>
		</contour>
	</outline>
	<note>
亥无亠无人
</note>
</glyph>
<glyph name="曾字头无丷" format="2">
	<unicode hex="E0A9"/>
	<advance height="1880" width="1000"/>
	<outline>
		<contour>
			<point x="682" y="642" type="line"/>
			<point x="606" y="501"/>
			<point x="578" y="457" type="qcurve"/>
			<point x="589" y="446" type="line"/>
			<point x="663" y="515"/>
			<point x="731" y="585" type="qcurve"/>
			<point x="759" y="581"/>
			<point x="766" y="594" type="qcurve"/>
		</contour>
		<contour>
			<point x="249" y="627" type="line"/>
			<point x="282" y="593"/>
			<point x="340" y="501"/>
			<point x="348" y="463" type="qcurve"/>
			<point x="371" y="446"/>
			<point x="405" y="470"/>
			<point x="398" y="532"/>
			<point x="329" y="605"/>
			<point x="260" y="635" type="qcurve"/>
		</contour>
		<contour>
			<point x="390" y="692" type="line"/>
			<point x="352" y="697" type="line"/>
			<point x="363" y="692" type="line"/>
			<point x="212" y="692" type="line"/>
			<point x="136" y="724" type="line"/>
			<point x="136" y="320" type="line"/>
			<point x="147" y="320" type="line" smooth="yes"/>
			<point x="168" y="320"/>
			<point x="200" y="337"/>
			<point x="200" y="342" type="qcurve" smooth="yes"/>
			<point x="200" y="389" type="line"/>
			<point x="804" y="389" type="line"/>
			<point x="804" y="336" type="line"/>
			<point x="814" y="336" type="line" smooth="yes"/>
			<point x="830" y="336"/>
			<point x="868" y="352"/>
			<point x="868" y="358" type="qcurve" smooth="yes"/>
			<point x="868" y="656" type="line"/>
			<point x="893" y="659"/>
			<point x="902" y="672" type="qcurve"/>
			<point x="830" y="728" type="line"/>
			<point x="796" y="692" type="line"/>
			<point x="609" y="692" type="line"/>
			<point x="575" y="692" type="line"/>
			<point x="532" y="692" type="line"/>
		</contour>
		<contour>
			<point x="470" y="662" type="line"/>
			<point x="470" y="418" type="line"/>
			<point x="200" y="418" type="line"/>
			<point x="200" y="662" type="line"/>
		</contour>
		<contour>
			<point x="804" y="418" type="line"/>
			<point x="532" y="418" type="line"/>
			<point x="532" y="662" type="line"/>
			<point x="804" y="662" type="line"/>
		</contour>
	</outline>
	<note>
曾字头无丷
</note>
</glyph>
<glyph name="高头" format="2">
	<unicode hex="E0AC"/>
	<advance height="1880" width="1000"/>
	<outline>
		<contour>
			<point x="422" y="834" type="line"/>
			<point x="474" y="803"/>
			<point x="495" y="752" type="qcurve"/>
			<point x="518" y="739"/>
			<point x="555" y="761"/>
			<point x="551" y="806"/>
			<point x="491" y="842"/>
			<point x="431" y="843" type="qcurve"/>
		</contour>
		<contour>
			<point x="811" y="744" type="line"/>
			<point x="68" y="744" type="line"/>
			<point x="77" y="714" type="line"/>
			<point x="921" y="714" type="line" smooth="yes"/>
			<point x="942" y="714"/>
			<point x="947" y="730" type="qcurve"/>
			<point x="926" y="750"/>
			<point x="859" y="805"/>
			<point x="859" y="805" type="qcurve"/>
		</contour>
		<contour>
			<point x="672" y="404" type="line"/>
			<point x="672" y="349" type="line"/>
			<point x="335" y="349" type="line"/>
			<point x="335" y="404" type="line"/>
		</contour>
		<contour>
			<point x="272" y="291" type="line"/>
			<point x="282" y="291" type="line" smooth="yes"/>
			<point x="304" y="291"/>
			<point x="335" y="307"/>
			<point x="335" y="312" type="qcurve" smooth="yes"/>
			<point x="335" y="319" type="line"/>
			<point x="672" y="319" type="line"/>
			<point x="672" y="297" type="line"/>
			<point x="682" y="297" type="line" smooth="yes"/>
			<point x="697" y="297"/>
			<point x="735" y="312"/>
			<point x="736" y="317" type="qcurve"/>
			<point x="736" y="398" type="line"/>
			<point x="760" y="402"/>
			<point x="770" y="413" type="qcurve"/>
			<point x="697" y="468" type="line"/>
			<point x="664" y="433" type="line"/>
			<point x="340" y="433" type="line"/>
			<point x="272" y="462" type="line"/>
		</contour>
		<contour>
			<point x="686" y="642" type="line"/>
			<point x="686" y="586" type="line"/>
			<point x="321" y="586" type="line"/>
			<point x="321" y="642" type="line"/>
		</contour>
		<contour>
			<point x="258" y="531" type="line"/>
			<point x="268" y="531" type="line" smooth="yes"/>
			<point x="290" y="531"/>
			<point x="321" y="546"/>
			<point x="321" y="552" type="qcurve" smooth="yes"/>
			<point x="321" y="557" type="line"/>
			<point x="686" y="557" type="line"/>
			<point x="686" y="534" type="line"/>
			<point x="697" y="534" type="line" smooth="yes"/>
			<point x="712" y="534"/>
			<point x="750" y="549"/>
			<point x="751" y="555" type="qcurve"/>
			<point x="751" y="635" type="line"/>
			<point x="777" y="640"/>
			<point x="788" y="651" type="qcurve"/>
			<point x="712" y="708" type="line"/>
			<point x="678" y="672" type="line"/>
			<point x="326" y="672" type="line"/>
			<point x="258" y="701" type="line"/>
		</contour>
		<contour>
			<point x="150" y="552" type="line"/>
			<point x="154" y="511"/>
			<point x="119" y="439"/>
			<point x="91" y="423" type="qcurve" smooth="yes"/>
			<point x="75" y="413"/>
			<point x="60" y="387"/>
			<point x="67" y="373" type="qcurve" smooth="yes"/>
			<point x="74" y="357"/>
			<point x="116" y="355"/>
			<point x="133" y="368" type="qcurve" smooth="yes"/>
			<point x="154" y="382"/>
			<point x="182" y="440"/>
			<point x="181" y="481" type="qcurve"/>
			<point x="840" y="481" type="line"/>
			<point x="825" y="435"/>
			<point x="806" y="394" type="qcurve"/>
			<point x="820" y="387" type="line"/>
			<point x="872" y="424"/>
			<point x="913" y="471" type="qcurve"/>
			<point x="942" y="473"/>
			<point x="951" y="480" type="qcurve"/>
			<point x="878" y="550" type="line"/>
			<point x="838" y="510" type="line"/>
			<point x="178" y="510" type="line"/>
			<point x="174" y="534"/>
			<point x="168" y="553" type="qcurve"/>
		</contour>
	</outline>
	<note>
高头
</note>
</glyph>
<glyph name="臧字框" format="2">
	<unicode hex="E0AD"/>
	<advance height="1880" width="1000"/>
	<outline>
		<contour>
			<point x="753" y="811" type="line"/>
			<point x="775" y="792"/>
			<point x="813" y="736"/>
			<point x="819" y="712" type="qcurve"/>
			<point x="848" y="695"/>
			<point x="879" y="733"/>
			<point x="834" y="801"/>
			<point x="764" y="818" type="qcurve"/>
		</contour>
		<contour>
			<point x="843" y="669" type="line"/>
			<point x="700" y="669" type="line"/>
			<point x="699" y="713"/>
			<point x="699" y="801" type="qcurve"/>
			<point x="732" y="805"/>
			<point x="736" y="828" type="qcurve"/>
			<point x="639" y="840" type="line"/>
			<point x="639" y="742"/>
			<point x="643" y="669" type="qcurve"/>
			<point x="304" y="669" type="line"/>
			<point x="235" y="701" type="line"/>
			<point x="235" y="498" type="line"/>
			<point x="150" y="498" type="line"/>
			<point x="150" y="694" type="line"/>
			<point x="192" y="701"/>
			<point x="192" y="718" type="qcurve"/>
			<point x="96" y="729" type="line"/>
			<point x="96" y="500" type="line"/>
			<point x="81" y="493"/>
			<point x="69" y="481" type="qcurve"/>
			<point x="135" y="435" type="line"/>
			<point x="158" y="468" type="line"/>
			<point x="235" y="468" type="line"/>
			<point x="235" y="379" type="line"/>
			<point x="235" y="352" type="line"/>
			<point x="47" y="352" type="line"/>
			<point x="56" y="323" type="line"/>
			<point x="122" y="323" type="line"/>
			<point x="120" y="227"/>
			<point x="85" y="79"/>
			<point x="33" y="18" type="qcurve"/>
			<point x="49" y="3" type="line"/>
			<point x="120" y="63"/>
			<point x="175" y="236"/>
			<point x="177" y="323" type="qcurve"/>
			<point x="234" y="323" type="line"/>
			<point x="231" y="199"/>
			<point x="175" y="8"/>
			<point x="105" y="-65" type="qcurve"/>
			<point x="120" y="-78" type="line"/>
			<point x="226" y="2"/>
			<point x="292" y="228"/>
			<point x="292" y="380" type="qcurve" smooth="yes"/>
			<point x="292" y="640" type="line"/>
			<point x="644" y="640" type="line"/>
			<point x="651" y="507"/>
			<point x="688" y="285"/>
			<point x="720" y="195" type="qcurve"/>
			<point x="684" y="131"/>
			<point x="637" y="75" type="qcurve" smooth="yes"/>
			<point x="611" y="47" type="line" smooth="yes"/>
			<point x="555" y="-13"/>
			<point x="485" y="-59" type="qcurve"/>
			<point x="497" y="-73" type="line"/>
			<point x="646" y="2"/>
			<point x="743" y="138" type="qcurve"/>
			<point x="786" y="42"/>
			<point x="852" y="-23" type="qcurve" smooth="yes"/>
			<point x="883" y="-54"/>
			<point x="949" y="-82"/>
			<point x="964" y="-64" type="qcurve" smooth="yes"/>
			<point x="970" y="-56"/>
			<point x="962" y="-30"/>
			<point x="943" y="-2" type="qcurve"/>
			<point x="960" y="148" type="line"/>
			<point x="946" y="149" type="line"/>
			<point x="930" y="85"/>
			<point x="910" y="40" type="qcurve" smooth="yes"/>
			<point x="903" y="24"/>
			<point x="892" y="23"/>
			<point x="881" y="35" type="qcurve" smooth="yes"/>
			<point x="817" y="96"/>
			<point x="779" y="194" type="qcurve"/>
			<point x="853" y="323"/>
			<point x="890" y="501" type="qcurve"/>
			<point x="923" y="501"/>
			<point x="928" y="523" type="qcurve"/>
			<point x="833" y="544" type="line"/>
			<point x="809" y="384"/>
			<point x="754" y="264" type="qcurve"/>
			<point x="709" y="418"/>
			<point x="701" y="640" type="qcurve"/>
			<point x="941" y="640" type="line" smooth="yes"/>
			<point x="964" y="640"/>
			<point x="965" y="656" type="qcurve"/>
			<point x="947" y="674"/>
			<point x="886" y="720"/>
			<point x="886" y="720" type="qcurve"/>
		</contour>
	</outline>
	<note>
臧字框
</note>
</glyph>
<glyph name="舆字头框" format="2">
	<unicode hex="E0AF"/>
	<advance height="1880" width="1000"/>
	<outline>
		<contour>
			<point x="200" y="213" type="line"/>
			<point x="195" y="391" type="line"/>
			<point x="343" y="391" type="line" smooth="yes"/>
			<point x="363" y="391"/>
			<point x="367" y="407" type="qcurve"/>
			<point x="353" y="423"/>
			<point x="308" y="463"/>
			<point x="308" y="463" type="qcurve"/>
			<point x="275" y="421" type="line"/>
			<point x="194" y="421" type="line"/>
			<point x="190" y="568" type="line"/>
			<point x="325" y="568" type="line" smooth="yes"/>
			<point x="346" y="568"/>
			<point x="349" y="584" type="qcurve"/>
			<point x="335" y="600"/>
			<point x="292" y="639"/>
			<point x="292" y="639" type="qcurve"/>
			<point x="260" y="598" type="line"/>
			<point x="190" y="598" type="line"/>
			<point x="186" y="730" type="line"/>
			<point x="281" y="742"/>
			<point x="357" y="764" type="qcurve"/>
			<point x="375" y="753"/>
			<point x="384" y="762" type="qcurve"/>
			<point x="328" y="821" type="line"/>
			<point x="286" y="794"/>
			<point x="207" y="760" type="qcurve"/>
			<point x="126" y="786" type="line"/>
			<point x="141" y="213" type="line"/>
			<point x="45" y="213" type="line"/>
			<point x="54" y="184" type="line"/>
			<point x="941" y="184" type="line" smooth="yes"/>
			<point x="962" y="184"/>
			<point x="965" y="200" type="qcurve"/>
			<point x="949" y="218"/>
			<point x="893" y="269"/>
			<point x="893" y="269" type="qcurve"/>
			<point x="854" y="213" type="line"/>
			<point x="846" y="213" type="line"/>
			<point x="874" y="740" type="line"/>
			<point x="900" y="744"/>
			<point x="909" y="753" type="qcurve"/>
			<point x="839" y="816" type="line"/>
			<point x="805" y="775" type="line"/>
			<point x="636" y="775" type="line"/>
			<point x="645" y="746" type="line"/>
			<point x="813" y="746" type="line"/>
			<point x="805" y="604" type="line"/>
			<point x="642" y="604" type="line"/>
			<point x="651" y="574" type="line"/>
			<point x="803" y="574" type="line"/>
			<point x="795" y="428" type="line"/>
			<point x="646" y="428" type="line"/>
			<point x="655" y="399" type="line"/>
			<point x="793" y="399" type="line"/>
			<point x="783" y="213" type="line"/>
			<point x="542" y="213" type="line"/>
			<point x="483" y="213" type="line"/>
		</contour>
	</outline>
	<note>
舆字头框
</note>
</glyph>
<glyph name="舞字头" format="2">
	<unicode hex="E0B1"/>
	<advance height="1880" width="1000"/>
	<outline>
		<contour>
			<point x="829" y="581" type="line"/>
			<point x="771" y="581" type="line"/>
			<point x="771" y="706" type="line"/>
			<point x="883" y="706" type="line" smooth="yes"/>
			<point x="906" y="706"/>
			<point x="909" y="722" type="qcurve"/>
			<point x="892" y="739"/>
			<point x="838" y="785"/>
			<point x="838" y="785" type="qcurve"/>
			<point x="799" y="736" type="line"/>
			<point x="264" y="736" type="line"/>
			<point x="292" y="769"/>
			<point x="317" y="808" type="qcurve"/>
			<point x="351" y="804"/>
			<point x="354" y="819" type="qcurve"/>
			<point x="259" y="848" type="line"/>
			<point x="232" y="783"/>
			<point x="136" y="643"/>
			<point x="87" y="599" type="qcurve"/>
			<point x="98" y="588" type="line"/>
			<point x="166" y="629"/>
			<point x="234" y="702" type="qcurve"/>
			<point x="234" y="581" type="line"/>
			<point x="83" y="581" type="line"/>
			<point x="92" y="551" type="line"/>
			<point x="234" y="551" type="line"/>
			<point x="234" y="425" type="line"/>
			<point x="45" y="425" type="line"/>
			<point x="54" y="395" type="line"/>
			<point x="935" y="395" type="line" smooth="yes"/>
			<point x="956" y="395"/>
			<point x="959" y="411" type="qcurve"/>
			<point x="941" y="430"/>
			<point x="880" y="480"/>
			<point x="880" y="480" type="qcurve"/>
			<point x="837" y="425" type="line"/>
			<point x="771" y="425" type="line"/>
			<point x="771" y="551" type="line"/>
			<point x="917" y="551" type="line" smooth="yes"/>
			<point x="939" y="551"/>
			<point x="942" y="567" type="qcurve"/>
			<point x="924" y="584"/>
			<point x="868" y="631"/>
			<point x="868" y="631" type="qcurve"/>
		</contour>
		<contour>
			<point x="713" y="581" type="line"/>
			<point x="610" y="581" type="line"/>
			<point x="610" y="706" type="line"/>
			<point x="713" y="706" type="line"/>
		</contour>
		<contour>
			<point x="553" y="581" type="line"/>
			<point x="453" y="581" type="line"/>
			<point x="453" y="706" type="line"/>
			<point x="553" y="706" type="line"/>
		</contour>
		<contour>
			<point x="396" y="581" type="line"/>
			<point x="292" y="581" type="line"/>
			<point x="292" y="706" type="line"/>
			<point x="396" y="706" type="line"/>
		</contour>
		<contour>
			<point x="610" y="425" type="line"/>
			<point x="610" y="551" type="line"/>
			<point x="713" y="551" type="line"/>
			<point x="713" y="425" type="line"/>
		</contour>
		<contour>
			<point x="453" y="425" type="line"/>
			<point x="453" y="551" type="line"/>
			<point x="553" y="551" type="line"/>
			<point x="553" y="425" type="line"/>
		</contour>
		<contour>
			<point x="292" y="425" type="line"/>
			<point x="292" y="551" type="line"/>
			<point x="396" y="551" type="line"/>
			<point x="396" y="425" type="line"/>
		</contour>
	</outline>
	<note>
舞字头
</note>
</glyph>
<glyph name="节字底" format="2">
	<unicode hex="E0B2"/>
	<advance height="1880" width="1000"/>
	<outline>
		<contour>
			<point x="478" y="469" type="line"/>
			<point x="763" y="469" type="line"/>
			<point x="760" y="318"/>
			<point x="748" y="175"/>
			<point x="734" y="160" type="qcurve" smooth="yes"/>
			<point x="726" y="151"/>
			<point x="703" y="151" type="qcurve" smooth="yes"/>
			<point x="666" y="151"/>
			<point x="581" y="160" type="qcurve"/>
			<point x="581" y="143" type="line"/>
			<point x="640" y="134"/>
			<point x="667" y="118" type="qcurve"/>
			<point x="684" y="105"/>
			<point x="684" y="69" type="qcurve"/>
			<point x="748" y="69"/>
			<point x="781" y="103" type="qcurve" smooth="yes"/>
			<point x="806" y="127"/>
			<point x="826" y="292"/>
			<point x="829" y="461" type="qcurve"/>
			<point x="859" y="465"/>
			<point x="868" y="476" type="qcurve"/>
			<point x="791" y="539" type="line"/>
			<point x="753" y="499" type="line"/>
			<point x="104" y="499" type="line"/>
			<point x="113" y="469" type="line"/>
			<point x="410" y="469" type="line"/>
			<point x="410" y="-78" type="line"/>
			<point x="421" y="-78" type="line" smooth="yes"/>
			<point x="444" y="-78"/>
			<point x="478" y="-62"/>
			<point x="478" y="-58" type="qcurve" smooth="yes"/>
		</contour>
	</outline>
	<note>
节字底
</note>
</glyph>
<glyph name="虐字底" format="2">
	<unicode hex="E0B4"/>
	<advance height="1880" width="1000"/>
	<outline>
		<contour>
			<point x="743" y="266" type="line"/>
			<point x="434" y="266" type="line"/>
			<point x="352" y="309" type="line"/>
			<point x="352" y="136" type="line"/>
			<point x="211" y="136" type="line"/>
			<point x="220" y="107" type="line"/>
			<point x="352" y="107" type="line"/>
			<point x="352" y="3" type="line"/>
			<point x="335" y="-6"/>
			<point x="324" y="-19" type="qcurve"/>
			<point x="399" y="-66" type="line"/>
			<point x="424" y="-31" type="line"/>
			<point x="877" y="-31" type="line" smooth="yes"/>
			<point x="899" y="-31"/>
			<point x="903" y="-15" type="qcurve"/>
			<point x="882" y="4"/>
			<point x="816" y="54"/>
			<point x="816" y="54" type="qcurve"/>
			<point x="770" y="-2" type="line"/>
			<point x="417" y="-2" type="line"/>
			<point x="417" y="107" type="line"/>
			<point x="925" y="107" type="line" smooth="yes"/>
			<point x="948" y="107"/>
			<point x="952" y="123" type="qcurve"/>
			<point x="932" y="141"/>
			<point x="870" y="190"/>
			<point x="870" y="190" type="qcurve"/>
			<point x="828" y="136" type="line"/>
			<point x="417" y="136" type="line"/>
			<point x="417" y="236" type="line"/>
			<point x="843" y="236" type="line" smooth="yes"/>
			<point x="865" y="236"/>
			<point x="869" y="252" type="qcurve"/>
			<point x="849" y="270"/>
			<point x="787" y="319"/>
			<point x="787" y="319" type="qcurve"/>
		</contour>
	</outline>
	<note>
虐字底
</note>
</glyph>
<glyph name="衣省" format="2">
	<unicode hex="E0B7"/>
	<advance height="1880" width="1000"/>
	<outline>
		<contour>
			<point x="376" y="500"/>
			<point x="161" y="307"/>
			<point x="36" y="242" type="qcurve"/>
			<point x="44" y="227" type="line"/>
			<point x="176" y="280"/>
			<point x="287" y="357" type="qcurve"/>
			<point x="287" y="42" type="line" smooth="yes"/>
			<point x="287" y="29"/>
			<point x="272" y="11"/>
			<point x="246" y="-5" type="qcurve"/>
			<point x="294" y="-80" type="line"/>
			<point x="306" y="-72"/>
			<point x="313" y="-57" type="qcurve"/>
			<point x="510" y="48"/>
			<point x="617" y="107" type="qcurve"/>
			<point x="611" y="123" type="line"/>
			<point x="463" y="66"/>
			<point x="354" y="30" type="qcurve"/>
			<point x="353" y="385" type="line"/>
			<point x="353" y="407" type="line"/>
			<point x="454" y="489"/>
			<point x="518" y="584" type="qcurve"/>
			<point x="551" y="343"/>
			<point x="736" y="29"/>
			<point x="900" y="-60" type="qcurve"/>
			<point x="926" y="-12"/>
			<point x="969" y="-12" type="qcurve"/>
			<point x="972" y="-1" type="line"/>
			<point x="746" y="94"/>
			<point x="631" y="309" type="qcurve"/>
			<point x="695" y="343"/>
			<point x="828" y="433"/>
			<point x="877" y="473" type="qcurve"/>
			<point x="893" y="469"/>
			<point x="909" y="472"/>
			<point x="915" y="480" type="qcurve"/>
			<point x="827" y="538" type="line"/>
			<point x="748" y="438"/>
			<point x="622" y="327" type="qcurve"/>
			<point x="562" y="446"/>
			<point x="536" y="606" type="qcurve"/>
			<point x="444" y="606" type="line"/>
		</contour>
	</outline>
	<note>
衣省
</note>
</glyph>
<glyph name="衰字腰" format="2">
	<unicode hex="E0B8"/>
	<advance height="1880" width="1000"/>
	<outline>
		<contour>
			<point x="716" y="486" type="line"/>
			<point x="290" y="486" type="line"/>
			<point x="290" y="575" type="line"/>
			<point x="716" y="575" type="line"/>
		</contour>
		<contour>
			<point x="290" y="361" type="line"/>
			<point x="290" y="456" type="line"/>
			<point x="716" y="456" type="line"/>
			<point x="716" y="361" type="line"/>
		</contour>
		<contour>
			<point x="716" y="332" type="line"/>
			<point x="716" y="297" type="line"/>
			<point x="726" y="297" type="line" smooth="yes"/>
			<point x="741" y="297"/>
			<point x="779" y="313"/>
			<point x="780" y="318" type="qcurve"/>
			<point x="780" y="456" type="line"/>
			<point x="930" y="456" type="line" smooth="yes"/>
			<point x="953" y="456"/>
			<point x="956" y="472" type="qcurve"/>
			<point x="937" y="491"/>
			<point x="874" y="544"/>
			<point x="874" y="544" type="qcurve"/>
			<point x="829" y="486" type="line"/>
			<point x="780" y="486" type="line"/>
			<point x="780" y="564" type="line"/>
			<point x="810" y="570"/>
			<point x="821" y="583" type="qcurve"/>
			<point x="742" y="643" type="line"/>
			<point x="706" y="604" type="line"/>
			<point x="295" y="604" type="line"/>
			<point x="226" y="636" type="line"/>
			<point x="226" y="486" type="line"/>
			<point x="46" y="486" type="line"/>
			<point x="55" y="456" type="line"/>
			<point x="226" y="456" type="line"/>
			<point x="226" y="285" type="line"/>
			<point x="236" y="285" type="line" smooth="yes"/>
			<point x="255" y="285"/>
			<point x="290" y="301"/>
			<point x="290" y="306" type="qcurve" smooth="yes"/>
			<point x="290" y="332" type="line"/>
			<point x="435" y="332" type="line"/>
			<point x="546" y="332" type="line"/>
		</contour>
	</outline>
	<note>
衰字腰
</note>
</glyph>
<glyph name="览字头" format="2">
	<unicode hex="E0BB"/>
	<advance height="1880" width="1000"/>
	<outline>
		<contour>
			<point x="323" y="839" type="line"/>
			<point x="323" y="453" type="line"/>
			<point x="335" y="453" type="line" smooth="yes"/>
			<point x="353" y="453"/>
			<point x="386" y="467"/>
			<point x="386" y="473" type="qcurve" smooth="yes"/>
			<point x="386" y="802" type="line"/>
			<point x="420" y="806"/>
			<point x="423" y="828" type="qcurve"/>
		</contour>
		<contour>
			<point x="128" y="775" type="line"/>
			<point x="128" y="476" type="line"/>
			<point x="140" y="476" type="line" smooth="yes"/>
			<point x="157" y="476"/>
			<point x="190" y="491"/>
			<point x="190" y="497" type="qcurve" smooth="yes"/>
			<point x="190" y="737" type="line"/>
			<point x="224" y="742"/>
			<point x="227" y="765" type="qcurve"/>
		</contour>
		<contour>
			<point x="640" y="632" type="line"/>
			<point x="680" y="603"/>
			<point x="756" y="521"/>
			<point x="769" y="486" type="qcurve"/>
			<point x="795" y="472"/>
			<point x="827" y="502"/>
			<point x="809" y="562"/>
			<point x="727" y="623"/>
			<point x="650" y="641" type="qcurve"/>
		</contour>
		<contour>
			<point x="553" y="841" type="line"/>
			<point x="510" y="630"/>
			<point x="421" y="489" type="qcurve"/>
			<point x="437" y="479" type="line"/>
			<point x="512" y="552"/>
			<point x="569" y="674" type="qcurve"/>
			<point x="934" y="674" type="line" smooth="yes"/>
			<point x="956" y="674"/>
			<point x="960" y="689" type="qcurve"/>
			<point x="939" y="708"/>
			<point x="873" y="763"/>
			<point x="873" y="763" type="qcurve"/>
			<point x="825" y="702" type="line"/>
			<point x="582" y="702" type="line"/>
			<point x="606" y="762"/>
			<point x="616" y="794" type="qcurve"/>
			<point x="646" y="793"/>
			<point x="653" y="814" type="qcurve"/>
		</contour>
	</outline>
	<note>
览字头
</note>
</glyph>
<glyph name="黽左角" format="2">
	<unicode hex="E0BF"/>
	<advance height="1880" width="1000"/>
	<outline>
		<contour>
			<point x="166" y="163" type="line"/>
			<point x="166" y="288" type="line"/>
			<point x="383" y="288" type="line"/>
			<point x="383" y="318" type="line"/>
			<point x="166" y="318" type="line"/>
			<point x="166" y="441" type="line"/>
			<point x="383" y="441" type="line"/>
			<point x="383" y="470" type="line"/>
			<point x="170" y="470" type="line"/>
			<point x="102" y="502" type="line"/>
			<point x="102" y="37" type="line"/>
			<point x="113" y="37" type="line" smooth="yes"/>
			<point x="132" y="37"/>
			<point x="166" y="53"/>
			<point x="166" y="59" type="qcurve" smooth="yes"/>
			<point x="166" y="134" type="line"/>
			<point x="383" y="134" type="line"/>
			<point x="383" y="163" type="line"/>
		</contour>
	</outline>
	<note>
黽左角
</note>
</glyph>
<glyph name="贵字头" format="2">
	<unicode hex="E0C1"/>
	<advance height="1880" width="1000"/>
	<outline>
		<contour>
			<point x="244" y="551" type="line"/>
			<point x="463" y="551" type="line"/>
			<point x="463" y="467" type="line"/>
			<point x="40" y="467" type="line"/>
			<point x="49" y="438" type="line"/>
			<point x="934" y="438" type="line" smooth="yes"/>
			<point x="955" y="438"/>
			<point x="959" y="454" type="qcurve"/>
			<point x="938" y="473"/>
			<point x="873" y="524"/>
			<point x="873" y="524" type="qcurve"/>
			<point x="827" y="467" type="line"/>
			<point x="527" y="467" type="line"/>
			<point x="527" y="551" type="line"/>
			<point x="750" y="551" type="line"/>
			<point x="750" y="509" type="line"/>
			<point x="760" y="509" type="line" smooth="yes"/>
			<point x="776" y="509"/>
			<point x="813" y="525"/>
			<point x="814" y="531" type="qcurve"/>
			<point x="814" y="696" type="line"/>
			<point x="838" y="699"/>
			<point x="847" y="711" type="qcurve"/>
			<point x="776" y="766" type="line"/>
			<point x="742" y="731" type="line"/>
			<point x="527" y="731" type="line"/>
			<point x="527" y="807" type="line"/>
			<point x="552" y="811"/>
			<point x="555" y="829" type="qcurve"/>
			<point x="463" y="839" type="line"/>
			<point x="463" y="731" type="line"/>
			<point x="249" y="731" type="line"/>
			<point x="180" y="762" type="line"/>
			<point x="180" y="506" type="line"/>
			<point x="189" y="506" type="line" smooth="yes"/>
			<point x="207" y="506"/>
			<point x="244" y="522"/>
			<point x="244" y="527" type="qcurve" smooth="yes"/>
		</contour>
		<contour>
			<point x="463" y="581" type="line"/>
			<point x="244" y="581" type="line"/>
			<point x="244" y="701" type="line"/>
			<point x="463" y="701" type="line"/>
		</contour>
		<contour>
			<point x="750" y="701" type="line"/>
			<point x="750" y="581" type="line"/>
			<point x="527" y="581" type="line"/>
			<point x="527" y="701" type="line"/>
		</contour>
	</outline>
	<note>
贵字头
</note>
</glyph>
<glyph name="舍字底" format="2">
	<unicode hex="E0C2"/>
	<advance height="1880" width="1000"/>
	<outline>
		<contour>
			<point x="283" y="21" type="line"/>
			<point x="283" y="208" type="line"/>
			<point x="719" y="208" type="line"/>
			<point x="719" y="21" type="line"/>
		</contour>
		<contour>
			<point x="606" y="539" type="line"/>
			<point x="290" y="539" type="line"/>
			<point x="298" y="509" type="line"/>
			<point x="464" y="509" type="line"/>
			<point x="464" y="385" type="line"/>
			<point x="106" y="385" type="line"/>
			<point x="115" y="356" type="line"/>
			<point x="464" y="356" type="line"/>
			<point x="464" y="238" type="line"/>
			<point x="288" y="238" type="line"/>
			<point x="218" y="269" type="line"/>
			<point x="218" y="-76" type="line"/>
			<point x="228" y="-76" type="line" smooth="yes"/>
			<point x="247" y="-76"/>
			<point x="283" y="-60"/>
			<point x="283" y="-55" type="qcurve" smooth="yes"/>
			<point x="283" y="-8" type="line"/>
			<point x="719" y="-8" type="line"/>
			<point x="719" y="-71" type="line"/>
			<point x="729" y="-71" type="line" smooth="yes"/>
			<point x="745" y="-71"/>
			<point x="784" y="-56"/>
			<point x="785" y="-51" type="qcurve"/>
			<point x="785" y="195" type="line"/>
			<point x="819" y="203"/>
			<point x="829" y="216" type="qcurve"/>
			<point x="747" y="279" type="line"/>
			<point x="709" y="238" type="line"/>
			<point x="531" y="238" type="line"/>
			<point x="531" y="356" type="line"/>
			<point x="879" y="356" type="line" smooth="yes"/>
			<point x="902" y="356"/>
			<point x="905" y="372" type="qcurve"/>
			<point x="884" y="391"/>
			<point x="817" y="443"/>
			<point x="817" y="443" type="qcurve"/>
			<point x="770" y="385" type="line"/>
			<point x="531" y="385" type="line"/>
			<point x="531" y="509" type="line"/>
			<point x="702" y="509" type="line" smooth="yes"/>
			<point x="724" y="509"/>
			<point x="727" y="525" type="qcurve"/>
			<point x="708" y="542"/>
			<point x="648" y="589"/>
			<point x="648" y="589" type="qcurve"/>
		</contour>
	</outline>
	<note>
舍字底
</note>
</glyph>
